<?xml version="1.0" encoding="utf-8" standalone="no"?>
<!DOCTYPE svg PUBLIC "-//W3C//DTD SVG 1.1//EN"
  "http://www.w3.org/Graphics/SVG/1.1/DTD/svg11.dtd">
<!-- Created with matplotlib (http://matplotlib.org/) -->
<svg height="360pt" version="1.1" viewBox="0 0 720 360" width="720pt" xmlns="http://www.w3.org/2000/svg" xmlns:xlink="http://www.w3.org/1999/xlink">
 <defs>
  <style type="text/css">
*{stroke-linecap:butt;stroke-linejoin:round;}
  </style>
 </defs>
 <g id="figure_1">
  <g id="patch_1">
   <path d="M 0 360 
L 720 360 
L 720 0 
L 0 0 
z
" style="fill:#ffffff;"/>
  </g>
  <g id="axes_1">
   <g id="patch_2">
    <path d="M 48.44 237.58 
L 685.625625 237.58 
L 685.625625 32.64 
L 48.44 32.64 
z
" style="fill:#ffffff;"/>
   </g>
   <g id="patch_3">
    <path clip-path="url(#pbf3cb56cd8)" d="M 51.758675 237.58 
L 58.396025 237.58 
L 58.396025 127.110483 
L 51.758675 127.110483 
z
" style="fill:#1f77b4;"/>
   </g>
   <g id="patch_4">
    <path clip-path="url(#pbf3cb56cd8)" d="M 65.033376 237.58 
L 71.670726 237.58 
L 71.670726 125.030984 
L 65.033376 125.030984 
z
" style="fill:#1f77b4;"/>
   </g>
   <g id="patch_5">
    <path clip-path="url(#pbf3cb56cd8)" d="M 78.308076 237.58 
L 84.945426 237.58 
L 84.945426 119.829386 
L 78.308076 119.829386 
z
" style="fill:#1f77b4;"/>
   </g>
   <g id="patch_6">
    <path clip-path="url(#pbf3cb56cd8)" d="M 91.582777 237.58 
L 98.220127 237.58 
L 98.220127 116.673975 
L 91.582777 116.673975 
z
" style="fill:#1f77b4;"/>
   </g>
   <g id="patch_7">
    <path clip-path="url(#pbf3cb56cd8)" d="M 104.857477 237.58 
L 111.494827 237.58 
L 111.494827 115.569209 
L 104.857477 115.569209 
z
" style="fill:#1f77b4;"/>
   </g>
   <g id="patch_8">
    <path clip-path="url(#pbf3cb56cd8)" d="M 118.132178 237.58 
L 124.769528 237.58 
L 124.769528 111.79672 
L 118.132178 111.79672 
z
" style="fill:#1f77b4;"/>
   </g>
   <g id="patch_9">
    <path clip-path="url(#pbf3cb56cd8)" d="M 131.406878 237.58 
L 138.044229 237.58 
L 138.044229 110.620314 
L 131.406878 110.620314 
z
" style="fill:#1f77b4;"/>
   </g>
   <g id="patch_10">
    <path clip-path="url(#pbf3cb56cd8)" d="M 144.681579 237.58 
L 151.318929 237.58 
L 151.318929 110.563954 
L 144.681579 110.563954 
z
" style="fill:#1f77b4;"/>
   </g>
   <g id="patch_11">
    <path clip-path="url(#pbf3cb56cd8)" d="M 157.956279 237.58 
L 164.59363 237.58 
L 164.59363 110.311324 
L 157.956279 110.311324 
z
" style="fill:#1f77b4;"/>
   </g>
   <g id="patch_12">
    <path clip-path="url(#pbf3cb56cd8)" d="M 171.23098 237.58 
L 177.86833 237.58 
L 177.86833 108.65061 
L 171.23098 108.65061 
z
" style="fill:#1f77b4;"/>
   </g>
   <g id="patch_13">
    <path clip-path="url(#pbf3cb56cd8)" d="M 184.50568 237.58 
L 191.143031 237.58 
L 191.143031 107.369503 
L 184.50568 107.369503 
z
" style="fill:#1f77b4;"/>
   </g>
   <g id="patch_14">
    <path clip-path="url(#pbf3cb56cd8)" d="M 197.780381 237.58 
L 204.417731 237.58 
L 204.417731 106.091947 
L 197.780381 106.091947 
z
" style="fill:#1f77b4;"/>
   </g>
   <g id="patch_15">
    <path clip-path="url(#pbf3cb56cd8)" d="M 211.055081 237.58 
L 217.692432 237.58 
L 217.692432 103.048834 
L 211.055081 103.048834 
z
" style="fill:#1f77b4;"/>
   </g>
   <g id="patch_16">
    <path clip-path="url(#pbf3cb56cd8)" d="M 224.329782 237.58 
L 230.967132 237.58 
L 230.967132 102.406809 
L 224.329782 102.406809 
z
" style="fill:#1f77b4;"/>
   </g>
   <g id="patch_17">
    <path clip-path="url(#pbf3cb56cd8)" d="M 237.604482 237.58 
L 244.241833 237.58 
L 244.241833 101.943382 
L 237.604482 101.943382 
z
" style="fill:#1f77b4;"/>
   </g>
   <g id="patch_18">
    <path clip-path="url(#pbf3cb56cd8)" d="M 250.879183 237.58 
L 257.516533 237.58 
L 257.516533 98.875361 
L 250.879183 98.875361 
z
" style="fill:#1f77b4;"/>
   </g>
   <g id="patch_19">
    <path clip-path="url(#pbf3cb56cd8)" d="M 264.153883 237.58 
L 270.791234 237.58 
L 270.791234 98.475648 
L 264.153883 98.475648 
z
" style="fill:#1f77b4;"/>
   </g>
   <g id="patch_20">
    <path clip-path="url(#pbf3cb56cd8)" d="M 277.428584 237.58 
L 284.065934 237.58 
L 284.065934 92.805872 
L 277.428584 92.805872 
z
" style="fill:#1f77b4;"/>
   </g>
   <g id="patch_21">
    <path clip-path="url(#pbf3cb56cd8)" d="M 290.703285 237.58 
L 297.340635 237.58 
L 297.340635 91.32326 
L 290.703285 91.32326 
z
" style="fill:#1f77b4;"/>
   </g>
   <g id="patch_22">
    <path clip-path="url(#pbf3cb56cd8)" d="M 303.977985 237.58 
L 310.615335 237.58 
L 310.615335 90.581152 
L 303.977985 90.581152 
z
" style="fill:#1f77b4;"/>
   </g>
   <g id="patch_23">
    <path clip-path="url(#pbf3cb56cd8)" d="M 317.252686 237.58 
L 323.890036 237.58 
L 323.890036 90.573569 
L 317.252686 90.573569 
z
" style="fill:#1f77b4;"/>
   </g>
   <g id="patch_24">
    <path clip-path="url(#pbf3cb56cd8)" d="M 330.527386 237.58 
L 337.164736 237.58 
L 337.164736 90.493876 
L 330.527386 90.493876 
z
" style="fill:#1f77b4;"/>
   </g>
   <g id="patch_25">
    <path clip-path="url(#pbf3cb56cd8)" d="M 343.802087 237.58 
L 350.439437 237.58 
L 350.439437 90.279375 
L 343.802087 90.279375 
z
" style="fill:#1f77b4;"/>
   </g>
   <g id="patch_26">
    <path clip-path="url(#pbf3cb56cd8)" d="M 357.076787 237.58 
L 363.714137 237.58 
L 363.714137 89.945498 
L 357.076787 89.945498 
z
" style="fill:#1f77b4;"/>
   </g>
   <g id="patch_27">
    <path clip-path="url(#pbf3cb56cd8)" d="M 370.351488 237.58 
L 376.988838 237.58 
L 376.988838 88.974218 
L 370.351488 88.974218 
z
" style="fill:#1f77b4;"/>
   </g>
   <g id="patch_28">
    <path clip-path="url(#pbf3cb56cd8)" d="M 383.626188 237.58 
L 390.263538 237.58 
L 390.263538 87.904719 
L 383.626188 87.904719 
z
" style="fill:#1f77b4;"/>
   </g>
   <g id="patch_29">
    <path clip-path="url(#pbf3cb56cd8)" d="M 396.900889 237.58 
L 403.538239 237.58 
L 403.538239 86.940342 
L 396.900889 86.940342 
z
" style="fill:#1f77b4;"/>
   </g>
   <g id="patch_30">
    <path clip-path="url(#pbf3cb56cd8)" d="M 410.175589 237.58 
L 416.812939 237.58 
L 416.812939 86.019721 
L 410.175589 86.019721 
z
" style="fill:#1f77b4;"/>
   </g>
   <g id="patch_31">
    <path clip-path="url(#pbf3cb56cd8)" d="M 423.45029 237.58 
L 430.08764 237.58 
L 430.08764 85.641724 
L 423.45029 85.641724 
z
" style="fill:#1f77b4;"/>
   </g>
   <g id="patch_32">
    <path clip-path="url(#pbf3cb56cd8)" d="M 436.72499 237.58 
L 443.36234 237.58 
L 443.36234 85.602022 
L 436.72499 85.602022 
z
" style="fill:#1f77b4;"/>
   </g>
   <g id="patch_33">
    <path clip-path="url(#pbf3cb56cd8)" d="M 449.999691 237.58 
L 456.637041 237.58 
L 456.637041 84.161229 
L 449.999691 84.161229 
z
" style="fill:#1f77b4;"/>
   </g>
   <g id="patch_34">
    <path clip-path="url(#pbf3cb56cd8)" d="M 463.274391 237.58 
L 469.911742 237.58 
L 469.911742 83.875 
L 463.274391 83.875 
z
" style="fill:#1f77b4;"/>
   </g>
   <g id="patch_35">
    <path clip-path="url(#pbf3cb56cd8)" d="M 476.549092 237.58 
L 483.186442 237.58 
L 483.186442 83.016313 
L 476.549092 83.016313 
z
" style="fill:#1f77b4;"/>
   </g>
   <g id="patch_36">
    <path clip-path="url(#pbf3cb56cd8)" d="M 489.823792 237.58 
L 496.461143 237.58 
L 496.461143 81.941604 
L 489.823792 81.941604 
z
" style="fill:#1f77b4;"/>
   </g>
   <g id="patch_37">
    <path clip-path="url(#pbf3cb56cd8)" d="M 503.098493 237.58 
L 509.735843 237.58 
L 509.735843 79.565514 
L 503.098493 79.565514 
z
" style="fill:#1f77b4;"/>
   </g>
   <g id="patch_38">
    <path clip-path="url(#pbf3cb56cd8)" d="M 516.373193 237.58 
L 523.010544 237.58 
L 523.010544 79.261422 
L 516.373193 79.261422 
z
" style="fill:#1f77b4;"/>
   </g>
   <g id="patch_39">
    <path clip-path="url(#pbf3cb56cd8)" d="M 529.647894 237.58 
L 536.285244 237.58 
L 536.285244 77.435628 
L 529.647894 77.435628 
z
" style="fill:#1f77b4;"/>
   </g>
   <g id="patch_40">
    <path clip-path="url(#pbf3cb56cd8)" d="M 542.922594 237.58 
L 549.559945 237.58 
L 549.559945 72.146506 
L 542.922594 72.146506 
z
" style="fill:#1f77b4;"/>
   </g>
   <g id="patch_41">
    <path clip-path="url(#pbf3cb56cd8)" d="M 556.197295 237.58 
L 562.834645 237.58 
L 562.834645 71.819706 
L 556.197295 71.819706 
z
" style="fill:#1f77b4;"/>
   </g>
   <g id="patch_42">
    <path clip-path="url(#pbf3cb56cd8)" d="M 569.471995 237.58 
L 576.109346 237.58 
L 576.109346 71.67619 
L 569.471995 71.67619 
z
" style="fill:#1f77b4;"/>
   </g>
   <g id="patch_43">
    <path clip-path="url(#pbf3cb56cd8)" d="M 582.746696 237.58 
L 589.384046 237.58 
L 589.384046 69.345672 
L 582.746696 69.345672 
z
" style="fill:#1f77b4;"/>
   </g>
   <g id="patch_44">
    <path clip-path="url(#pbf3cb56cd8)" d="M 596.021396 237.58 
L 602.658747 237.58 
L 602.658747 68.898615 
L 596.021396 68.898615 
z
" style="fill:#1f77b4;"/>
   </g>
   <g id="patch_45">
    <path clip-path="url(#pbf3cb56cd8)" d="M 609.296097 237.58 
L 615.933447 237.58 
L 615.933447 67.277746 
L 609.296097 67.277746 
z
" style="fill:#1f77b4;"/>
   </g>
   <g id="patch_46">
    <path clip-path="url(#pbf3cb56cd8)" d="M 622.570798 237.58 
L 629.208148 237.58 
L 629.208148 65.295275 
L 622.570798 65.295275 
z
" style="fill:#1f77b4;"/>
   </g>
   <g id="patch_47">
    <path clip-path="url(#pbf3cb56cd8)" d="M 635.845498 237.58 
L 642.482848 237.58 
L 642.482848 65.220205 
L 635.845498 65.220205 
z
" style="fill:#1f77b4;"/>
   </g>
   <g id="patch_48">
    <path clip-path="url(#pbf3cb56cd8)" d="M 649.120199 237.58 
L 655.757549 237.58 
L 655.757549 63.826522 
L 649.120199 63.826522 
z
" style="fill:#1f77b4;"/>
   </g>
   <g id="patch_49">
    <path clip-path="url(#pbf3cb56cd8)" d="M 662.394899 237.58 
L 669.032249 237.58 
L 669.032249 62.656465 
L 662.394899 62.656465 
z
" style="fill:#1f77b4;"/>
   </g>
   <g id="patch_50">
    <path clip-path="url(#pbf3cb56cd8)" d="M 675.6696 237.58 
L 682.30695 237.58 
L 682.30695 60.106186 
L 675.6696 60.106186 
z
" style="fill:#1f77b4;"/>
   </g>
   <g id="matplotlib.axis_1">
    <g id="xtick_1">
     <g id="line2d_1">
      <defs>
       <path d="M 0 0 
L 0 3.5 
" id="m9567e997d4" style="stroke:#000000;stroke-width:0.8;"/>
      </defs>
      <g>
       <use style="stroke:#000000;stroke-width:0.8;" x="55.07735" xlink:href="#m9567e997d4" y="237.58"/>
      </g>
     </g>
     <g id="text_1">
      <!-- tecumseh -->
      <defs>
       <path d="M 18.3125 70.21875 
L 18.3125 54.6875 
L 36.8125 54.6875 
L 36.8125 47.703125 
L 18.3125 47.703125 
L 18.3125 18.015625 
Q 18.3125 11.328125 20.140625 9.421875 
Q 21.96875 7.515625 27.59375 7.515625 
L 36.8125 7.515625 
L 36.8125 0 
L 27.59375 0 
Q 17.1875 0 13.234375 3.875 
Q 9.28125 7.765625 9.28125 18.015625 
L 9.28125 47.703125 
L 2.6875 47.703125 
L 2.6875 54.6875 
L 9.28125 54.6875 
L 9.28125 70.21875 
z
" id="DejaVuSans-74"/>
       <path d="M 56.203125 29.59375 
L 56.203125 25.203125 
L 14.890625 25.203125 
Q 15.484375 15.921875 20.484375 11.0625 
Q 25.484375 6.203125 34.421875 6.203125 
Q 39.59375 6.203125 44.453125 7.46875 
Q 49.3125 8.734375 54.109375 11.28125 
L 54.109375 2.78125 
Q 49.265625 0.734375 44.1875 -0.34375 
Q 39.109375 -1.421875 33.890625 -1.421875 
Q 20.796875 -1.421875 13.15625 6.1875 
Q 5.515625 13.8125 5.515625 26.8125 
Q 5.515625 40.234375 12.765625 48.109375 
Q 20.015625 56 32.328125 56 
Q 43.359375 56 49.78125 48.890625 
Q 56.203125 41.796875 56.203125 29.59375 
z
M 47.21875 32.234375 
Q 47.125 39.59375 43.09375 43.984375 
Q 39.0625 48.390625 32.421875 48.390625 
Q 24.90625 48.390625 20.390625 44.140625 
Q 15.875 39.890625 15.1875 32.171875 
z
" id="DejaVuSans-65"/>
       <path d="M 48.78125 52.59375 
L 48.78125 44.1875 
Q 44.96875 46.296875 41.140625 47.34375 
Q 37.3125 48.390625 33.40625 48.390625 
Q 24.65625 48.390625 19.8125 42.84375 
Q 14.984375 37.3125 14.984375 27.296875 
Q 14.984375 17.28125 19.8125 11.734375 
Q 24.65625 6.203125 33.40625 6.203125 
Q 37.3125 6.203125 41.140625 7.25 
Q 44.96875 8.296875 48.78125 10.40625 
L 48.78125 2.09375 
Q 45.015625 0.34375 40.984375 -0.53125 
Q 36.96875 -1.421875 32.421875 -1.421875 
Q 20.0625 -1.421875 12.78125 6.34375 
Q 5.515625 14.109375 5.515625 27.296875 
Q 5.515625 40.671875 12.859375 48.328125 
Q 20.21875 56 33.015625 56 
Q 37.15625 56 41.109375 55.140625 
Q 45.0625 54.296875 48.78125 52.59375 
z
" id="DejaVuSans-63"/>
       <path d="M 8.5 21.578125 
L 8.5 54.6875 
L 17.484375 54.6875 
L 17.484375 21.921875 
Q 17.484375 14.15625 20.5 10.265625 
Q 23.53125 6.390625 29.59375 6.390625 
Q 36.859375 6.390625 41.078125 11.03125 
Q 45.3125 15.671875 45.3125 23.6875 
L 45.3125 54.6875 
L 54.296875 54.6875 
L 54.296875 0 
L 45.3125 0 
L 45.3125 8.40625 
Q 42.046875 3.421875 37.71875 1 
Q 33.40625 -1.421875 27.6875 -1.421875 
Q 18.265625 -1.421875 13.375 4.4375 
Q 8.5 10.296875 8.5 21.578125 
z
M 31.109375 56 
z
" id="DejaVuSans-75"/>
       <path d="M 52 44.1875 
Q 55.375 50.25 60.0625 53.125 
Q 64.75 56 71.09375 56 
Q 79.640625 56 84.28125 50.015625 
Q 88.921875 44.046875 88.921875 33.015625 
L 88.921875 0 
L 79.890625 0 
L 79.890625 32.71875 
Q 79.890625 40.578125 77.09375 44.375 
Q 74.3125 48.1875 68.609375 48.1875 
Q 61.625 48.1875 57.5625 43.546875 
Q 53.515625 38.921875 53.515625 30.90625 
L 53.515625 0 
L 44.484375 0 
L 44.484375 32.71875 
Q 44.484375 40.625 41.703125 44.40625 
Q 38.921875 48.1875 33.109375 48.1875 
Q 26.21875 48.1875 22.15625 43.53125 
Q 18.109375 38.875 18.109375 30.90625 
L 18.109375 0 
L 9.078125 0 
L 9.078125 54.6875 
L 18.109375 54.6875 
L 18.109375 46.1875 
Q 21.1875 51.21875 25.484375 53.609375 
Q 29.78125 56 35.6875 56 
Q 41.65625 56 45.828125 52.96875 
Q 50 49.953125 52 44.1875 
z
" id="DejaVuSans-6d"/>
       <path d="M 44.28125 53.078125 
L 44.28125 44.578125 
Q 40.484375 46.53125 36.375 47.5 
Q 32.28125 48.484375 27.875 48.484375 
Q 21.1875 48.484375 17.84375 46.4375 
Q 14.5 44.390625 14.5 40.28125 
Q 14.5 37.15625 16.890625 35.375 
Q 19.28125 33.59375 26.515625 31.984375 
L 29.59375 31.296875 
Q 39.15625 29.25 43.1875 25.515625 
Q 47.21875 21.78125 47.21875 15.09375 
Q 47.21875 7.46875 41.1875 3.015625 
Q 35.15625 -1.421875 24.609375 -1.421875 
Q 20.21875 -1.421875 15.453125 -0.5625 
Q 10.6875 0.296875 5.421875 2 
L 5.421875 11.28125 
Q 10.40625 8.6875 15.234375 7.390625 
Q 20.0625 6.109375 24.8125 6.109375 
Q 31.15625 6.109375 34.5625 8.28125 
Q 37.984375 10.453125 37.984375 14.40625 
Q 37.984375 18.0625 35.515625 20.015625 
Q 33.0625 21.96875 24.703125 23.78125 
L 21.578125 24.515625 
Q 13.234375 26.265625 9.515625 29.90625 
Q 5.8125 33.546875 5.8125 39.890625 
Q 5.8125 47.609375 11.28125 51.796875 
Q 16.75 56 26.8125 56 
Q 31.78125 56 36.171875 55.265625 
Q 40.578125 54.546875 44.28125 53.078125 
z
" id="DejaVuSans-73"/>
       <path d="M 54.890625 33.015625 
L 54.890625 0 
L 45.90625 0 
L 45.90625 32.71875 
Q 45.90625 40.484375 42.875 44.328125 
Q 39.84375 48.1875 33.796875 48.1875 
Q 26.515625 48.1875 22.3125 43.546875 
Q 18.109375 38.921875 18.109375 30.90625 
L 18.109375 0 
L 9.078125 0 
L 9.078125 75.984375 
L 18.109375 75.984375 
L 18.109375 46.1875 
Q 21.34375 51.125 25.703125 53.5625 
Q 30.078125 56 35.796875 56 
Q 45.21875 56 50.046875 50.171875 
Q 54.890625 44.34375 54.890625 33.015625 
z
" id="DejaVuSans-68"/>
      </defs>
      <g transform="translate(57.836725 293.93)rotate(-90)scale(0.1 -0.1)">
       <use xlink:href="#DejaVuSans-74"/>
       <use x="39.208984" xlink:href="#DejaVuSans-65"/>
       <use x="100.732422" xlink:href="#DejaVuSans-63"/>
       <use x="155.712891" xlink:href="#DejaVuSans-75"/>
       <use x="219.091797" xlink:href="#DejaVuSans-6d"/>
       <use x="316.503906" xlink:href="#DejaVuSans-73"/>
       <use x="368.603516" xlink:href="#DejaVuSans-65"/>
       <use x="430.126953" xlink:href="#DejaVuSans-68"/>
      </g>
     </g>
    </g>
    <g id="xtick_2">
     <g id="line2d_2">
      <g>
       <use style="stroke:#000000;stroke-width:0.8;" x="68.352051" xlink:href="#m9567e997d4" y="237.58"/>
      </g>
     </g>
     <g id="text_2">
      <!-- lafayette -->
      <defs>
       <path d="M 9.421875 75.984375 
L 18.40625 75.984375 
L 18.40625 0 
L 9.421875 0 
z
" id="DejaVuSans-6c"/>
       <path d="M 34.28125 27.484375 
Q 23.390625 27.484375 19.1875 25 
Q 14.984375 22.515625 14.984375 16.5 
Q 14.984375 11.71875 18.140625 8.90625 
Q 21.296875 6.109375 26.703125 6.109375 
Q 34.1875 6.109375 38.703125 11.40625 
Q 43.21875 16.703125 43.21875 25.484375 
L 43.21875 27.484375 
z
M 52.203125 31.203125 
L 52.203125 0 
L 43.21875 0 
L 43.21875 8.296875 
Q 40.140625 3.328125 35.546875 0.953125 
Q 30.953125 -1.421875 24.3125 -1.421875 
Q 15.921875 -1.421875 10.953125 3.296875 
Q 6 8.015625 6 15.921875 
Q 6 25.140625 12.171875 29.828125 
Q 18.359375 34.515625 30.609375 34.515625 
L 43.21875 34.515625 
L 43.21875 35.40625 
Q 43.21875 41.609375 39.140625 45 
Q 35.0625 48.390625 27.6875 48.390625 
Q 23 48.390625 18.546875 47.265625 
Q 14.109375 46.140625 10.015625 43.890625 
L 10.015625 52.203125 
Q 14.9375 54.109375 19.578125 55.046875 
Q 24.21875 56 28.609375 56 
Q 40.484375 56 46.34375 49.84375 
Q 52.203125 43.703125 52.203125 31.203125 
z
" id="DejaVuSans-61"/>
       <path d="M 37.109375 75.984375 
L 37.109375 68.5 
L 28.515625 68.5 
Q 23.6875 68.5 21.796875 66.546875 
Q 19.921875 64.59375 19.921875 59.515625 
L 19.921875 54.6875 
L 34.71875 54.6875 
L 34.71875 47.703125 
L 19.921875 47.703125 
L 19.921875 0 
L 10.890625 0 
L 10.890625 47.703125 
L 2.296875 47.703125 
L 2.296875 54.6875 
L 10.890625 54.6875 
L 10.890625 58.5 
Q 10.890625 67.625 15.140625 71.796875 
Q 19.390625 75.984375 28.609375 75.984375 
z
" id="DejaVuSans-66"/>
       <path d="M 32.171875 -5.078125 
Q 28.375 -14.84375 24.75 -17.8125 
Q 21.140625 -20.796875 15.09375 -20.796875 
L 7.90625 -20.796875 
L 7.90625 -13.28125 
L 13.1875 -13.28125 
Q 16.890625 -13.28125 18.9375 -11.515625 
Q 21 -9.765625 23.484375 -3.21875 
L 25.09375 0.875 
L 2.984375 54.6875 
L 12.5 54.6875 
L 29.59375 11.921875 
L 46.6875 54.6875 
L 56.203125 54.6875 
z
" id="DejaVuSans-79"/>
      </defs>
      <g transform="translate(71.111426 289.200312)rotate(-90)scale(0.1 -0.1)">
       <use xlink:href="#DejaVuSans-6c"/>
       <use x="27.783203" xlink:href="#DejaVuSans-61"/>
       <use x="89.0625" xlink:href="#DejaVuSans-66"/>
       <use x="124.267578" xlink:href="#DejaVuSans-61"/>
       <use x="185.546875" xlink:href="#DejaVuSans-79"/>
       <use x="244.726562" xlink:href="#DejaVuSans-65"/>
       <use x="306.25" xlink:href="#DejaVuSans-74"/>
       <use x="345.458984" xlink:href="#DejaVuSans-74"/>
       <use x="384.667969" xlink:href="#DejaVuSans-65"/>
      </g>
     </g>
    </g>
    <g id="xtick_3">
     <g id="line2d_3">
      <g>
       <use style="stroke:#000000;stroke-width:0.8;" x="81.626751" xlink:href="#m9567e997d4" y="237.58"/>
      </g>
     </g>
     <g id="text_3">
      <!-- lincoln -->
      <defs>
       <path d="M 9.421875 54.6875 
L 18.40625 54.6875 
L 18.40625 0 
L 9.421875 0 
z
M 9.421875 75.984375 
L 18.40625 75.984375 
L 18.40625 64.59375 
L 9.421875 64.59375 
z
" id="DejaVuSans-69"/>
       <path d="M 54.890625 33.015625 
L 54.890625 0 
L 45.90625 0 
L 45.90625 32.71875 
Q 45.90625 40.484375 42.875 44.328125 
Q 39.84375 48.1875 33.796875 48.1875 
Q 26.515625 48.1875 22.3125 43.546875 
Q 18.109375 38.921875 18.109375 30.90625 
L 18.109375 0 
L 9.078125 0 
L 9.078125 54.6875 
L 18.109375 54.6875 
L 18.109375 46.1875 
Q 21.34375 51.125 25.703125 53.5625 
Q 30.078125 56 35.796875 56 
Q 45.21875 56 50.046875 50.171875 
Q 54.890625 44.34375 54.890625 33.015625 
z
" id="DejaVuSans-6e"/>
       <path d="M 30.609375 48.390625 
Q 23.390625 48.390625 19.1875 42.75 
Q 14.984375 37.109375 14.984375 27.296875 
Q 14.984375 17.484375 19.15625 11.84375 
Q 23.34375 6.203125 30.609375 6.203125 
Q 37.796875 6.203125 41.984375 11.859375 
Q 46.1875 17.53125 46.1875 27.296875 
Q 46.1875 37.015625 41.984375 42.703125 
Q 37.796875 48.390625 30.609375 48.390625 
z
M 30.609375 56 
Q 42.328125 56 49.015625 48.375 
Q 55.71875 40.765625 55.71875 27.296875 
Q 55.71875 13.875 49.015625 6.21875 
Q 42.328125 -1.421875 30.609375 -1.421875 
Q 18.84375 -1.421875 12.171875 6.21875 
Q 5.515625 13.875 5.515625 27.296875 
Q 5.515625 40.765625 12.171875 48.375 
Q 18.84375 56 30.609375 56 
z
" id="DejaVuSans-6f"/>
      </defs>
      <g transform="translate(84.386126 277.206563)rotate(-90)scale(0.1 -0.1)">
       <use xlink:href="#DejaVuSans-6c"/>
       <use x="27.783203" xlink:href="#DejaVuSans-69"/>
       <use x="55.566406" xlink:href="#DejaVuSans-6e"/>
       <use x="118.945312" xlink:href="#DejaVuSans-63"/>
       <use x="173.925781" xlink:href="#DejaVuSans-6f"/>
       <use x="235.107422" xlink:href="#DejaVuSans-6c"/>
       <use x="262.890625" xlink:href="#DejaVuSans-6e"/>
      </g>
     </g>
    </g>
    <g id="xtick_4">
     <g id="line2d_4">
      <g>
       <use style="stroke:#000000;stroke-width:0.8;" x="94.901452" xlink:href="#m9567e997d4" y="237.58"/>
      </g>
     </g>
     <g id="text_4">
      <!-- kinsman north -->
      <defs>
       <path d="M 9.078125 75.984375 
L 18.109375 75.984375 
L 18.109375 31.109375 
L 44.921875 54.6875 
L 56.390625 54.6875 
L 27.390625 29.109375 
L 57.625 0 
L 45.90625 0 
L 18.109375 26.703125 
L 18.109375 0 
L 9.078125 0 
z
" id="DejaVuSans-6b"/>
       <path id="DejaVuSans-20"/>
       <path d="M 41.109375 46.296875 
Q 39.59375 47.171875 37.8125 47.578125 
Q 36.03125 48 33.890625 48 
Q 26.265625 48 22.1875 43.046875 
Q 18.109375 38.09375 18.109375 28.8125 
L 18.109375 0 
L 9.078125 0 
L 9.078125 54.6875 
L 18.109375 54.6875 
L 18.109375 46.1875 
Q 20.953125 51.171875 25.484375 53.578125 
Q 30.03125 56 36.53125 56 
Q 37.453125 56 38.578125 55.875 
Q 39.703125 55.765625 41.0625 55.515625 
z
" id="DejaVuSans-72"/>
      </defs>
      <g transform="translate(97.660827 316.905)rotate(-90)scale(0.1 -0.1)">
       <use xlink:href="#DejaVuSans-6b"/>
       <use x="57.910156" xlink:href="#DejaVuSans-69"/>
       <use x="85.693359" xlink:href="#DejaVuSans-6e"/>
       <use x="149.072266" xlink:href="#DejaVuSans-73"/>
       <use x="201.171875" xlink:href="#DejaVuSans-6d"/>
       <use x="298.583984" xlink:href="#DejaVuSans-61"/>
       <use x="359.863281" xlink:href="#DejaVuSans-6e"/>
       <use x="423.242188" xlink:href="#DejaVuSans-20"/>
       <use x="455.029297" xlink:href="#DejaVuSans-6e"/>
       <use x="518.408203" xlink:href="#DejaVuSans-6f"/>
       <use x="579.589844" xlink:href="#DejaVuSans-72"/>
       <use x="620.703125" xlink:href="#DejaVuSans-74"/>
       <use x="659.912109" xlink:href="#DejaVuSans-68"/>
      </g>
     </g>
    </g>
    <g id="xtick_5">
     <g id="line2d_5">
      <g>
       <use style="stroke:#000000;stroke-width:0.8;" x="108.176152" xlink:href="#m9567e997d4" y="237.58"/>
      </g>
     </g>
     <g id="text_5">
      <!-- kinsman south -->
      <g transform="translate(110.935527 318.003438)rotate(-90)scale(0.1 -0.1)">
       <use xlink:href="#DejaVuSans-6b"/>
       <use x="57.910156" xlink:href="#DejaVuSans-69"/>
       <use x="85.693359" xlink:href="#DejaVuSans-6e"/>
       <use x="149.072266" xlink:href="#DejaVuSans-73"/>
       <use x="201.171875" xlink:href="#DejaVuSans-6d"/>
       <use x="298.583984" xlink:href="#DejaVuSans-61"/>
       <use x="359.863281" xlink:href="#DejaVuSans-6e"/>
       <use x="423.242188" xlink:href="#DejaVuSans-20"/>
       <use x="455.029297" xlink:href="#DejaVuSans-73"/>
       <use x="507.128906" xlink:href="#DejaVuSans-6f"/>
       <use x="568.310547" xlink:href="#DejaVuSans-75"/>
       <use x="631.689453" xlink:href="#DejaVuSans-74"/>
       <use x="670.898438" xlink:href="#DejaVuSans-68"/>
      </g>
     </g>
    </g>
    <g id="xtick_6">
     <g id="line2d_6">
      <g>
       <use style="stroke:#000000;stroke-width:0.8;" x="121.450853" xlink:href="#m9567e997d4" y="237.58"/>
      </g>
     </g>
     <g id="text_6">
      <!-- osceola east -->
      <g transform="translate(124.210228 307.17375)rotate(-90)scale(0.1 -0.1)">
       <use xlink:href="#DejaVuSans-6f"/>
       <use x="61.181641" xlink:href="#DejaVuSans-73"/>
       <use x="113.28125" xlink:href="#DejaVuSans-63"/>
       <use x="168.261719" xlink:href="#DejaVuSans-65"/>
       <use x="229.785156" xlink:href="#DejaVuSans-6f"/>
       <use x="290.966797" xlink:href="#DejaVuSans-6c"/>
       <use x="318.75" xlink:href="#DejaVuSans-61"/>
       <use x="380.029297" xlink:href="#DejaVuSans-20"/>
       <use x="411.816406" xlink:href="#DejaVuSans-65"/>
       <use x="473.339844" xlink:href="#DejaVuSans-61"/>
       <use x="534.619141" xlink:href="#DejaVuSans-73"/>
       <use x="586.71875" xlink:href="#DejaVuSans-74"/>
      </g>
     </g>
    </g>
    <g id="xtick_7">
     <g id="line2d_7">
      <g>
       <use style="stroke:#000000;stroke-width:0.8;" x="134.725553" xlink:href="#m9567e997d4" y="237.58"/>
      </g>
     </g>
     <g id="text_7">
      <!-- moosilauke -->
      <g transform="translate(137.484928 301.728437)rotate(-90)scale(0.1 -0.1)">
       <use xlink:href="#DejaVuSans-6d"/>
       <use x="97.412109" xlink:href="#DejaVuSans-6f"/>
       <use x="158.59375" xlink:href="#DejaVuSans-6f"/>
       <use x="219.775391" xlink:href="#DejaVuSans-73"/>
       <use x="271.875" xlink:href="#DejaVuSans-69"/>
       <use x="299.658203" xlink:href="#DejaVuSans-6c"/>
       <use x="327.441406" xlink:href="#DejaVuSans-61"/>
       <use x="388.720703" xlink:href="#DejaVuSans-75"/>
       <use x="452.099609" xlink:href="#DejaVuSans-6b"/>
       <use x="509.962891" xlink:href="#DejaVuSans-65"/>
      </g>
     </g>
    </g>
    <g id="xtick_8">
     <g id="line2d_8">
      <g>
       <use style="stroke:#000000;stroke-width:0.8;" x="148.000254" xlink:href="#m9567e997d4" y="237.58"/>
      </g>
     </g>
     <g id="text_8">
      <!-- cannon -->
      <g transform="translate(150.759629 281.337812)rotate(-90)scale(0.1 -0.1)">
       <use xlink:href="#DejaVuSans-63"/>
       <use x="54.980469" xlink:href="#DejaVuSans-61"/>
       <use x="116.259766" xlink:href="#DejaVuSans-6e"/>
       <use x="179.638672" xlink:href="#DejaVuSans-6e"/>
       <use x="243.017578" xlink:href="#DejaVuSans-6f"/>
       <use x="304.199219" xlink:href="#DejaVuSans-6e"/>
      </g>
     </g>
    </g>
    <g id="xtick_9">
     <g id="line2d_9">
      <g>
       <use style="stroke:#000000;stroke-width:0.8;" x="161.274954" xlink:href="#m9567e997d4" y="237.58"/>
      </g>
     </g>
     <g id="text_9">
      <!-- waumbek -->
      <defs>
       <path d="M 4.203125 54.6875 
L 13.1875 54.6875 
L 24.421875 12.015625 
L 35.59375 54.6875 
L 46.1875 54.6875 
L 57.421875 12.015625 
L 68.609375 54.6875 
L 77.59375 54.6875 
L 63.28125 0 
L 52.6875 0 
L 40.921875 44.828125 
L 29.109375 0 
L 18.5 0 
z
" id="DejaVuSans-77"/>
       <path d="M 48.6875 27.296875 
Q 48.6875 37.203125 44.609375 42.84375 
Q 40.53125 48.484375 33.40625 48.484375 
Q 26.265625 48.484375 22.1875 42.84375 
Q 18.109375 37.203125 18.109375 27.296875 
Q 18.109375 17.390625 22.1875 11.75 
Q 26.265625 6.109375 33.40625 6.109375 
Q 40.53125 6.109375 44.609375 11.75 
Q 48.6875 17.390625 48.6875 27.296875 
z
M 18.109375 46.390625 
Q 20.953125 51.265625 25.265625 53.625 
Q 29.59375 56 35.59375 56 
Q 45.5625 56 51.78125 48.09375 
Q 58.015625 40.1875 58.015625 27.296875 
Q 58.015625 14.40625 51.78125 6.484375 
Q 45.5625 -1.421875 35.59375 -1.421875 
Q 29.59375 -1.421875 25.265625 0.953125 
Q 20.953125 3.328125 18.109375 8.203125 
L 18.109375 0 
L 9.078125 0 
L 9.078125 75.984375 
L 18.109375 75.984375 
z
" id="DejaVuSans-62"/>
      </defs>
      <g transform="translate(164.034329 293.256562)rotate(-90)scale(0.1 -0.1)">
       <use xlink:href="#DejaVuSans-77"/>
       <use x="81.787109" xlink:href="#DejaVuSans-61"/>
       <use x="143.066406" xlink:href="#DejaVuSans-75"/>
       <use x="206.445312" xlink:href="#DejaVuSans-6d"/>
       <use x="303.857422" xlink:href="#DejaVuSans-62"/>
       <use x="367.333984" xlink:href="#DejaVuSans-65"/>
       <use x="428.857422" xlink:href="#DejaVuSans-6b"/>
      </g>
     </g>
    </g>
    <g id="xtick_10">
     <g id="line2d_10">
      <g>
       <use style="stroke:#000000;stroke-width:0.8;" x="174.549655" xlink:href="#m9567e997d4" y="237.58"/>
      </g>
     </g>
     <g id="text_10">
      <!-- washington -->
      <defs>
       <path d="M 45.40625 27.984375 
Q 45.40625 37.75 41.375 43.109375 
Q 37.359375 48.484375 30.078125 48.484375 
Q 22.859375 48.484375 18.828125 43.109375 
Q 14.796875 37.75 14.796875 27.984375 
Q 14.796875 18.265625 18.828125 12.890625 
Q 22.859375 7.515625 30.078125 7.515625 
Q 37.359375 7.515625 41.375 12.890625 
Q 45.40625 18.265625 45.40625 27.984375 
z
M 54.390625 6.78125 
Q 54.390625 -7.171875 48.1875 -13.984375 
Q 42 -20.796875 29.203125 -20.796875 
Q 24.46875 -20.796875 20.265625 -20.09375 
Q 16.0625 -19.390625 12.109375 -17.921875 
L 12.109375 -9.1875 
Q 16.0625 -11.328125 19.921875 -12.34375 
Q 23.78125 -13.375 27.78125 -13.375 
Q 36.625 -13.375 41.015625 -8.765625 
Q 45.40625 -4.15625 45.40625 5.171875 
L 45.40625 9.625 
Q 42.625 4.78125 38.28125 2.390625 
Q 33.9375 0 27.875 0 
Q 17.828125 0 11.671875 7.65625 
Q 5.515625 15.328125 5.515625 27.984375 
Q 5.515625 40.671875 11.671875 48.328125 
Q 17.828125 56 27.875 56 
Q 33.9375 56 38.28125 53.609375 
Q 42.625 51.21875 45.40625 46.390625 
L 45.40625 54.6875 
L 54.390625 54.6875 
z
" id="DejaVuSans-67"/>
      </defs>
      <g transform="translate(177.30903 302.27375)rotate(-90)scale(0.1 -0.1)">
       <use xlink:href="#DejaVuSans-77"/>
       <use x="81.787109" xlink:href="#DejaVuSans-61"/>
       <use x="143.066406" xlink:href="#DejaVuSans-73"/>
       <use x="195.166016" xlink:href="#DejaVuSans-68"/>
       <use x="258.544922" xlink:href="#DejaVuSans-69"/>
       <use x="286.328125" xlink:href="#DejaVuSans-6e"/>
       <use x="349.707031" xlink:href="#DejaVuSans-67"/>
       <use x="413.183594" xlink:href="#DejaVuSans-74"/>
       <use x="452.392578" xlink:href="#DejaVuSans-6f"/>
       <use x="513.574219" xlink:href="#DejaVuSans-6e"/>
      </g>
     </g>
    </g>
    <g id="xtick_11">
     <g id="line2d_11">
      <g>
       <use style="stroke:#000000;stroke-width:0.8;" x="187.824355" xlink:href="#m9567e997d4" y="237.58"/>
      </g>
     </g>
     <g id="text_11">
      <!-- osceola -->
      <g transform="translate(190.58373 282.584687)rotate(-90)scale(0.1 -0.1)">
       <use xlink:href="#DejaVuSans-6f"/>
       <use x="61.181641" xlink:href="#DejaVuSans-73"/>
       <use x="113.28125" xlink:href="#DejaVuSans-63"/>
       <use x="168.261719" xlink:href="#DejaVuSans-65"/>
       <use x="229.785156" xlink:href="#DejaVuSans-6f"/>
       <use x="290.966797" xlink:href="#DejaVuSans-6c"/>
       <use x="318.75" xlink:href="#DejaVuSans-61"/>
      </g>
     </g>
    </g>
    <g id="xtick_12">
     <g id="line2d_12">
      <g>
       <use style="stroke:#000000;stroke-width:0.8;" x="201.099056" xlink:href="#m9567e997d4" y="237.58"/>
      </g>
     </g>
     <g id="text_12">
      <!-- moriah -->
      <g transform="translate(203.858431 279.794062)rotate(-90)scale(0.1 -0.1)">
       <use xlink:href="#DejaVuSans-6d"/>
       <use x="97.412109" xlink:href="#DejaVuSans-6f"/>
       <use x="158.59375" xlink:href="#DejaVuSans-72"/>
       <use x="199.707031" xlink:href="#DejaVuSans-69"/>
       <use x="227.490234" xlink:href="#DejaVuSans-61"/>
       <use x="288.769531" xlink:href="#DejaVuSans-68"/>
      </g>
     </g>
    </g>
    <g id="xtick_13">
     <g id="line2d_13">
      <g>
       <use style="stroke:#000000;stroke-width:0.8;" x="214.373757" xlink:href="#m9567e997d4" y="237.58"/>
      </g>
     </g>
     <g id="text_13">
      <!-- pierce -->
      <defs>
       <path d="M 18.109375 8.203125 
L 18.109375 -20.796875 
L 9.078125 -20.796875 
L 9.078125 54.6875 
L 18.109375 54.6875 
L 18.109375 46.390625 
Q 20.953125 51.265625 25.265625 53.625 
Q 29.59375 56 35.59375 56 
Q 45.5625 56 51.78125 48.09375 
Q 58.015625 40.1875 58.015625 27.296875 
Q 58.015625 14.40625 51.78125 6.484375 
Q 45.5625 -1.421875 35.59375 -1.421875 
Q 29.59375 -1.421875 25.265625 0.953125 
Q 20.953125 3.328125 18.109375 8.203125 
z
M 48.6875 27.296875 
Q 48.6875 37.203125 44.609375 42.84375 
Q 40.53125 48.484375 33.40625 48.484375 
Q 26.265625 48.484375 22.1875 42.84375 
Q 18.109375 37.203125 18.109375 27.296875 
Q 18.109375 17.390625 22.1875 11.75 
Q 26.265625 6.109375 33.40625 6.109375 
Q 40.53125 6.109375 44.609375 11.75 
Q 48.6875 17.390625 48.6875 27.296875 
z
" id="DejaVuSans-70"/>
      </defs>
      <g transform="translate(217.133132 275.619062)rotate(-90)scale(0.1 -0.1)">
       <use xlink:href="#DejaVuSans-70"/>
       <use x="63.476562" xlink:href="#DejaVuSans-69"/>
       <use x="91.259766" xlink:href="#DejaVuSans-65"/>
       <use x="152.783203" xlink:href="#DejaVuSans-72"/>
       <use x="193.865234" xlink:href="#DejaVuSans-63"/>
       <use x="248.845703" xlink:href="#DejaVuSans-65"/>
      </g>
     </g>
    </g>
    <g id="xtick_14">
     <g id="line2d_14">
      <g>
       <use style="stroke:#000000;stroke-width:0.8;" x="227.648457" xlink:href="#m9567e997d4" y="237.58"/>
      </g>
     </g>
     <g id="text_14">
      <!-- jackson -->
      <defs>
       <path d="M 9.421875 54.6875 
L 18.40625 54.6875 
L 18.40625 -0.984375 
Q 18.40625 -11.421875 14.421875 -16.109375 
Q 10.453125 -20.796875 1.609375 -20.796875 
L -1.8125 -20.796875 
L -1.8125 -13.1875 
L 0.59375 -13.1875 
Q 5.71875 -13.1875 7.5625 -10.8125 
Q 9.421875 -8.453125 9.421875 -0.984375 
z
M 9.421875 75.984375 
L 18.40625 75.984375 
L 18.40625 64.59375 
L 9.421875 64.59375 
z
" id="DejaVuSans-6a"/>
      </defs>
      <g transform="translate(230.407832 282.440938)rotate(-90)scale(0.1 -0.1)">
       <use xlink:href="#DejaVuSans-6a"/>
       <use x="27.783203" xlink:href="#DejaVuSans-61"/>
       <use x="89.0625" xlink:href="#DejaVuSans-63"/>
       <use x="144.042969" xlink:href="#DejaVuSans-6b"/>
       <use x="201.953125" xlink:href="#DejaVuSans-73"/>
       <use x="254.052734" xlink:href="#DejaVuSans-6f"/>
       <use x="315.234375" xlink:href="#DejaVuSans-6e"/>
      </g>
     </g>
    </g>
    <g id="xtick_15">
     <g id="line2d_15">
      <g>
       <use style="stroke:#000000;stroke-width:0.8;" x="240.923158" xlink:href="#m9567e997d4" y="237.58"/>
      </g>
     </g>
     <g id="text_15">
      <!-- madison -->
      <defs>
       <path d="M 45.40625 46.390625 
L 45.40625 75.984375 
L 54.390625 75.984375 
L 54.390625 0 
L 45.40625 0 
L 45.40625 8.203125 
Q 42.578125 3.328125 38.25 0.953125 
Q 33.9375 -1.421875 27.875 -1.421875 
Q 17.96875 -1.421875 11.734375 6.484375 
Q 5.515625 14.40625 5.515625 27.296875 
Q 5.515625 40.1875 11.734375 48.09375 
Q 17.96875 56 27.875 56 
Q 33.9375 56 38.25 53.625 
Q 42.578125 51.265625 45.40625 46.390625 
z
M 14.796875 27.296875 
Q 14.796875 17.390625 18.875 11.75 
Q 22.953125 6.109375 30.078125 6.109375 
Q 37.203125 6.109375 41.296875 11.75 
Q 45.40625 17.390625 45.40625 27.296875 
Q 45.40625 37.203125 41.296875 42.84375 
Q 37.203125 48.484375 30.078125 48.484375 
Q 22.953125 48.484375 18.875 42.84375 
Q 14.796875 37.203125 14.796875 27.296875 
z
" id="DejaVuSans-64"/>
      </defs>
      <g transform="translate(243.682533 287.240937)rotate(-90)scale(0.1 -0.1)">
       <use xlink:href="#DejaVuSans-6d"/>
       <use x="97.412109" xlink:href="#DejaVuSans-61"/>
       <use x="158.691406" xlink:href="#DejaVuSans-64"/>
       <use x="222.167969" xlink:href="#DejaVuSans-69"/>
       <use x="249.951172" xlink:href="#DejaVuSans-73"/>
       <use x="302.050781" xlink:href="#DejaVuSans-6f"/>
       <use x="363.232422" xlink:href="#DejaVuSans-6e"/>
      </g>
     </g>
    </g>
    <g id="xtick_16">
     <g id="line2d_16">
      <g>
       <use style="stroke:#000000;stroke-width:0.8;" x="254.197858" xlink:href="#m9567e997d4" y="237.58"/>
      </g>
     </g>
     <g id="text_16">
      <!-- liberty -->
      <g transform="translate(256.957233 276.587812)rotate(-90)scale(0.1 -0.1)">
       <use xlink:href="#DejaVuSans-6c"/>
       <use x="27.783203" xlink:href="#DejaVuSans-69"/>
       <use x="55.566406" xlink:href="#DejaVuSans-62"/>
       <use x="119.042969" xlink:href="#DejaVuSans-65"/>
       <use x="180.566406" xlink:href="#DejaVuSans-72"/>
       <use x="221.679688" xlink:href="#DejaVuSans-74"/>
       <use x="260.888672" xlink:href="#DejaVuSans-79"/>
      </g>
     </g>
    </g>
    <g id="xtick_17">
     <g id="line2d_17">
      <g>
       <use style="stroke:#000000;stroke-width:0.8;" x="267.472559" xlink:href="#m9567e997d4" y="237.58"/>
      </g>
     </g>
     <g id="text_17">
      <!-- adams -->
      <g transform="translate(270.231934 278.134687)rotate(-90)scale(0.1 -0.1)">
       <use xlink:href="#DejaVuSans-61"/>
       <use x="61.279297" xlink:href="#DejaVuSans-64"/>
       <use x="124.755859" xlink:href="#DejaVuSans-61"/>
       <use x="186.035156" xlink:href="#DejaVuSans-6d"/>
       <use x="283.447266" xlink:href="#DejaVuSans-73"/>
      </g>
     </g>
    </g>
    <g id="xtick_18">
     <g id="line2d_18">
      <g>
       <use style="stroke:#000000;stroke-width:0.8;" x="280.747259" xlink:href="#m9567e997d4" y="237.58"/>
      </g>
     </g>
     <g id="text_18">
      <!-- flume -->
      <g transform="translate(283.506634 273.109688)rotate(-90)scale(0.1 -0.1)">
       <use xlink:href="#DejaVuSans-66"/>
       <use x="35.205078" xlink:href="#DejaVuSans-6c"/>
       <use x="62.988281" xlink:href="#DejaVuSans-75"/>
       <use x="126.367188" xlink:href="#DejaVuSans-6d"/>
       <use x="223.779297" xlink:href="#DejaVuSans-65"/>
      </g>
     </g>
    </g>
    <g id="xtick_19">
     <g id="line2d_19">
      <g>
       <use style="stroke:#000000;stroke-width:0.8;" x="294.02196" xlink:href="#m9567e997d4" y="237.58"/>
      </g>
     </g>
     <g id="text_19">
      <!-- eisenhower -->
      <g transform="translate(296.781335 302.109688)rotate(-90)scale(0.1 -0.1)">
       <use xlink:href="#DejaVuSans-65"/>
       <use x="61.523438" xlink:href="#DejaVuSans-69"/>
       <use x="89.306641" xlink:href="#DejaVuSans-73"/>
       <use x="141.40625" xlink:href="#DejaVuSans-65"/>
       <use x="202.929688" xlink:href="#DejaVuSans-6e"/>
       <use x="266.308594" xlink:href="#DejaVuSans-68"/>
       <use x="329.6875" xlink:href="#DejaVuSans-6f"/>
       <use x="390.869141" xlink:href="#DejaVuSans-77"/>
       <use x="472.65625" xlink:href="#DejaVuSans-65"/>
       <use x="534.179688" xlink:href="#DejaVuSans-72"/>
      </g>
     </g>
    </g>
    <g id="xtick_20">
     <g id="line2d_20">
      <g>
       <use style="stroke:#000000;stroke-width:0.8;" x="307.29666" xlink:href="#m9567e997d4" y="237.58"/>
      </g>
     </g>
     <g id="text_20">
      <!-- garfield -->
      <g transform="translate(310.056035 282.745625)rotate(-90)scale(0.1 -0.1)">
       <use xlink:href="#DejaVuSans-67"/>
       <use x="63.476562" xlink:href="#DejaVuSans-61"/>
       <use x="124.755859" xlink:href="#DejaVuSans-72"/>
       <use x="165.869141" xlink:href="#DejaVuSans-66"/>
       <use x="201.074219" xlink:href="#DejaVuSans-69"/>
       <use x="228.857422" xlink:href="#DejaVuSans-65"/>
       <use x="290.380859" xlink:href="#DejaVuSans-6c"/>
       <use x="318.164062" xlink:href="#DejaVuSans-64"/>
      </g>
     </g>
    </g>
    <g id="xtick_21">
     <g id="line2d_21">
      <g>
       <use style="stroke:#000000;stroke-width:0.8;" x="320.571361" xlink:href="#m9567e997d4" y="237.58"/>
      </g>
     </g>
     <g id="text_21">
      <!-- field -->
      <g transform="translate(323.330736 266.158125)rotate(-90)scale(0.1 -0.1)">
       <use xlink:href="#DejaVuSans-66"/>
       <use x="35.205078" xlink:href="#DejaVuSans-69"/>
       <use x="62.988281" xlink:href="#DejaVuSans-65"/>
       <use x="124.511719" xlink:href="#DejaVuSans-6c"/>
       <use x="152.294922" xlink:href="#DejaVuSans-64"/>
      </g>
     </g>
    </g>
    <g id="xtick_22">
     <g id="line2d_22">
      <g>
       <use style="stroke:#000000;stroke-width:0.8;" x="333.846061" xlink:href="#m9567e997d4" y="237.58"/>
      </g>
     </g>
     <g id="text_22">
      <!-- tom -->
      <g transform="translate(336.605436 264.359688)rotate(-90)scale(0.1 -0.1)">
       <use xlink:href="#DejaVuSans-74"/>
       <use x="39.208984" xlink:href="#DejaVuSans-6f"/>
       <use x="100.390625" xlink:href="#DejaVuSans-6d"/>
      </g>
     </g>
    </g>
    <g id="xtick_23">
     <g id="line2d_23">
      <g>
       <use style="stroke:#000000;stroke-width:0.8;" x="347.120762" xlink:href="#m9567e997d4" y="237.58"/>
      </g>
     </g>
     <g id="text_23">
      <!-- jefferson -->
      <g transform="translate(349.880137 288.481562)rotate(-90)scale(0.1 -0.1)">
       <use xlink:href="#DejaVuSans-6a"/>
       <use x="27.783203" xlink:href="#DejaVuSans-65"/>
       <use x="89.306641" xlink:href="#DejaVuSans-66"/>
       <use x="124.511719" xlink:href="#DejaVuSans-66"/>
       <use x="159.716797" xlink:href="#DejaVuSans-65"/>
       <use x="221.240234" xlink:href="#DejaVuSans-72"/>
       <use x="262.353516" xlink:href="#DejaVuSans-73"/>
       <use x="314.453125" xlink:href="#DejaVuSans-6f"/>
       <use x="375.634766" xlink:href="#DejaVuSans-6e"/>
      </g>
     </g>
    </g>
    <g id="xtick_24">
     <g id="line2d_24">
      <g>
       <use style="stroke:#000000;stroke-width:0.8;" x="360.395462" xlink:href="#m9567e997d4" y="237.58"/>
      </g>
     </g>
     <g id="text_24">
      <!-- hancock south -->
      <g transform="translate(363.154837 317.390938)rotate(-90)scale(0.1 -0.1)">
       <use xlink:href="#DejaVuSans-68"/>
       <use x="63.378906" xlink:href="#DejaVuSans-61"/>
       <use x="124.658203" xlink:href="#DejaVuSans-6e"/>
       <use x="188.037109" xlink:href="#DejaVuSans-63"/>
       <use x="243.017578" xlink:href="#DejaVuSans-6f"/>
       <use x="304.199219" xlink:href="#DejaVuSans-63"/>
       <use x="359.179688" xlink:href="#DejaVuSans-6b"/>
       <use x="417.089844" xlink:href="#DejaVuSans-20"/>
       <use x="448.876953" xlink:href="#DejaVuSans-73"/>
       <use x="500.976562" xlink:href="#DejaVuSans-6f"/>
       <use x="562.158203" xlink:href="#DejaVuSans-75"/>
       <use x="625.537109" xlink:href="#DejaVuSans-74"/>
       <use x="664.746094" xlink:href="#DejaVuSans-68"/>
      </g>
     </g>
    </g>
    <g id="xtick_25">
     <g id="line2d_25">
      <g>
       <use style="stroke:#000000;stroke-width:0.8;" x="373.670163" xlink:href="#m9567e997d4" y="237.58"/>
      </g>
     </g>
     <g id="text_25">
      <!-- hancock north -->
      <g transform="translate(376.429538 316.2925)rotate(-90)scale(0.1 -0.1)">
       <use xlink:href="#DejaVuSans-68"/>
       <use x="63.378906" xlink:href="#DejaVuSans-61"/>
       <use x="124.658203" xlink:href="#DejaVuSans-6e"/>
       <use x="188.037109" xlink:href="#DejaVuSans-63"/>
       <use x="243.017578" xlink:href="#DejaVuSans-6f"/>
       <use x="304.199219" xlink:href="#DejaVuSans-63"/>
       <use x="359.179688" xlink:href="#DejaVuSans-6b"/>
       <use x="417.089844" xlink:href="#DejaVuSans-20"/>
       <use x="448.876953" xlink:href="#DejaVuSans-6e"/>
       <use x="512.255859" xlink:href="#DejaVuSans-6f"/>
       <use x="573.4375" xlink:href="#DejaVuSans-72"/>
       <use x="614.550781" xlink:href="#DejaVuSans-74"/>
       <use x="653.759766" xlink:href="#DejaVuSans-68"/>
      </g>
     </g>
    </g>
    <g id="xtick_26">
     <g id="line2d_26">
      <g>
       <use style="stroke:#000000;stroke-width:0.8;" x="386.944863" xlink:href="#m9567e997d4" y="237.58"/>
      </g>
     </g>
     <g id="text_26">
      <!-- willey -->
      <g transform="translate(389.704238 273.164375)rotate(-90)scale(0.1 -0.1)">
       <use xlink:href="#DejaVuSans-77"/>
       <use x="81.787109" xlink:href="#DejaVuSans-69"/>
       <use x="109.570312" xlink:href="#DejaVuSans-6c"/>
       <use x="137.353516" xlink:href="#DejaVuSans-6c"/>
       <use x="165.136719" xlink:href="#DejaVuSans-65"/>
       <use x="226.660156" xlink:href="#DejaVuSans-79"/>
      </g>
     </g>
    </g>
    <g id="xtick_27">
     <g id="line2d_27">
      <g>
       <use style="stroke:#000000;stroke-width:0.8;" x="400.219564" xlink:href="#m9567e997d4" y="237.58"/>
      </g>
     </g>
     <g id="text_27">
      <!-- whiteface -->
      <g transform="translate(402.978939 293.247187)rotate(-90)scale(0.1 -0.1)">
       <use xlink:href="#DejaVuSans-77"/>
       <use x="81.787109" xlink:href="#DejaVuSans-68"/>
       <use x="145.166016" xlink:href="#DejaVuSans-69"/>
       <use x="172.949219" xlink:href="#DejaVuSans-74"/>
       <use x="212.158203" xlink:href="#DejaVuSans-65"/>
       <use x="273.681641" xlink:href="#DejaVuSans-66"/>
       <use x="308.886719" xlink:href="#DejaVuSans-61"/>
       <use x="370.166016" xlink:href="#DejaVuSans-63"/>
       <use x="425.146484" xlink:href="#DejaVuSans-65"/>
      </g>
     </g>
    </g>
    <g id="xtick_28">
     <g id="line2d_28">
      <g>
       <use style="stroke:#000000;stroke-width:0.8;" x="413.494264" xlink:href="#m9567e997d4" y="237.58"/>
      </g>
     </g>
     <g id="text_28">
      <!-- tripyramid middle -->
      <g transform="translate(416.253639 334.087812)rotate(-90)scale(0.1 -0.1)">
       <use xlink:href="#DejaVuSans-74"/>
       <use x="39.208984" xlink:href="#DejaVuSans-72"/>
       <use x="80.322266" xlink:href="#DejaVuSans-69"/>
       <use x="108.105469" xlink:href="#DejaVuSans-70"/>
       <use x="171.582031" xlink:href="#DejaVuSans-79"/>
       <use x="230.761719" xlink:href="#DejaVuSans-72"/>
       <use x="271.875" xlink:href="#DejaVuSans-61"/>
       <use x="333.154297" xlink:href="#DejaVuSans-6d"/>
       <use x="430.566406" xlink:href="#DejaVuSans-69"/>
       <use x="458.349609" xlink:href="#DejaVuSans-64"/>
       <use x="521.826172" xlink:href="#DejaVuSans-20"/>
       <use x="553.613281" xlink:href="#DejaVuSans-6d"/>
       <use x="651.025391" xlink:href="#DejaVuSans-69"/>
       <use x="678.808594" xlink:href="#DejaVuSans-64"/>
       <use x="742.285156" xlink:href="#DejaVuSans-64"/>
       <use x="805.761719" xlink:href="#DejaVuSans-6c"/>
       <use x="833.544922" xlink:href="#DejaVuSans-65"/>
      </g>
     </g>
    </g>
    <g id="xtick_29">
     <g id="line2d_29">
      <g>
       <use style="stroke:#000000;stroke-width:0.8;" x="426.768965" xlink:href="#m9567e997d4" y="237.58"/>
      </g>
     </g>
     <g id="text_29">
      <!-- tripyramid north -->
      <g transform="translate(429.52834 326.765938)rotate(-90)scale(0.1 -0.1)">
       <use xlink:href="#DejaVuSans-74"/>
       <use x="39.208984" xlink:href="#DejaVuSans-72"/>
       <use x="80.322266" xlink:href="#DejaVuSans-69"/>
       <use x="108.105469" xlink:href="#DejaVuSans-70"/>
       <use x="171.582031" xlink:href="#DejaVuSans-79"/>
       <use x="230.761719" xlink:href="#DejaVuSans-72"/>
       <use x="271.875" xlink:href="#DejaVuSans-61"/>
       <use x="333.154297" xlink:href="#DejaVuSans-6d"/>
       <use x="430.566406" xlink:href="#DejaVuSans-69"/>
       <use x="458.349609" xlink:href="#DejaVuSans-64"/>
       <use x="521.826172" xlink:href="#DejaVuSans-20"/>
       <use x="553.613281" xlink:href="#DejaVuSans-6e"/>
       <use x="616.992188" xlink:href="#DejaVuSans-6f"/>
       <use x="678.173828" xlink:href="#DejaVuSans-72"/>
       <use x="719.287109" xlink:href="#DejaVuSans-74"/>
       <use x="758.496094" xlink:href="#DejaVuSans-68"/>
      </g>
     </g>
    </g>
    <g id="xtick_30">
     <g id="line2d_30">
      <g>
       <use style="stroke:#000000;stroke-width:0.8;" x="440.043665" xlink:href="#m9567e997d4" y="237.58"/>
      </g>
     </g>
     <g id="text_30">
      <!-- carter south -->
      <g transform="translate(442.80304 305.603437)rotate(-90)scale(0.1 -0.1)">
       <use xlink:href="#DejaVuSans-63"/>
       <use x="54.980469" xlink:href="#DejaVuSans-61"/>
       <use x="116.259766" xlink:href="#DejaVuSans-72"/>
       <use x="157.373047" xlink:href="#DejaVuSans-74"/>
       <use x="196.582031" xlink:href="#DejaVuSans-65"/>
       <use x="258.105469" xlink:href="#DejaVuSans-72"/>
       <use x="299.21875" xlink:href="#DejaVuSans-20"/>
       <use x="331.005859" xlink:href="#DejaVuSans-73"/>
       <use x="383.105469" xlink:href="#DejaVuSans-6f"/>
       <use x="444.287109" xlink:href="#DejaVuSans-75"/>
       <use x="507.666016" xlink:href="#DejaVuSans-74"/>
       <use x="546.875" xlink:href="#DejaVuSans-68"/>
      </g>
     </g>
    </g>
    <g id="xtick_31">
     <g id="line2d_31">
      <g>
       <use style="stroke:#000000;stroke-width:0.8;" x="453.318366" xlink:href="#m9567e997d4" y="237.58"/>
      </g>
     </g>
     <g id="text_31">
      <!-- owls head -->
      <g transform="translate(456.077741 295.009687)rotate(-90)scale(0.1 -0.1)">
       <use xlink:href="#DejaVuSans-6f"/>
       <use x="61.181641" xlink:href="#DejaVuSans-77"/>
       <use x="142.96875" xlink:href="#DejaVuSans-6c"/>
       <use x="170.751953" xlink:href="#DejaVuSans-73"/>
       <use x="222.851562" xlink:href="#DejaVuSans-20"/>
       <use x="254.638672" xlink:href="#DejaVuSans-68"/>
       <use x="318.017578" xlink:href="#DejaVuSans-65"/>
       <use x="379.541016" xlink:href="#DejaVuSans-61"/>
       <use x="440.820312" xlink:href="#DejaVuSans-64"/>
      </g>
     </g>
    </g>
    <g id="xtick_32">
     <g id="line2d_32">
      <g>
       <use style="stroke:#000000;stroke-width:0.8;" x="466.593066" xlink:href="#m9567e997d4" y="237.58"/>
      </g>
     </g>
     <g id="text_32">
      <!-- monroe -->
      <g transform="translate(469.352441 283.156563)rotate(-90)scale(0.1 -0.1)">
       <use xlink:href="#DejaVuSans-6d"/>
       <use x="97.412109" xlink:href="#DejaVuSans-6f"/>
       <use x="158.59375" xlink:href="#DejaVuSans-6e"/>
       <use x="221.972656" xlink:href="#DejaVuSans-72"/>
       <use x="263.054688" xlink:href="#DejaVuSans-6f"/>
       <use x="324.236328" xlink:href="#DejaVuSans-65"/>
      </g>
     </g>
    </g>
    <g id="xtick_33">
     <g id="line2d_33">
      <g>
       <use style="stroke:#000000;stroke-width:0.8;" x="479.867767" xlink:href="#m9567e997d4" y="237.58"/>
      </g>
     </g>
     <g id="text_33">
      <!-- carter middle -->
      <g transform="translate(482.627142 311.826875)rotate(-90)scale(0.1 -0.1)">
       <use xlink:href="#DejaVuSans-63"/>
       <use x="54.980469" xlink:href="#DejaVuSans-61"/>
       <use x="116.259766" xlink:href="#DejaVuSans-72"/>
       <use x="157.373047" xlink:href="#DejaVuSans-74"/>
       <use x="196.582031" xlink:href="#DejaVuSans-65"/>
       <use x="258.105469" xlink:href="#DejaVuSans-72"/>
       <use x="299.21875" xlink:href="#DejaVuSans-20"/>
       <use x="331.005859" xlink:href="#DejaVuSans-6d"/>
       <use x="428.417969" xlink:href="#DejaVuSans-69"/>
       <use x="456.201172" xlink:href="#DejaVuSans-64"/>
       <use x="519.677734" xlink:href="#DejaVuSans-64"/>
       <use x="583.154297" xlink:href="#DejaVuSans-6c"/>
       <use x="610.9375" xlink:href="#DejaVuSans-65"/>
      </g>
     </g>
    </g>
    <g id="xtick_34">
     <g id="line2d_34">
      <g>
       <use style="stroke:#000000;stroke-width:0.8;" x="493.142467" xlink:href="#m9567e997d4" y="237.58"/>
      </g>
     </g>
     <g id="text_34">
      <!-- carter dome -->
      <g transform="translate(495.901842 306.040937)rotate(-90)scale(0.1 -0.1)">
       <use xlink:href="#DejaVuSans-63"/>
       <use x="54.980469" xlink:href="#DejaVuSans-61"/>
       <use x="116.259766" xlink:href="#DejaVuSans-72"/>
       <use x="157.373047" xlink:href="#DejaVuSans-74"/>
       <use x="196.582031" xlink:href="#DejaVuSans-65"/>
       <use x="258.105469" xlink:href="#DejaVuSans-72"/>
       <use x="299.21875" xlink:href="#DejaVuSans-20"/>
       <use x="331.005859" xlink:href="#DejaVuSans-64"/>
       <use x="394.482422" xlink:href="#DejaVuSans-6f"/>
       <use x="455.664062" xlink:href="#DejaVuSans-6d"/>
       <use x="553.076172" xlink:href="#DejaVuSans-65"/>
      </g>
     </g>
    </g>
    <g id="xtick_35">
     <g id="line2d_35">
      <g>
       <use style="stroke:#000000;stroke-width:0.8;" x="506.417168" xlink:href="#m9567e997d4" y="237.58"/>
      </g>
     </g>
     <g id="text_35">
      <!-- passaconaway -->
      <g transform="translate(509.176543 317.91125)rotate(-90)scale(0.1 -0.1)">
       <use xlink:href="#DejaVuSans-70"/>
       <use x="63.476562" xlink:href="#DejaVuSans-61"/>
       <use x="124.755859" xlink:href="#DejaVuSans-73"/>
       <use x="176.855469" xlink:href="#DejaVuSans-73"/>
       <use x="228.955078" xlink:href="#DejaVuSans-61"/>
       <use x="290.234375" xlink:href="#DejaVuSans-63"/>
       <use x="345.214844" xlink:href="#DejaVuSans-6f"/>
       <use x="406.396484" xlink:href="#DejaVuSans-6e"/>
       <use x="469.775391" xlink:href="#DejaVuSans-61"/>
       <use x="531.054688" xlink:href="#DejaVuSans-77"/>
       <use x="612.841797" xlink:href="#DejaVuSans-61"/>
       <use x="674.121094" xlink:href="#DejaVuSans-79"/>
      </g>
     </g>
    </g>
    <g id="xtick_36">
     <g id="line2d_36">
      <g>
       <use style="stroke:#000000;stroke-width:0.8;" x="519.691868" xlink:href="#m9567e997d4" y="237.58"/>
      </g>
     </g>
     <g id="text_36">
      <!-- hale -->
      <g transform="translate(522.451243 265.976875)rotate(-90)scale(0.1 -0.1)">
       <use xlink:href="#DejaVuSans-68"/>
       <use x="63.378906" xlink:href="#DejaVuSans-61"/>
       <use x="124.658203" xlink:href="#DejaVuSans-6c"/>
       <use x="152.441406" xlink:href="#DejaVuSans-65"/>
      </g>
     </g>
    </g>
    <g id="xtick_37">
     <g id="line2d_37">
      <g>
       <use style="stroke:#000000;stroke-width:0.8;" x="532.966569" xlink:href="#m9567e997d4" y="237.58"/>
      </g>
     </g>
     <g id="text_37">
      <!-- cabot -->
      <g transform="translate(535.725944 272.594063)rotate(-90)scale(0.1 -0.1)">
       <use xlink:href="#DejaVuSans-63"/>
       <use x="54.980469" xlink:href="#DejaVuSans-61"/>
       <use x="116.259766" xlink:href="#DejaVuSans-62"/>
       <use x="179.736328" xlink:href="#DejaVuSans-6f"/>
       <use x="240.917969" xlink:href="#DejaVuSans-74"/>
      </g>
     </g>
    </g>
    <g id="xtick_38">
     <g id="line2d_38">
      <g>
       <use style="stroke:#000000;stroke-width:0.8;" x="546.24127" xlink:href="#m9567e997d4" y="237.58"/>
      </g>
     </g>
     <g id="text_38">
      <!-- carrigain -->
      <g transform="translate(549.000645 288.797188)rotate(-90)scale(0.1 -0.1)">
       <use xlink:href="#DejaVuSans-63"/>
       <use x="54.980469" xlink:href="#DejaVuSans-61"/>
       <use x="116.259766" xlink:href="#DejaVuSans-72"/>
       <use x="157.357422" xlink:href="#DejaVuSans-72"/>
       <use x="198.470703" xlink:href="#DejaVuSans-69"/>
       <use x="226.253906" xlink:href="#DejaVuSans-67"/>
       <use x="289.730469" xlink:href="#DejaVuSans-61"/>
       <use x="351.009766" xlink:href="#DejaVuSans-69"/>
       <use x="378.792969" xlink:href="#DejaVuSans-6e"/>
      </g>
     </g>
    </g>
    <g id="xtick_39">
     <g id="line2d_39">
      <g>
       <use style="stroke:#000000;stroke-width:0.8;" x="559.51597" xlink:href="#m9567e997d4" y="237.58"/>
      </g>
     </g>
     <g id="text_39">
      <!-- wildcat d -->
      <g transform="translate(562.275345 289.73625)rotate(-90)scale(0.1 -0.1)">
       <use xlink:href="#DejaVuSans-77"/>
       <use x="81.787109" xlink:href="#DejaVuSans-69"/>
       <use x="109.570312" xlink:href="#DejaVuSans-6c"/>
       <use x="137.353516" xlink:href="#DejaVuSans-64"/>
       <use x="200.830078" xlink:href="#DejaVuSans-63"/>
       <use x="255.810547" xlink:href="#DejaVuSans-61"/>
       <use x="317.089844" xlink:href="#DejaVuSans-74"/>
       <use x="356.298828" xlink:href="#DejaVuSans-20"/>
       <use x="388.085938" xlink:href="#DejaVuSans-64"/>
      </g>
     </g>
    </g>
    <g id="xtick_40">
     <g id="line2d_40">
      <g>
       <use style="stroke:#000000;stroke-width:0.8;" x="572.790671" xlink:href="#m9567e997d4" y="237.58"/>
      </g>
     </g>
     <g id="text_40">
      <!-- bondcliff -->
      <g transform="translate(575.550046 287.828438)rotate(-90)scale(0.1 -0.1)">
       <use xlink:href="#DejaVuSans-62"/>
       <use x="63.476562" xlink:href="#DejaVuSans-6f"/>
       <use x="124.658203" xlink:href="#DejaVuSans-6e"/>
       <use x="188.037109" xlink:href="#DejaVuSans-64"/>
       <use x="251.513672" xlink:href="#DejaVuSans-63"/>
       <use x="306.494141" xlink:href="#DejaVuSans-6c"/>
       <use x="334.277344" xlink:href="#DejaVuSans-69"/>
       <use x="362.060547" xlink:href="#DejaVuSans-66"/>
       <use x="397.265625" xlink:href="#DejaVuSans-66"/>
      </g>
     </g>
    </g>
    <g id="xtick_41">
     <g id="line2d_41">
      <g>
       <use style="stroke:#000000;stroke-width:0.8;" x="586.065371" xlink:href="#m9567e997d4" y="237.58"/>
      </g>
     </g>
     <g id="text_41">
      <!-- bond -->
      <g transform="translate(588.824746 269.733125)rotate(-90)scale(0.1 -0.1)">
       <use xlink:href="#DejaVuSans-62"/>
       <use x="63.476562" xlink:href="#DejaVuSans-6f"/>
       <use x="124.658203" xlink:href="#DejaVuSans-6e"/>
       <use x="188.037109" xlink:href="#DejaVuSans-64"/>
      </g>
     </g>
    </g>
    <g id="xtick_42">
     <g id="line2d_42">
      <g>
       <use style="stroke:#000000;stroke-width:0.8;" x="599.340072" xlink:href="#m9567e997d4" y="237.58"/>
      </g>
     </g>
     <g id="text_42">
      <!-- bond west -->
      <g transform="translate(602.099447 296.372187)rotate(-90)scale(0.1 -0.1)">
       <use xlink:href="#DejaVuSans-62"/>
       <use x="63.476562" xlink:href="#DejaVuSans-6f"/>
       <use x="124.658203" xlink:href="#DejaVuSans-6e"/>
       <use x="188.037109" xlink:href="#DejaVuSans-64"/>
       <use x="251.513672" xlink:href="#DejaVuSans-20"/>
       <use x="283.300781" xlink:href="#DejaVuSans-77"/>
       <use x="365.087891" xlink:href="#DejaVuSans-65"/>
       <use x="426.611328" xlink:href="#DejaVuSans-73"/>
       <use x="478.710938" xlink:href="#DejaVuSans-74"/>
      </g>
     </g>
    </g>
    <g id="xtick_43">
     <g id="line2d_43">
      <g>
       <use style="stroke:#000000;stroke-width:0.8;" x="612.614772" xlink:href="#m9567e997d4" y="237.58"/>
      </g>
     </g>
     <g id="text_43">
      <!-- wildcat a -->
      <g transform="translate(615.374147 289.515938)rotate(-90)scale(0.1 -0.1)">
       <use xlink:href="#DejaVuSans-77"/>
       <use x="81.787109" xlink:href="#DejaVuSans-69"/>
       <use x="109.570312" xlink:href="#DejaVuSans-6c"/>
       <use x="137.353516" xlink:href="#DejaVuSans-64"/>
       <use x="200.830078" xlink:href="#DejaVuSans-63"/>
       <use x="255.810547" xlink:href="#DejaVuSans-61"/>
       <use x="317.089844" xlink:href="#DejaVuSans-74"/>
       <use x="356.298828" xlink:href="#DejaVuSans-20"/>
       <use x="388.085938" xlink:href="#DejaVuSans-61"/>
      </g>
     </g>
    </g>
    <g id="xtick_44">
     <g id="line2d_44">
      <g>
       <use style="stroke:#000000;stroke-width:0.8;" x="625.889473" xlink:href="#m9567e997d4" y="237.58"/>
      </g>
     </g>
     <g id="text_44">
      <!-- isolation -->
      <g transform="translate(628.648848 286.747187)rotate(-90)scale(0.1 -0.1)">
       <use xlink:href="#DejaVuSans-69"/>
       <use x="27.783203" xlink:href="#DejaVuSans-73"/>
       <use x="79.882812" xlink:href="#DejaVuSans-6f"/>
       <use x="141.064453" xlink:href="#DejaVuSans-6c"/>
       <use x="168.847656" xlink:href="#DejaVuSans-61"/>
       <use x="230.126953" xlink:href="#DejaVuSans-74"/>
       <use x="269.335938" xlink:href="#DejaVuSans-69"/>
       <use x="297.119141" xlink:href="#DejaVuSans-6f"/>
       <use x="358.300781" xlink:href="#DejaVuSans-6e"/>
      </g>
     </g>
    </g>
    <g id="xtick_45">
     <g id="line2d_45">
      <g>
       <use style="stroke:#000000;stroke-width:0.8;" x="639.164173" xlink:href="#m9567e997d4" y="237.58"/>
      </g>
     </g>
     <g id="text_45">
      <!-- twin south -->
      <g transform="translate(641.923548 296.895625)rotate(-90)scale(0.1 -0.1)">
       <use xlink:href="#DejaVuSans-74"/>
       <use x="39.208984" xlink:href="#DejaVuSans-77"/>
       <use x="120.996094" xlink:href="#DejaVuSans-69"/>
       <use x="148.779297" xlink:href="#DejaVuSans-6e"/>
       <use x="212.158203" xlink:href="#DejaVuSans-20"/>
       <use x="243.945312" xlink:href="#DejaVuSans-73"/>
       <use x="296.044922" xlink:href="#DejaVuSans-6f"/>
       <use x="357.226562" xlink:href="#DejaVuSans-75"/>
       <use x="420.605469" xlink:href="#DejaVuSans-74"/>
       <use x="459.814453" xlink:href="#DejaVuSans-68"/>
      </g>
     </g>
    </g>
    <g id="xtick_46">
     <g id="line2d_46">
      <g>
       <use style="stroke:#000000;stroke-width:0.8;" x="652.438874" xlink:href="#m9567e997d4" y="237.58"/>
      </g>
     </g>
     <g id="text_46">
      <!-- zealand -->
      <defs>
       <path d="M 5.515625 54.6875 
L 48.1875 54.6875 
L 48.1875 46.484375 
L 14.40625 7.171875 
L 48.1875 7.171875 
L 48.1875 0 
L 4.296875 0 
L 4.296875 8.203125 
L 38.09375 47.515625 
L 5.515625 47.515625 
z
" id="DejaVuSans-7a"/>
      </defs>
      <g transform="translate(655.198249 283.701875)rotate(-90)scale(0.1 -0.1)">
       <use xlink:href="#DejaVuSans-7a"/>
       <use x="52.490234" xlink:href="#DejaVuSans-65"/>
       <use x="114.013672" xlink:href="#DejaVuSans-61"/>
       <use x="175.292969" xlink:href="#DejaVuSans-6c"/>
       <use x="203.076172" xlink:href="#DejaVuSans-61"/>
       <use x="264.355469" xlink:href="#DejaVuSans-6e"/>
       <use x="327.734375" xlink:href="#DejaVuSans-64"/>
      </g>
     </g>
    </g>
    <g id="xtick_47">
     <g id="line2d_47">
      <g>
       <use style="stroke:#000000;stroke-width:0.8;" x="665.713574" xlink:href="#m9567e997d4" y="237.58"/>
      </g>
     </g>
     <g id="text_47">
      <!-- twin north -->
      <g transform="translate(668.472949 295.797188)rotate(-90)scale(0.1 -0.1)">
       <use xlink:href="#DejaVuSans-74"/>
       <use x="39.208984" xlink:href="#DejaVuSans-77"/>
       <use x="120.996094" xlink:href="#DejaVuSans-69"/>
       <use x="148.779297" xlink:href="#DejaVuSans-6e"/>
       <use x="212.158203" xlink:href="#DejaVuSans-20"/>
       <use x="243.945312" xlink:href="#DejaVuSans-6e"/>
       <use x="307.324219" xlink:href="#DejaVuSans-6f"/>
       <use x="368.505859" xlink:href="#DejaVuSans-72"/>
       <use x="409.619141" xlink:href="#DejaVuSans-74"/>
       <use x="448.828125" xlink:href="#DejaVuSans-68"/>
      </g>
     </g>
    </g>
    <g id="xtick_48">
     <g id="line2d_48">
      <g>
       <use style="stroke:#000000;stroke-width:0.8;" x="678.988275" xlink:href="#m9567e997d4" y="237.58"/>
      </g>
     </g>
     <g id="text_48">
      <!-- galehead -->
      <g transform="translate(681.74765 290.955)rotate(-90)scale(0.1 -0.1)">
       <use xlink:href="#DejaVuSans-67"/>
       <use x="63.476562" xlink:href="#DejaVuSans-61"/>
       <use x="124.755859" xlink:href="#DejaVuSans-6c"/>
       <use x="152.539062" xlink:href="#DejaVuSans-65"/>
       <use x="214.0625" xlink:href="#DejaVuSans-68"/>
       <use x="277.441406" xlink:href="#DejaVuSans-65"/>
       <use x="338.964844" xlink:href="#DejaVuSans-61"/>
       <use x="400.244141" xlink:href="#DejaVuSans-64"/>
      </g>
     </g>
    </g>
    <g id="text_49">
     <!-- Mountain name -->
     <defs>
      <path d="M 9.8125 72.90625 
L 24.515625 72.90625 
L 43.109375 23.296875 
L 61.8125 72.90625 
L 76.515625 72.90625 
L 76.515625 0 
L 66.890625 0 
L 66.890625 64.015625 
L 48.09375 14.015625 
L 38.1875 14.015625 
L 19.390625 64.015625 
L 19.390625 0 
L 9.8125 0 
z
" id="DejaVuSans-4d"/>
     </defs>
     <g transform="translate(320.15875 347.205938)scale(0.12 -0.12)">
      <use xlink:href="#DejaVuSans-4d"/>
      <use x="86.279297" xlink:href="#DejaVuSans-6f"/>
      <use x="147.460938" xlink:href="#DejaVuSans-75"/>
      <use x="210.839844" xlink:href="#DejaVuSans-6e"/>
      <use x="274.21875" xlink:href="#DejaVuSans-74"/>
      <use x="313.427734" xlink:href="#DejaVuSans-61"/>
      <use x="374.707031" xlink:href="#DejaVuSans-69"/>
      <use x="402.490234" xlink:href="#DejaVuSans-6e"/>
      <use x="465.869141" xlink:href="#DejaVuSans-20"/>
      <use x="497.65625" xlink:href="#DejaVuSans-6e"/>
      <use x="561.035156" xlink:href="#DejaVuSans-61"/>
      <use x="622.314453" xlink:href="#DejaVuSans-6d"/>
      <use x="719.726562" xlink:href="#DejaVuSans-65"/>
     </g>
    </g>
   </g>
   <g id="matplotlib.axis_2">
    <g id="ytick_1">
     <g id="line2d_49">
      <defs>
       <path d="M 0 0 
L -3.5 0 
" id="mf4036088e1" style="stroke:#000000;stroke-width:0.8;"/>
      </defs>
      <g>
       <use style="stroke:#000000;stroke-width:0.8;" x="48.44" xlink:href="#mf4036088e1" y="237.58"/>
      </g>
     </g>
     <g id="text_50">
      <!-- 0.0 -->
      <defs>
       <path d="M 31.78125 66.40625 
Q 24.171875 66.40625 20.328125 58.90625 
Q 16.5 51.421875 16.5 36.375 
Q 16.5 21.390625 20.328125 13.890625 
Q 24.171875 6.390625 31.78125 6.390625 
Q 39.453125 6.390625 43.28125 13.890625 
Q 47.125 21.390625 47.125 36.375 
Q 47.125 51.421875 43.28125 58.90625 
Q 39.453125 66.40625 31.78125 66.40625 
z
M 31.78125 74.21875 
Q 44.046875 74.21875 50.515625 64.515625 
Q 56.984375 54.828125 56.984375 36.375 
Q 56.984375 17.96875 50.515625 8.265625 
Q 44.046875 -1.421875 31.78125 -1.421875 
Q 19.53125 -1.421875 13.0625 8.265625 
Q 6.59375 17.96875 6.59375 36.375 
Q 6.59375 54.828125 13.0625 64.515625 
Q 19.53125 74.21875 31.78125 74.21875 
z
" id="DejaVuSans-30"/>
       <path d="M 10.6875 12.40625 
L 21 12.40625 
L 21 0 
L 10.6875 0 
z
" id="DejaVuSans-2e"/>
      </defs>
      <g transform="translate(25.536875 241.379219)scale(0.1 -0.1)">
       <use xlink:href="#DejaVuSans-30"/>
       <use x="63.623047" xlink:href="#DejaVuSans-2e"/>
       <use x="95.410156" xlink:href="#DejaVuSans-30"/>
      </g>
     </g>
    </g>
    <g id="ytick_2">
     <g id="line2d_50">
      <g>
       <use style="stroke:#000000;stroke-width:0.8;" x="48.44" xlink:href="#mf4036088e1" y="196.592"/>
      </g>
     </g>
     <g id="text_51">
      <!-- 0.2 -->
      <defs>
       <path d="M 19.1875 8.296875 
L 53.609375 8.296875 
L 53.609375 0 
L 7.328125 0 
L 7.328125 8.296875 
Q 12.9375 14.109375 22.625 23.890625 
Q 32.328125 33.6875 34.8125 36.53125 
Q 39.546875 41.84375 41.421875 45.53125 
Q 43.3125 49.21875 43.3125 52.78125 
Q 43.3125 58.59375 39.234375 62.25 
Q 35.15625 65.921875 28.609375 65.921875 
Q 23.96875 65.921875 18.8125 64.3125 
Q 13.671875 62.703125 7.8125 59.421875 
L 7.8125 69.390625 
Q 13.765625 71.78125 18.9375 73 
Q 24.125 74.21875 28.421875 74.21875 
Q 39.75 74.21875 46.484375 68.546875 
Q 53.21875 62.890625 53.21875 53.421875 
Q 53.21875 48.921875 51.53125 44.890625 
Q 49.859375 40.875 45.40625 35.40625 
Q 44.1875 33.984375 37.640625 27.21875 
Q 31.109375 20.453125 19.1875 8.296875 
z
" id="DejaVuSans-32"/>
      </defs>
      <g transform="translate(25.536875 200.391219)scale(0.1 -0.1)">
       <use xlink:href="#DejaVuSans-30"/>
       <use x="63.623047" xlink:href="#DejaVuSans-2e"/>
       <use x="95.410156" xlink:href="#DejaVuSans-32"/>
      </g>
     </g>
    </g>
    <g id="ytick_3">
     <g id="line2d_51">
      <g>
       <use style="stroke:#000000;stroke-width:0.8;" x="48.44" xlink:href="#mf4036088e1" y="155.604"/>
      </g>
     </g>
     <g id="text_52">
      <!-- 0.4 -->
      <defs>
       <path d="M 37.796875 64.3125 
L 12.890625 25.390625 
L 37.796875 25.390625 
z
M 35.203125 72.90625 
L 47.609375 72.90625 
L 47.609375 25.390625 
L 58.015625 25.390625 
L 58.015625 17.1875 
L 47.609375 17.1875 
L 47.609375 0 
L 37.796875 0 
L 37.796875 17.1875 
L 4.890625 17.1875 
L 4.890625 26.703125 
z
" id="DejaVuSans-34"/>
      </defs>
      <g transform="translate(25.536875 159.403219)scale(0.1 -0.1)">
       <use xlink:href="#DejaVuSans-30"/>
       <use x="63.623047" xlink:href="#DejaVuSans-2e"/>
       <use x="95.410156" xlink:href="#DejaVuSans-34"/>
      </g>
     </g>
    </g>
    <g id="ytick_4">
     <g id="line2d_52">
      <g>
       <use style="stroke:#000000;stroke-width:0.8;" x="48.44" xlink:href="#mf4036088e1" y="114.616"/>
      </g>
     </g>
     <g id="text_53">
      <!-- 0.6 -->
      <defs>
       <path d="M 33.015625 40.375 
Q 26.375 40.375 22.484375 35.828125 
Q 18.609375 31.296875 18.609375 23.390625 
Q 18.609375 15.53125 22.484375 10.953125 
Q 26.375 6.390625 33.015625 6.390625 
Q 39.65625 6.390625 43.53125 10.953125 
Q 47.40625 15.53125 47.40625 23.390625 
Q 47.40625 31.296875 43.53125 35.828125 
Q 39.65625 40.375 33.015625 40.375 
z
M 52.59375 71.296875 
L 52.59375 62.3125 
Q 48.875 64.0625 45.09375 64.984375 
Q 41.3125 65.921875 37.59375 65.921875 
Q 27.828125 65.921875 22.671875 59.328125 
Q 17.53125 52.734375 16.796875 39.40625 
Q 19.671875 43.65625 24.015625 45.921875 
Q 28.375 48.1875 33.59375 48.1875 
Q 44.578125 48.1875 50.953125 41.515625 
Q 57.328125 34.859375 57.328125 23.390625 
Q 57.328125 12.15625 50.6875 5.359375 
Q 44.046875 -1.421875 33.015625 -1.421875 
Q 20.359375 -1.421875 13.671875 8.265625 
Q 6.984375 17.96875 6.984375 36.375 
Q 6.984375 53.65625 15.1875 63.9375 
Q 23.390625 74.21875 37.203125 74.21875 
Q 40.921875 74.21875 44.703125 73.484375 
Q 48.484375 72.75 52.59375 71.296875 
z
" id="DejaVuSans-36"/>
      </defs>
      <g transform="translate(25.536875 118.415219)scale(0.1 -0.1)">
       <use xlink:href="#DejaVuSans-30"/>
       <use x="63.623047" xlink:href="#DejaVuSans-2e"/>
       <use x="95.410156" xlink:href="#DejaVuSans-36"/>
      </g>
     </g>
    </g>
    <g id="ytick_5">
     <g id="line2d_53">
      <g>
       <use style="stroke:#000000;stroke-width:0.8;" x="48.44" xlink:href="#mf4036088e1" y="73.628"/>
      </g>
     </g>
     <g id="text_54">
      <!-- 0.8 -->
      <defs>
       <path d="M 31.78125 34.625 
Q 24.75 34.625 20.71875 30.859375 
Q 16.703125 27.09375 16.703125 20.515625 
Q 16.703125 13.921875 20.71875 10.15625 
Q 24.75 6.390625 31.78125 6.390625 
Q 38.8125 6.390625 42.859375 10.171875 
Q 46.921875 13.96875 46.921875 20.515625 
Q 46.921875 27.09375 42.890625 30.859375 
Q 38.875 34.625 31.78125 34.625 
z
M 21.921875 38.8125 
Q 15.578125 40.375 12.03125 44.71875 
Q 8.5 49.078125 8.5 55.328125 
Q 8.5 64.0625 14.71875 69.140625 
Q 20.953125 74.21875 31.78125 74.21875 
Q 42.671875 74.21875 48.875 69.140625 
Q 55.078125 64.0625 55.078125 55.328125 
Q 55.078125 49.078125 51.53125 44.71875 
Q 48 40.375 41.703125 38.8125 
Q 48.828125 37.15625 52.796875 32.3125 
Q 56.78125 27.484375 56.78125 20.515625 
Q 56.78125 9.90625 50.3125 4.234375 
Q 43.84375 -1.421875 31.78125 -1.421875 
Q 19.734375 -1.421875 13.25 4.234375 
Q 6.78125 9.90625 6.78125 20.515625 
Q 6.78125 27.484375 10.78125 32.3125 
Q 14.796875 37.15625 21.921875 38.8125 
z
M 18.3125 54.390625 
Q 18.3125 48.734375 21.84375 45.5625 
Q 25.390625 42.390625 31.78125 42.390625 
Q 38.140625 42.390625 41.71875 45.5625 
Q 45.3125 48.734375 45.3125 54.390625 
Q 45.3125 60.0625 41.71875 63.234375 
Q 38.140625 66.40625 31.78125 66.40625 
Q 25.390625 66.40625 21.84375 63.234375 
Q 18.3125 60.0625 18.3125 54.390625 
z
" id="DejaVuSans-38"/>
      </defs>
      <g transform="translate(25.536875 77.427219)scale(0.1 -0.1)">
       <use xlink:href="#DejaVuSans-30"/>
       <use x="63.623047" xlink:href="#DejaVuSans-2e"/>
       <use x="95.410156" xlink:href="#DejaVuSans-38"/>
      </g>
     </g>
    </g>
    <g id="ytick_6">
     <g id="line2d_54">
      <g>
       <use style="stroke:#000000;stroke-width:0.8;" x="48.44" xlink:href="#mf4036088e1" y="32.64"/>
      </g>
     </g>
     <g id="text_55">
      <!-- 1.0 -->
      <defs>
       <path d="M 12.40625 8.296875 
L 28.515625 8.296875 
L 28.515625 63.921875 
L 10.984375 60.40625 
L 10.984375 69.390625 
L 28.421875 72.90625 
L 38.28125 72.90625 
L 38.28125 8.296875 
L 54.390625 8.296875 
L 54.390625 0 
L 12.40625 0 
z
" id="DejaVuSans-31"/>
      </defs>
      <g transform="translate(25.536875 36.439219)scale(0.1 -0.1)">
       <use xlink:href="#DejaVuSans-31"/>
       <use x="63.623047" xlink:href="#DejaVuSans-2e"/>
       <use x="95.410156" xlink:href="#DejaVuSans-30"/>
      </g>
     </g>
    </g>
    <g id="text_56">
     <!-- Probability of needing snowshoes -->
     <defs>
      <path d="M 19.671875 64.796875 
L 19.671875 37.40625 
L 32.078125 37.40625 
Q 38.96875 37.40625 42.71875 40.96875 
Q 46.484375 44.53125 46.484375 51.125 
Q 46.484375 57.671875 42.71875 61.234375 
Q 38.96875 64.796875 32.078125 64.796875 
z
M 9.8125 72.90625 
L 32.078125 72.90625 
Q 44.34375 72.90625 50.609375 67.359375 
Q 56.890625 61.8125 56.890625 51.125 
Q 56.890625 40.328125 50.609375 34.8125 
Q 44.34375 29.296875 32.078125 29.296875 
L 19.671875 29.296875 
L 19.671875 0 
L 9.8125 0 
z
" id="DejaVuSans-50"/>
     </defs>
     <g transform="translate(19.04125 235.762812)rotate(-90)scale(0.12 -0.12)">
      <use xlink:href="#DejaVuSans-50"/>
      <use x="60.287109" xlink:href="#DejaVuSans-72"/>
      <use x="101.369141" xlink:href="#DejaVuSans-6f"/>
      <use x="162.550781" xlink:href="#DejaVuSans-62"/>
      <use x="226.027344" xlink:href="#DejaVuSans-61"/>
      <use x="287.306641" xlink:href="#DejaVuSans-62"/>
      <use x="350.783203" xlink:href="#DejaVuSans-69"/>
      <use x="378.566406" xlink:href="#DejaVuSans-6c"/>
      <use x="406.349609" xlink:href="#DejaVuSans-69"/>
      <use x="434.132812" xlink:href="#DejaVuSans-74"/>
      <use x="473.341797" xlink:href="#DejaVuSans-79"/>
      <use x="532.521484" xlink:href="#DejaVuSans-20"/>
      <use x="564.308594" xlink:href="#DejaVuSans-6f"/>
      <use x="625.490234" xlink:href="#DejaVuSans-66"/>
      <use x="660.695312" xlink:href="#DejaVuSans-20"/>
      <use x="692.482422" xlink:href="#DejaVuSans-6e"/>
      <use x="755.861328" xlink:href="#DejaVuSans-65"/>
      <use x="817.384766" xlink:href="#DejaVuSans-65"/>
      <use x="878.908203" xlink:href="#DejaVuSans-64"/>
      <use x="942.384766" xlink:href="#DejaVuSans-69"/>
      <use x="970.167969" xlink:href="#DejaVuSans-6e"/>
      <use x="1033.546875" xlink:href="#DejaVuSans-67"/>
      <use x="1097.023438" xlink:href="#DejaVuSans-20"/>
      <use x="1128.810547" xlink:href="#DejaVuSans-73"/>
      <use x="1180.910156" xlink:href="#DejaVuSans-6e"/>
      <use x="1244.289062" xlink:href="#DejaVuSans-6f"/>
      <use x="1305.470703" xlink:href="#DejaVuSans-77"/>
      <use x="1387.257812" xlink:href="#DejaVuSans-73"/>
      <use x="1439.357422" xlink:href="#DejaVuSans-68"/>
      <use x="1502.736328" xlink:href="#DejaVuSans-6f"/>
      <use x="1563.917969" xlink:href="#DejaVuSans-65"/>
      <use x="1625.441406" xlink:href="#DejaVuSans-73"/>
     </g>
    </g>
   </g>
   <g id="patch_51">
    <path d="M 48.44 237.58 
L 48.44 32.64 
" style="fill:none;stroke:#000000;stroke-linecap:square;stroke-linejoin:miter;stroke-width:0.8;"/>
   </g>
   <g id="patch_52">
    <path d="M 685.625625 237.58 
L 685.625625 32.64 
" style="fill:none;stroke:#000000;stroke-linecap:square;stroke-linejoin:miter;stroke-width:0.8;"/>
   </g>
   <g id="patch_53">
    <path d="M 48.44 237.58 
L 685.625625 237.58 
" style="fill:none;stroke:#000000;stroke-linecap:square;stroke-linejoin:miter;stroke-width:0.8;"/>
   </g>
   <g id="patch_54">
    <path d="M 48.44 32.64 
L 685.625625 32.64 
" style="fill:none;stroke:#000000;stroke-linecap:square;stroke-linejoin:miter;stroke-width:0.8;"/>
   </g>
   <g id="text_57">
    <!-- Probability of needing snowshoes during Jan, Feb and March -->
    <defs>
     <path d="M 9.8125 72.90625 
L 19.671875 72.90625 
L 19.671875 5.078125 
Q 19.671875 -8.109375 14.671875 -14.0625 
Q 9.671875 -20.015625 -1.421875 -20.015625 
L -5.171875 -20.015625 
L -5.171875 -11.71875 
L -2.09375 -11.71875 
Q 4.4375 -11.71875 7.125 -8.046875 
Q 9.8125 -4.390625 9.8125 5.078125 
z
" id="DejaVuSans-4a"/>
     <path d="M 11.71875 12.40625 
L 22.015625 12.40625 
L 22.015625 4 
L 14.015625 -11.625 
L 7.71875 -11.625 
L 11.71875 4 
z
" id="DejaVuSans-2c"/>
     <path d="M 9.8125 72.90625 
L 51.703125 72.90625 
L 51.703125 64.59375 
L 19.671875 64.59375 
L 19.671875 43.109375 
L 48.578125 43.109375 
L 48.578125 34.8125 
L 19.671875 34.8125 
L 19.671875 0 
L 9.8125 0 
z
" id="DejaVuSans-46"/>
    </defs>
    <g transform="translate(64.773437 26.64)scale(0.2 -0.2)">
     <use xlink:href="#DejaVuSans-50"/>
     <use x="60.287109" xlink:href="#DejaVuSans-72"/>
     <use x="101.369141" xlink:href="#DejaVuSans-6f"/>
     <use x="162.550781" xlink:href="#DejaVuSans-62"/>
     <use x="226.027344" xlink:href="#DejaVuSans-61"/>
     <use x="287.306641" xlink:href="#DejaVuSans-62"/>
     <use x="350.783203" xlink:href="#DejaVuSans-69"/>
     <use x="378.566406" xlink:href="#DejaVuSans-6c"/>
     <use x="406.349609" xlink:href="#DejaVuSans-69"/>
     <use x="434.132812" xlink:href="#DejaVuSans-74"/>
     <use x="473.341797" xlink:href="#DejaVuSans-79"/>
     <use x="532.521484" xlink:href="#DejaVuSans-20"/>
     <use x="564.308594" xlink:href="#DejaVuSans-6f"/>
     <use x="625.490234" xlink:href="#DejaVuSans-66"/>
     <use x="660.695312" xlink:href="#DejaVuSans-20"/>
     <use x="692.482422" xlink:href="#DejaVuSans-6e"/>
     <use x="755.861328" xlink:href="#DejaVuSans-65"/>
     <use x="817.384766" xlink:href="#DejaVuSans-65"/>
     <use x="878.908203" xlink:href="#DejaVuSans-64"/>
     <use x="942.384766" xlink:href="#DejaVuSans-69"/>
     <use x="970.167969" xlink:href="#DejaVuSans-6e"/>
     <use x="1033.546875" xlink:href="#DejaVuSans-67"/>
     <use x="1097.023438" xlink:href="#DejaVuSans-20"/>
     <use x="1128.810547" xlink:href="#DejaVuSans-73"/>
     <use x="1180.910156" xlink:href="#DejaVuSans-6e"/>
     <use x="1244.289062" xlink:href="#DejaVuSans-6f"/>
     <use x="1305.470703" xlink:href="#DejaVuSans-77"/>
     <use x="1387.257812" xlink:href="#DejaVuSans-73"/>
     <use x="1439.357422" xlink:href="#DejaVuSans-68"/>
     <use x="1502.736328" xlink:href="#DejaVuSans-6f"/>
     <use x="1563.917969" xlink:href="#DejaVuSans-65"/>
     <use x="1625.441406" xlink:href="#DejaVuSans-73"/>
     <use x="1677.541016" xlink:href="#DejaVuSans-20"/>
     <use x="1709.328125" xlink:href="#DejaVuSans-64"/>
     <use x="1772.804688" xlink:href="#DejaVuSans-75"/>
     <use x="1836.183594" xlink:href="#DejaVuSans-72"/>
     <use x="1877.296875" xlink:href="#DejaVuSans-69"/>
     <use x="1905.080078" xlink:href="#DejaVuSans-6e"/>
     <use x="1968.458984" xlink:href="#DejaVuSans-67"/>
     <use x="2031.935547" xlink:href="#DejaVuSans-20"/>
     <use x="2063.722656" xlink:href="#DejaVuSans-4a"/>
     <use x="2093.214844" xlink:href="#DejaVuSans-61"/>
     <use x="2154.494141" xlink:href="#DejaVuSans-6e"/>
     <use x="2217.873047" xlink:href="#DejaVuSans-2c"/>
     <use x="2249.660156" xlink:href="#DejaVuSans-20"/>
     <use x="2281.447266" xlink:href="#DejaVuSans-46"/>
     <use x="2338.888672" xlink:href="#DejaVuSans-65"/>
     <use x="2400.412109" xlink:href="#DejaVuSans-62"/>
     <use x="2463.888672" xlink:href="#DejaVuSans-20"/>
     <use x="2495.675781" xlink:href="#DejaVuSans-61"/>
     <use x="2556.955078" xlink:href="#DejaVuSans-6e"/>
     <use x="2620.333984" xlink:href="#DejaVuSans-64"/>
     <use x="2683.810547" xlink:href="#DejaVuSans-20"/>
     <use x="2715.597656" xlink:href="#DejaVuSans-4d"/>
     <use x="2801.876953" xlink:href="#DejaVuSans-61"/>
     <use x="2863.15625" xlink:href="#DejaVuSans-72"/>
     <use x="2904.238281" xlink:href="#DejaVuSans-63"/>
     <use x="2959.21875" xlink:href="#DejaVuSans-68"/>
    </g>
   </g>
   <g id="legend_1">
    <g id="patch_55">
     <path d="M 674.625625 45.64 
L 678.625625 45.64 
Q 680.625625 45.64 680.625625 43.64 
L 680.625625 39.64 
Q 680.625625 37.64 678.625625 37.64 
L 674.625625 37.64 
Q 672.625625 37.64 672.625625 39.64 
L 672.625625 43.64 
Q 672.625625 45.64 674.625625 45.64 
z
" style="fill:#ffffff;opacity:0.8;stroke:#cccccc;stroke-linejoin:miter;"/>
    </g>
   </g>
  </g>
 </g>
 <defs>
  <clipPath id="pbf3cb56cd8">
   <rect height="204.94" width="637.185625" x="48.44" y="32.64"/>
  </clipPath>
 </defs>
</svg>
