<?xml version="1.0" encoding="utf-8" standalone="no"?>
<!DOCTYPE svg PUBLIC "-//W3C//DTD SVG 1.1//EN"
  "http://www.w3.org/Graphics/SVG/1.1/DTD/svg11.dtd">
<!-- Created with matplotlib (http://matplotlib.org/) -->
<svg height="345pt" version="1.1" viewBox="0 0 460 345" width="460pt" xmlns="http://www.w3.org/2000/svg" xmlns:xlink="http://www.w3.org/1999/xlink">
 <defs>
  <style type="text/css">
*{stroke-linecap:butt;stroke-linejoin:round;}
  </style>
 </defs>
 <g id="figure_1">
  <g id="patch_1">
   <path d="M 0 345.6 
L 460.8 345.6 
L 460.8 0 
L 0 0 
z
" style="fill:#ffffff;"/>
  </g>
  <g id="axes_1">
   <g id="patch_2">
    <path d="M 57.6 307.584 
L 414.72 307.584 
L 414.72 41.472 
L 57.6 41.472 
z
" style="fill:#ffffff;"/>
   </g>
   <g id="patch_3">
    <path clip-path="url(#p3cb6d44e0c)" d="M 59.46 307.584 
L 63.18 307.584 
L 63.18 149.828928 
L 59.46 149.828928 
z
" style="fill:#1f77b4;"/>
   </g>
   <g id="patch_4">
    <path clip-path="url(#p3cb6d44e0c)" d="M 66.9 307.584 
L 70.62 307.584 
L 70.62 146.859316 
L 66.9 146.859316 
z
" style="fill:#1f77b4;"/>
   </g>
   <g id="patch_5">
    <path clip-path="url(#p3cb6d44e0c)" d="M 74.34 307.584 
L 78.06 307.584 
L 78.06 139.431218 
L 74.34 139.431218 
z
" style="fill:#1f77b4;"/>
   </g>
   <g id="patch_6">
    <path clip-path="url(#p3cb6d44e0c)" d="M 81.78 307.584 
L 85.5 307.584 
L 85.5 134.92516 
L 81.78 134.92516 
z
" style="fill:#1f77b4;"/>
   </g>
   <g id="patch_7">
    <path clip-path="url(#p3cb6d44e0c)" d="M 89.22 307.584 
L 92.94 307.584 
L 92.94 133.347508 
L 89.22 133.347508 
z
" style="fill:#1f77b4;"/>
   </g>
   <g id="patch_8">
    <path clip-path="url(#p3cb6d44e0c)" d="M 96.66 307.584 
L 100.38 307.584 
L 100.38 127.960236 
L 96.66 127.960236 
z
" style="fill:#1f77b4;"/>
   </g>
   <g id="patch_9">
    <path clip-path="url(#p3cb6d44e0c)" d="M 104.1 307.584 
L 107.82 307.584 
L 107.82 126.28028 
L 104.1 126.28028 
z
" style="fill:#1f77b4;"/>
   </g>
   <g id="patch_10">
    <path clip-path="url(#p3cb6d44e0c)" d="M 111.54 307.584 
L 115.26 307.584 
L 115.26 126.199796 
L 111.54 126.199796 
z
" style="fill:#1f77b4;"/>
   </g>
   <g id="patch_11">
    <path clip-path="url(#p3cb6d44e0c)" d="M 118.98 307.584 
L 122.7 307.584 
L 122.7 125.839029 
L 118.98 125.839029 
z
" style="fill:#1f77b4;"/>
   </g>
   <g id="patch_12">
    <path clip-path="url(#p3cb6d44e0c)" d="M 126.42 307.584 
L 130.14 307.584 
L 130.14 123.467461 
L 126.42 123.467461 
z
" style="fill:#1f77b4;"/>
   </g>
   <g id="patch_13">
    <path clip-path="url(#p3cb6d44e0c)" d="M 133.86 307.584 
L 137.58 307.584 
L 137.58 121.637986 
L 133.86 121.637986 
z
" style="fill:#1f77b4;"/>
   </g>
   <g id="patch_14">
    <path clip-path="url(#p3cb6d44e0c)" d="M 141.3 307.584 
L 145.02 307.584 
L 145.02 119.813583 
L 141.3 119.813583 
z
" style="fill:#1f77b4;"/>
   </g>
   <g id="patch_15">
    <path clip-path="url(#p3cb6d44e0c)" d="M 148.74 307.584 
L 152.46 307.584 
L 152.46 115.467891 
L 148.74 115.467891 
z
" style="fill:#1f77b4;"/>
   </g>
   <g id="patch_16">
    <path clip-path="url(#p3cb6d44e0c)" d="M 156.18 307.584 
L 159.9 307.584 
L 159.9 114.551052 
L 156.18 114.551052 
z
" style="fill:#1f77b4;"/>
   </g>
   <g id="patch_17">
    <path clip-path="url(#p3cb6d44e0c)" d="M 163.62 307.584 
L 167.34 307.584 
L 167.34 113.889259 
L 163.62 113.889259 
z
" style="fill:#1f77b4;"/>
   </g>
   <g id="patch_18">
    <path clip-path="url(#p3cb6d44e0c)" d="M 171.06 307.584 
L 174.78 307.584 
L 174.78 109.507998 
L 171.06 109.507998 
z
" style="fill:#1f77b4;"/>
   </g>
   <g id="patch_19">
    <path clip-path="url(#p3cb6d44e0c)" d="M 178.5 307.584 
L 182.22 307.584 
L 182.22 108.93719 
L 178.5 108.93719 
z
" style="fill:#1f77b4;"/>
   </g>
   <g id="patch_20">
    <path clip-path="url(#p3cb6d44e0c)" d="M 185.94 307.584 
L 189.66 307.584 
L 189.66 100.840514 
L 185.94 100.840514 
z
" style="fill:#1f77b4;"/>
   </g>
   <g id="patch_21">
    <path clip-path="url(#p3cb6d44e0c)" d="M 193.38 307.584 
L 197.1 307.584 
L 197.1 98.723283 
L 193.38 98.723283 
z
" style="fill:#1f77b4;"/>
   </g>
   <g id="patch_22">
    <path clip-path="url(#p3cb6d44e0c)" d="M 200.82 307.584 
L 204.54 307.584 
L 204.54 97.663521 
L 200.82 97.663521 
z
" style="fill:#1f77b4;"/>
   </g>
   <g id="patch_23">
    <path clip-path="url(#p3cb6d44e0c)" d="M 208.26 307.584 
L 211.98 307.584 
L 211.98 97.652693 
L 208.26 97.652693 
z
" style="fill:#1f77b4;"/>
   </g>
   <g id="patch_24">
    <path clip-path="url(#p3cb6d44e0c)" d="M 215.7 307.584 
L 219.42 307.584 
L 219.42 97.538887 
L 215.7 97.538887 
z
" style="fill:#1f77b4;"/>
   </g>
   <g id="patch_25">
    <path clip-path="url(#p3cb6d44e0c)" d="M 223.14 307.584 
L 226.86 307.584 
L 226.86 97.232571 
L 223.14 97.232571 
z
" style="fill:#1f77b4;"/>
   </g>
   <g id="patch_26">
    <path clip-path="url(#p3cb6d44e0c)" d="M 230.58 307.584 
L 234.3 307.584 
L 234.3 96.755781 
L 230.58 96.755781 
z
" style="fill:#1f77b4;"/>
   </g>
   <g id="patch_27">
    <path clip-path="url(#p3cb6d44e0c)" d="M 238.02 307.584 
L 241.74 307.584 
L 241.74 95.368753 
L 238.02 95.368753 
z
" style="fill:#1f77b4;"/>
   </g>
   <g id="patch_28">
    <path clip-path="url(#p3cb6d44e0c)" d="M 245.46 307.584 
L 249.18 307.584 
L 249.18 93.841464 
L 245.46 93.841464 
z
" style="fill:#1f77b4;"/>
   </g>
   <g id="patch_29">
    <path clip-path="url(#p3cb6d44e0c)" d="M 252.9 307.584 
L 256.62 307.584 
L 256.62 92.464293 
L 252.9 92.464293 
z
" style="fill:#1f77b4;"/>
   </g>
   <g id="patch_30">
    <path clip-path="url(#p3cb6d44e0c)" d="M 260.34 307.584 
L 264.06 307.584 
L 264.06 91.149608 
L 260.34 91.149608 
z
" style="fill:#1f77b4;"/>
   </g>
   <g id="patch_31">
    <path clip-path="url(#p3cb6d44e0c)" d="M 267.78 307.584 
L 271.5 307.584 
L 271.5 90.609813 
L 267.78 90.609813 
z
" style="fill:#1f77b4;"/>
   </g>
   <g id="patch_32">
    <path clip-path="url(#p3cb6d44e0c)" d="M 275.22 307.584 
L 278.94 307.584 
L 278.94 90.553117 
L 275.22 90.553117 
z
" style="fill:#1f77b4;"/>
   </g>
   <g id="patch_33">
    <path clip-path="url(#p3cb6d44e0c)" d="M 282.66 307.584 
L 286.38 307.584 
L 286.38 88.495604 
L 282.66 88.495604 
z
" style="fill:#1f77b4;"/>
   </g>
   <g id="patch_34">
    <path clip-path="url(#p3cb6d44e0c)" d="M 290.1 307.584 
L 293.82 307.584 
L 293.82 88.086857 
L 290.1 88.086857 
z
" style="fill:#1f77b4;"/>
   </g>
   <g id="patch_35">
    <path clip-path="url(#p3cb6d44e0c)" d="M 297.54 307.584 
L 301.26 307.584 
L 301.26 86.860616 
L 297.54 86.860616 
z
" style="fill:#1f77b4;"/>
   </g>
   <g id="patch_36">
    <path clip-path="url(#p3cb6d44e0c)" d="M 304.98 307.584 
L 308.7 307.584 
L 308.7 85.325887 
L 304.98 85.325887 
z
" style="fill:#1f77b4;"/>
   </g>
   <g id="patch_37">
    <path clip-path="url(#p3cb6d44e0c)" d="M 312.42 307.584 
L 316.14 307.584 
L 316.14 81.932732 
L 312.42 81.932732 
z
" style="fill:#1f77b4;"/>
   </g>
   <g id="patch_38">
    <path clip-path="url(#p3cb6d44e0c)" d="M 319.86 307.584 
L 323.58 307.584 
L 323.58 81.498475 
L 319.86 81.498475 
z
" style="fill:#1f77b4;"/>
   </g>
   <g id="patch_39">
    <path clip-path="url(#p3cb6d44e0c)" d="M 327.3 307.584 
L 331.02 307.584 
L 331.02 78.891166 
L 327.3 78.891166 
z
" style="fill:#1f77b4;"/>
   </g>
   <g id="patch_40">
    <path clip-path="url(#p3cb6d44e0c)" d="M 334.74 307.584 
L 338.46 307.584 
L 338.46 71.338079 
L 334.74 71.338079 
z
" style="fill:#1f77b4;"/>
   </g>
   <g id="patch_41">
    <path clip-path="url(#p3cb6d44e0c)" d="M 342.18 307.584 
L 345.9 307.584 
L 345.9 70.871395 
L 342.18 70.871395 
z
" style="fill:#1f77b4;"/>
   </g>
   <g id="patch_42">
    <path clip-path="url(#p3cb6d44e0c)" d="M 349.62 307.584 
L 353.34 307.584 
L 353.34 70.666449 
L 349.62 70.666449 
z
" style="fill:#1f77b4;"/>
   </g>
   <g id="patch_43">
    <path clip-path="url(#p3cb6d44e0c)" d="M 357.06 307.584 
L 360.78 307.584 
L 360.78 67.338371 
L 357.06 67.338371 
z
" style="fill:#1f77b4;"/>
   </g>
   <g id="patch_44">
    <path clip-path="url(#p3cb6d44e0c)" d="M 364.5 307.584 
L 368.22 307.584 
L 368.22 66.699956 
L 364.5 66.699956 
z
" style="fill:#1f77b4;"/>
   </g>
   <g id="patch_45">
    <path clip-path="url(#p3cb6d44e0c)" d="M 371.94 307.584 
L 375.66 307.584 
L 375.66 64.385288 
L 371.94 64.385288 
z
" style="fill:#1f77b4;"/>
   </g>
   <g id="patch_46">
    <path clip-path="url(#p3cb6d44e0c)" d="M 379.38 307.584 
L 383.1 307.584 
L 383.1 61.554235 
L 379.38 61.554235 
z
" style="fill:#1f77b4;"/>
   </g>
   <g id="patch_47">
    <path clip-path="url(#p3cb6d44e0c)" d="M 386.82 307.584 
L 390.54 307.584 
L 390.54 61.447033 
L 386.82 61.447033 
z
" style="fill:#1f77b4;"/>
   </g>
   <g id="patch_48">
    <path clip-path="url(#p3cb6d44e0c)" d="M 394.26 307.584 
L 397.98 307.584 
L 397.98 59.456795 
L 394.26 59.456795 
z
" style="fill:#1f77b4;"/>
   </g>
   <g id="patch_49">
    <path clip-path="url(#p3cb6d44e0c)" d="M 401.7 307.584 
L 405.42 307.584 
L 405.42 57.785905 
L 401.7 57.785905 
z
" style="fill:#1f77b4;"/>
   </g>
   <g id="patch_50">
    <path clip-path="url(#p3cb6d44e0c)" d="M 409.14 307.584 
L 412.86 307.584 
L 412.86 54.144 
L 409.14 54.144 
z
" style="fill:#1f77b4;"/>
   </g>
   <g id="matplotlib.axis_1">
    <g id="xtick_1">
     <g id="line2d_1">
      <defs>
       <path d="M 0 0 
L 0 3.5 
" id="m5074a3b884" style="stroke:#000000;stroke-width:0.8;"/>
      </defs>
      <g>
       <use style="stroke:#000000;stroke-width:0.8;" x="61.32" xlink:href="#m5074a3b884" y="307.584"/>
      </g>
     </g>
     <g id="text_1">
      <!-- tecumseh -->
      <defs>
       <path d="M 18.3125 70.21875 
L 18.3125 54.6875 
L 36.8125 54.6875 
L 36.8125 47.703125 
L 18.3125 47.703125 
L 18.3125 18.015625 
Q 18.3125 11.328125 20.140625 9.421875 
Q 21.96875 7.515625 27.59375 7.515625 
L 36.8125 7.515625 
L 36.8125 0 
L 27.59375 0 
Q 17.1875 0 13.234375 3.875 
Q 9.28125 7.765625 9.28125 18.015625 
L 9.28125 47.703125 
L 2.6875 47.703125 
L 2.6875 54.6875 
L 9.28125 54.6875 
L 9.28125 70.21875 
z
" id="DejaVuSans-74"/>
       <path d="M 56.203125 29.59375 
L 56.203125 25.203125 
L 14.890625 25.203125 
Q 15.484375 15.921875 20.484375 11.0625 
Q 25.484375 6.203125 34.421875 6.203125 
Q 39.59375 6.203125 44.453125 7.46875 
Q 49.3125 8.734375 54.109375 11.28125 
L 54.109375 2.78125 
Q 49.265625 0.734375 44.1875 -0.34375 
Q 39.109375 -1.421875 33.890625 -1.421875 
Q 20.796875 -1.421875 13.15625 6.1875 
Q 5.515625 13.8125 5.515625 26.8125 
Q 5.515625 40.234375 12.765625 48.109375 
Q 20.015625 56 32.328125 56 
Q 43.359375 56 49.78125 48.890625 
Q 56.203125 41.796875 56.203125 29.59375 
z
M 47.21875 32.234375 
Q 47.125 39.59375 43.09375 43.984375 
Q 39.0625 48.390625 32.421875 48.390625 
Q 24.90625 48.390625 20.390625 44.140625 
Q 15.875 39.890625 15.1875 32.171875 
z
" id="DejaVuSans-65"/>
       <path d="M 48.78125 52.59375 
L 48.78125 44.1875 
Q 44.96875 46.296875 41.140625 47.34375 
Q 37.3125 48.390625 33.40625 48.390625 
Q 24.65625 48.390625 19.8125 42.84375 
Q 14.984375 37.3125 14.984375 27.296875 
Q 14.984375 17.28125 19.8125 11.734375 
Q 24.65625 6.203125 33.40625 6.203125 
Q 37.3125 6.203125 41.140625 7.25 
Q 44.96875 8.296875 48.78125 10.40625 
L 48.78125 2.09375 
Q 45.015625 0.34375 40.984375 -0.53125 
Q 36.96875 -1.421875 32.421875 -1.421875 
Q 20.0625 -1.421875 12.78125 6.34375 
Q 5.515625 14.109375 5.515625 27.296875 
Q 5.515625 40.671875 12.859375 48.328125 
Q 20.21875 56 33.015625 56 
Q 37.15625 56 41.109375 55.140625 
Q 45.0625 54.296875 48.78125 52.59375 
z
" id="DejaVuSans-63"/>
       <path d="M 8.5 21.578125 
L 8.5 54.6875 
L 17.484375 54.6875 
L 17.484375 21.921875 
Q 17.484375 14.15625 20.5 10.265625 
Q 23.53125 6.390625 29.59375 6.390625 
Q 36.859375 6.390625 41.078125 11.03125 
Q 45.3125 15.671875 45.3125 23.6875 
L 45.3125 54.6875 
L 54.296875 54.6875 
L 54.296875 0 
L 45.3125 0 
L 45.3125 8.40625 
Q 42.046875 3.421875 37.71875 1 
Q 33.40625 -1.421875 27.6875 -1.421875 
Q 18.265625 -1.421875 13.375 4.4375 
Q 8.5 10.296875 8.5 21.578125 
z
M 31.109375 56 
z
" id="DejaVuSans-75"/>
       <path d="M 52 44.1875 
Q 55.375 50.25 60.0625 53.125 
Q 64.75 56 71.09375 56 
Q 79.640625 56 84.28125 50.015625 
Q 88.921875 44.046875 88.921875 33.015625 
L 88.921875 0 
L 79.890625 0 
L 79.890625 32.71875 
Q 79.890625 40.578125 77.09375 44.375 
Q 74.3125 48.1875 68.609375 48.1875 
Q 61.625 48.1875 57.5625 43.546875 
Q 53.515625 38.921875 53.515625 30.90625 
L 53.515625 0 
L 44.484375 0 
L 44.484375 32.71875 
Q 44.484375 40.625 41.703125 44.40625 
Q 38.921875 48.1875 33.109375 48.1875 
Q 26.21875 48.1875 22.15625 43.53125 
Q 18.109375 38.875 18.109375 30.90625 
L 18.109375 0 
L 9.078125 0 
L 9.078125 54.6875 
L 18.109375 54.6875 
L 18.109375 46.1875 
Q 21.1875 51.21875 25.484375 53.609375 
Q 29.78125 56 35.6875 56 
Q 41.65625 56 45.828125 52.96875 
Q 50 49.953125 52 44.1875 
z
" id="DejaVuSans-6d"/>
       <path d="M 44.28125 53.078125 
L 44.28125 44.578125 
Q 40.484375 46.53125 36.375 47.5 
Q 32.28125 48.484375 27.875 48.484375 
Q 21.1875 48.484375 17.84375 46.4375 
Q 14.5 44.390625 14.5 40.28125 
Q 14.5 37.15625 16.890625 35.375 
Q 19.28125 33.59375 26.515625 31.984375 
L 29.59375 31.296875 
Q 39.15625 29.25 43.1875 25.515625 
Q 47.21875 21.78125 47.21875 15.09375 
Q 47.21875 7.46875 41.1875 3.015625 
Q 35.15625 -1.421875 24.609375 -1.421875 
Q 20.21875 -1.421875 15.453125 -0.5625 
Q 10.6875 0.296875 5.421875 2 
L 5.421875 11.28125 
Q 10.40625 8.6875 15.234375 7.390625 
Q 20.0625 6.109375 24.8125 6.109375 
Q 31.15625 6.109375 34.5625 8.28125 
Q 37.984375 10.453125 37.984375 14.40625 
Q 37.984375 18.0625 35.515625 20.015625 
Q 33.0625 21.96875 24.703125 23.78125 
L 21.578125 24.515625 
Q 13.234375 26.265625 9.515625 29.90625 
Q 5.8125 33.546875 5.8125 39.890625 
Q 5.8125 47.609375 11.28125 51.796875 
Q 16.75 56 26.8125 56 
Q 31.78125 56 36.171875 55.265625 
Q 40.578125 54.546875 44.28125 53.078125 
z
" id="DejaVuSans-73"/>
       <path d="M 54.890625 33.015625 
L 54.890625 0 
L 45.90625 0 
L 45.90625 32.71875 
Q 45.90625 40.484375 42.875 44.328125 
Q 39.84375 48.1875 33.796875 48.1875 
Q 26.515625 48.1875 22.3125 43.546875 
Q 18.109375 38.921875 18.109375 30.90625 
L 18.109375 0 
L 9.078125 0 
L 9.078125 75.984375 
L 18.109375 75.984375 
L 18.109375 46.1875 
Q 21.34375 51.125 25.703125 53.5625 
Q 30.078125 56 35.796875 56 
Q 45.21875 56 50.046875 50.171875 
Q 54.890625 44.34375 54.890625 33.015625 
z
" id="DejaVuSans-68"/>
      </defs>
      <g transform="translate(66.83875 413.284)rotate(-90)scale(0.2 -0.2)">
       <use xlink:href="#DejaVuSans-74"/>
       <use x="39.208984" xlink:href="#DejaVuSans-65"/>
       <use x="100.732422" xlink:href="#DejaVuSans-63"/>
       <use x="155.712891" xlink:href="#DejaVuSans-75"/>
       <use x="219.091797" xlink:href="#DejaVuSans-6d"/>
       <use x="316.503906" xlink:href="#DejaVuSans-73"/>
       <use x="368.603516" xlink:href="#DejaVuSans-65"/>
       <use x="430.126953" xlink:href="#DejaVuSans-68"/>
      </g>
     </g>
    </g>
    <g id="xtick_2">
     <g id="line2d_2">
      <g>
       <use style="stroke:#000000;stroke-width:0.8;" x="68.76" xlink:href="#m5074a3b884" y="307.584"/>
      </g>
     </g>
     <g id="text_2">
      <!-- lafayette -->
      <defs>
       <path d="M 9.421875 75.984375 
L 18.40625 75.984375 
L 18.40625 0 
L 9.421875 0 
z
" id="DejaVuSans-6c"/>
       <path d="M 34.28125 27.484375 
Q 23.390625 27.484375 19.1875 25 
Q 14.984375 22.515625 14.984375 16.5 
Q 14.984375 11.71875 18.140625 8.90625 
Q 21.296875 6.109375 26.703125 6.109375 
Q 34.1875 6.109375 38.703125 11.40625 
Q 43.21875 16.703125 43.21875 25.484375 
L 43.21875 27.484375 
z
M 52.203125 31.203125 
L 52.203125 0 
L 43.21875 0 
L 43.21875 8.296875 
Q 40.140625 3.328125 35.546875 0.953125 
Q 30.953125 -1.421875 24.3125 -1.421875 
Q 15.921875 -1.421875 10.953125 3.296875 
Q 6 8.015625 6 15.921875 
Q 6 25.140625 12.171875 29.828125 
Q 18.359375 34.515625 30.609375 34.515625 
L 43.21875 34.515625 
L 43.21875 35.40625 
Q 43.21875 41.609375 39.140625 45 
Q 35.0625 48.390625 27.6875 48.390625 
Q 23 48.390625 18.546875 47.265625 
Q 14.109375 46.140625 10.015625 43.890625 
L 10.015625 52.203125 
Q 14.9375 54.109375 19.578125 55.046875 
Q 24.21875 56 28.609375 56 
Q 40.484375 56 46.34375 49.84375 
Q 52.203125 43.703125 52.203125 31.203125 
z
" id="DejaVuSans-61"/>
       <path d="M 37.109375 75.984375 
L 37.109375 68.5 
L 28.515625 68.5 
Q 23.6875 68.5 21.796875 66.546875 
Q 19.921875 64.59375 19.921875 59.515625 
L 19.921875 54.6875 
L 34.71875 54.6875 
L 34.71875 47.703125 
L 19.921875 47.703125 
L 19.921875 0 
L 10.890625 0 
L 10.890625 47.703125 
L 2.296875 47.703125 
L 2.296875 54.6875 
L 10.890625 54.6875 
L 10.890625 58.5 
Q 10.890625 67.625 15.140625 71.796875 
Q 19.390625 75.984375 28.609375 75.984375 
z
" id="DejaVuSans-66"/>
       <path d="M 32.171875 -5.078125 
Q 28.375 -14.84375 24.75 -17.8125 
Q 21.140625 -20.796875 15.09375 -20.796875 
L 7.90625 -20.796875 
L 7.90625 -13.28125 
L 13.1875 -13.28125 
Q 16.890625 -13.28125 18.9375 -11.515625 
Q 21 -9.765625 23.484375 -3.21875 
L 25.09375 0.875 
L 2.984375 54.6875 
L 12.5 54.6875 
L 29.59375 11.921875 
L 46.6875 54.6875 
L 56.203125 54.6875 
z
" id="DejaVuSans-79"/>
      </defs>
      <g transform="translate(74.27875 403.824625)rotate(-90)scale(0.2 -0.2)">
       <use xlink:href="#DejaVuSans-6c"/>
       <use x="27.783203" xlink:href="#DejaVuSans-61"/>
       <use x="89.0625" xlink:href="#DejaVuSans-66"/>
       <use x="124.267578" xlink:href="#DejaVuSans-61"/>
       <use x="185.546875" xlink:href="#DejaVuSans-79"/>
       <use x="244.726562" xlink:href="#DejaVuSans-65"/>
       <use x="306.25" xlink:href="#DejaVuSans-74"/>
       <use x="345.458984" xlink:href="#DejaVuSans-74"/>
       <use x="384.667969" xlink:href="#DejaVuSans-65"/>
      </g>
     </g>
    </g>
    <g id="xtick_3">
     <g id="line2d_3">
      <g>
       <use style="stroke:#000000;stroke-width:0.8;" x="76.2" xlink:href="#m5074a3b884" y="307.584"/>
      </g>
     </g>
     <g id="text_3">
      <!-- lincoln -->
      <defs>
       <path d="M 9.421875 54.6875 
L 18.40625 54.6875 
L 18.40625 0 
L 9.421875 0 
z
M 9.421875 75.984375 
L 18.40625 75.984375 
L 18.40625 64.59375 
L 9.421875 64.59375 
z
" id="DejaVuSans-69"/>
       <path d="M 54.890625 33.015625 
L 54.890625 0 
L 45.90625 0 
L 45.90625 32.71875 
Q 45.90625 40.484375 42.875 44.328125 
Q 39.84375 48.1875 33.796875 48.1875 
Q 26.515625 48.1875 22.3125 43.546875 
Q 18.109375 38.921875 18.109375 30.90625 
L 18.109375 0 
L 9.078125 0 
L 9.078125 54.6875 
L 18.109375 54.6875 
L 18.109375 46.1875 
Q 21.34375 51.125 25.703125 53.5625 
Q 30.078125 56 35.796875 56 
Q 45.21875 56 50.046875 50.171875 
Q 54.890625 44.34375 54.890625 33.015625 
z
" id="DejaVuSans-6e"/>
       <path d="M 30.609375 48.390625 
Q 23.390625 48.390625 19.1875 42.75 
Q 14.984375 37.109375 14.984375 27.296875 
Q 14.984375 17.484375 19.15625 11.84375 
Q 23.34375 6.203125 30.609375 6.203125 
Q 37.796875 6.203125 41.984375 11.859375 
Q 46.1875 17.53125 46.1875 27.296875 
Q 46.1875 37.015625 41.984375 42.703125 
Q 37.796875 48.390625 30.609375 48.390625 
z
M 30.609375 56 
Q 42.328125 56 49.015625 48.375 
Q 55.71875 40.765625 55.71875 27.296875 
Q 55.71875 13.875 49.015625 6.21875 
Q 42.328125 -1.421875 30.609375 -1.421875 
Q 18.84375 -1.421875 12.171875 6.21875 
Q 5.515625 13.875 5.515625 27.296875 
Q 5.515625 40.765625 12.171875 48.375 
Q 18.84375 56 30.609375 56 
z
" id="DejaVuSans-6f"/>
      </defs>
      <g transform="translate(81.71875 379.837125)rotate(-90)scale(0.2 -0.2)">
       <use xlink:href="#DejaVuSans-6c"/>
       <use x="27.783203" xlink:href="#DejaVuSans-69"/>
       <use x="55.566406" xlink:href="#DejaVuSans-6e"/>
       <use x="118.945312" xlink:href="#DejaVuSans-63"/>
       <use x="173.925781" xlink:href="#DejaVuSans-6f"/>
       <use x="235.107422" xlink:href="#DejaVuSans-6c"/>
       <use x="262.890625" xlink:href="#DejaVuSans-6e"/>
      </g>
     </g>
    </g>
    <g id="xtick_4">
     <g id="line2d_4">
      <g>
       <use style="stroke:#000000;stroke-width:0.8;" x="83.64" xlink:href="#m5074a3b884" y="307.584"/>
      </g>
     </g>
     <g id="text_4">
      <!-- kinsman north -->
      <defs>
       <path d="M 9.078125 75.984375 
L 18.109375 75.984375 
L 18.109375 31.109375 
L 44.921875 54.6875 
L 56.390625 54.6875 
L 27.390625 29.109375 
L 57.625 0 
L 45.90625 0 
L 18.109375 26.703125 
L 18.109375 0 
L 9.078125 0 
z
" id="DejaVuSans-6b"/>
       <path id="DejaVuSans-20"/>
       <path d="M 41.109375 46.296875 
Q 39.59375 47.171875 37.8125 47.578125 
Q 36.03125 48 33.890625 48 
Q 26.265625 48 22.1875 43.046875 
Q 18.109375 38.09375 18.109375 28.8125 
L 18.109375 0 
L 9.078125 0 
L 9.078125 54.6875 
L 18.109375 54.6875 
L 18.109375 46.1875 
Q 20.953125 51.171875 25.484375 53.578125 
Q 30.03125 56 36.53125 56 
Q 37.453125 56 38.578125 55.875 
Q 39.703125 55.765625 41.0625 55.515625 
z
" id="DejaVuSans-72"/>
      </defs>
      <g transform="translate(89.15875 459.234)rotate(-90)scale(0.2 -0.2)">
       <use xlink:href="#DejaVuSans-6b"/>
       <use x="57.910156" xlink:href="#DejaVuSans-69"/>
       <use x="85.693359" xlink:href="#DejaVuSans-6e"/>
       <use x="149.072266" xlink:href="#DejaVuSans-73"/>
       <use x="201.171875" xlink:href="#DejaVuSans-6d"/>
       <use x="298.583984" xlink:href="#DejaVuSans-61"/>
       <use x="359.863281" xlink:href="#DejaVuSans-6e"/>
       <use x="423.242188" xlink:href="#DejaVuSans-20"/>
       <use x="455.029297" xlink:href="#DejaVuSans-6e"/>
       <use x="518.408203" xlink:href="#DejaVuSans-6f"/>
       <use x="579.589844" xlink:href="#DejaVuSans-72"/>
       <use x="620.703125" xlink:href="#DejaVuSans-74"/>
       <use x="659.912109" xlink:href="#DejaVuSans-68"/>
      </g>
     </g>
    </g>
    <g id="xtick_5">
     <g id="line2d_5">
      <g>
       <use style="stroke:#000000;stroke-width:0.8;" x="91.08" xlink:href="#m5074a3b884" y="307.584"/>
      </g>
     </g>
     <g id="text_5">
      <!-- kinsman south -->
      <g transform="translate(96.59875 461.430875)rotate(-90)scale(0.2 -0.2)">
       <use xlink:href="#DejaVuSans-6b"/>
       <use x="57.910156" xlink:href="#DejaVuSans-69"/>
       <use x="85.693359" xlink:href="#DejaVuSans-6e"/>
       <use x="149.072266" xlink:href="#DejaVuSans-73"/>
       <use x="201.171875" xlink:href="#DejaVuSans-6d"/>
       <use x="298.583984" xlink:href="#DejaVuSans-61"/>
       <use x="359.863281" xlink:href="#DejaVuSans-6e"/>
       <use x="423.242188" xlink:href="#DejaVuSans-20"/>
       <use x="455.029297" xlink:href="#DejaVuSans-73"/>
       <use x="507.128906" xlink:href="#DejaVuSans-6f"/>
       <use x="568.310547" xlink:href="#DejaVuSans-75"/>
       <use x="631.689453" xlink:href="#DejaVuSans-74"/>
       <use x="670.898438" xlink:href="#DejaVuSans-68"/>
      </g>
     </g>
    </g>
    <g id="xtick_6">
     <g id="line2d_6">
      <g>
       <use style="stroke:#000000;stroke-width:0.8;" x="98.52" xlink:href="#m5074a3b884" y="307.584"/>
      </g>
     </g>
     <g id="text_6">
      <!-- osceola east -->
      <g transform="translate(104.03875 439.7715)rotate(-90)scale(0.2 -0.2)">
       <use xlink:href="#DejaVuSans-6f"/>
       <use x="61.181641" xlink:href="#DejaVuSans-73"/>
       <use x="113.28125" xlink:href="#DejaVuSans-63"/>
       <use x="168.261719" xlink:href="#DejaVuSans-65"/>
       <use x="229.785156" xlink:href="#DejaVuSans-6f"/>
       <use x="290.966797" xlink:href="#DejaVuSans-6c"/>
       <use x="318.75" xlink:href="#DejaVuSans-61"/>
       <use x="380.029297" xlink:href="#DejaVuSans-20"/>
       <use x="411.816406" xlink:href="#DejaVuSans-65"/>
       <use x="473.339844" xlink:href="#DejaVuSans-61"/>
       <use x="534.619141" xlink:href="#DejaVuSans-73"/>
       <use x="586.71875" xlink:href="#DejaVuSans-74"/>
      </g>
     </g>
    </g>
    <g id="xtick_7">
     <g id="line2d_7">
      <g>
       <use style="stroke:#000000;stroke-width:0.8;" x="105.96" xlink:href="#m5074a3b884" y="307.584"/>
      </g>
     </g>
     <g id="text_7">
      <!-- moosilauke -->
      <g transform="translate(111.47875 428.880875)rotate(-90)scale(0.2 -0.2)">
       <use xlink:href="#DejaVuSans-6d"/>
       <use x="97.412109" xlink:href="#DejaVuSans-6f"/>
       <use x="158.59375" xlink:href="#DejaVuSans-6f"/>
       <use x="219.775391" xlink:href="#DejaVuSans-73"/>
       <use x="271.875" xlink:href="#DejaVuSans-69"/>
       <use x="299.658203" xlink:href="#DejaVuSans-6c"/>
       <use x="327.441406" xlink:href="#DejaVuSans-61"/>
       <use x="388.720703" xlink:href="#DejaVuSans-75"/>
       <use x="452.099609" xlink:href="#DejaVuSans-6b"/>
       <use x="509.962891" xlink:href="#DejaVuSans-65"/>
      </g>
     </g>
    </g>
    <g id="xtick_8">
     <g id="line2d_8">
      <g>
       <use style="stroke:#000000;stroke-width:0.8;" x="113.4" xlink:href="#m5074a3b884" y="307.584"/>
      </g>
     </g>
     <g id="text_8">
      <!-- cannon -->
      <g transform="translate(118.91875 388.099625)rotate(-90)scale(0.2 -0.2)">
       <use xlink:href="#DejaVuSans-63"/>
       <use x="54.980469" xlink:href="#DejaVuSans-61"/>
       <use x="116.259766" xlink:href="#DejaVuSans-6e"/>
       <use x="179.638672" xlink:href="#DejaVuSans-6e"/>
       <use x="243.017578" xlink:href="#DejaVuSans-6f"/>
       <use x="304.199219" xlink:href="#DejaVuSans-6e"/>
      </g>
     </g>
    </g>
    <g id="xtick_9">
     <g id="line2d_9">
      <g>
       <use style="stroke:#000000;stroke-width:0.8;" x="120.84" xlink:href="#m5074a3b884" y="307.584"/>
      </g>
     </g>
     <g id="text_9">
      <!-- waumbek -->
      <defs>
       <path d="M 4.203125 54.6875 
L 13.1875 54.6875 
L 24.421875 12.015625 
L 35.59375 54.6875 
L 46.1875 54.6875 
L 57.421875 12.015625 
L 68.609375 54.6875 
L 77.59375 54.6875 
L 63.28125 0 
L 52.6875 0 
L 40.921875 44.828125 
L 29.109375 0 
L 18.5 0 
z
" id="DejaVuSans-77"/>
       <path d="M 48.6875 27.296875 
Q 48.6875 37.203125 44.609375 42.84375 
Q 40.53125 48.484375 33.40625 48.484375 
Q 26.265625 48.484375 22.1875 42.84375 
Q 18.109375 37.203125 18.109375 27.296875 
Q 18.109375 17.390625 22.1875 11.75 
Q 26.265625 6.109375 33.40625 6.109375 
Q 40.53125 6.109375 44.609375 11.75 
Q 48.6875 17.390625 48.6875 27.296875 
z
M 18.109375 46.390625 
Q 20.953125 51.265625 25.265625 53.625 
Q 29.59375 56 35.59375 56 
Q 45.5625 56 51.78125 48.09375 
Q 58.015625 40.1875 58.015625 27.296875 
Q 58.015625 14.40625 51.78125 6.484375 
Q 45.5625 -1.421875 35.59375 -1.421875 
Q 29.59375 -1.421875 25.265625 0.953125 
Q 20.953125 3.328125 18.109375 8.203125 
L 18.109375 0 
L 9.078125 0 
L 9.078125 75.984375 
L 18.109375 75.984375 
z
" id="DejaVuSans-62"/>
      </defs>
      <g transform="translate(126.35875 411.937125)rotate(-90)scale(0.2 -0.2)">
       <use xlink:href="#DejaVuSans-77"/>
       <use x="81.787109" xlink:href="#DejaVuSans-61"/>
       <use x="143.066406" xlink:href="#DejaVuSans-75"/>
       <use x="206.445312" xlink:href="#DejaVuSans-6d"/>
       <use x="303.857422" xlink:href="#DejaVuSans-62"/>
       <use x="367.333984" xlink:href="#DejaVuSans-65"/>
       <use x="428.857422" xlink:href="#DejaVuSans-6b"/>
      </g>
     </g>
    </g>
    <g id="xtick_10">
     <g id="line2d_10">
      <g>
       <use style="stroke:#000000;stroke-width:0.8;" x="128.28" xlink:href="#m5074a3b884" y="307.584"/>
      </g>
     </g>
     <g id="text_10">
      <!-- washington -->
      <defs>
       <path d="M 45.40625 27.984375 
Q 45.40625 37.75 41.375 43.109375 
Q 37.359375 48.484375 30.078125 48.484375 
Q 22.859375 48.484375 18.828125 43.109375 
Q 14.796875 37.75 14.796875 27.984375 
Q 14.796875 18.265625 18.828125 12.890625 
Q 22.859375 7.515625 30.078125 7.515625 
Q 37.359375 7.515625 41.375 12.890625 
Q 45.40625 18.265625 45.40625 27.984375 
z
M 54.390625 6.78125 
Q 54.390625 -7.171875 48.1875 -13.984375 
Q 42 -20.796875 29.203125 -20.796875 
Q 24.46875 -20.796875 20.265625 -20.09375 
Q 16.0625 -19.390625 12.109375 -17.921875 
L 12.109375 -9.1875 
Q 16.0625 -11.328125 19.921875 -12.34375 
Q 23.78125 -13.375 27.78125 -13.375 
Q 36.625 -13.375 41.015625 -8.765625 
Q 45.40625 -4.15625 45.40625 5.171875 
L 45.40625 9.625 
Q 42.625 4.78125 38.28125 2.390625 
Q 33.9375 0 27.875 0 
Q 17.828125 0 11.671875 7.65625 
Q 5.515625 15.328125 5.515625 27.984375 
Q 5.515625 40.671875 11.671875 48.328125 
Q 17.828125 56 27.875 56 
Q 33.9375 56 38.28125 53.609375 
Q 42.625 51.21875 45.40625 46.390625 
L 45.40625 54.6875 
L 54.390625 54.6875 
z
" id="DejaVuSans-67"/>
      </defs>
      <g transform="translate(133.79875 429.9715)rotate(-90)scale(0.2 -0.2)">
       <use xlink:href="#DejaVuSans-77"/>
       <use x="81.787109" xlink:href="#DejaVuSans-61"/>
       <use x="143.066406" xlink:href="#DejaVuSans-73"/>
       <use x="195.166016" xlink:href="#DejaVuSans-68"/>
       <use x="258.544922" xlink:href="#DejaVuSans-69"/>
       <use x="286.328125" xlink:href="#DejaVuSans-6e"/>
       <use x="349.707031" xlink:href="#DejaVuSans-67"/>
       <use x="413.183594" xlink:href="#DejaVuSans-74"/>
       <use x="452.392578" xlink:href="#DejaVuSans-6f"/>
       <use x="513.574219" xlink:href="#DejaVuSans-6e"/>
      </g>
     </g>
    </g>
    <g id="xtick_11">
     <g id="line2d_11">
      <g>
       <use style="stroke:#000000;stroke-width:0.8;" x="135.72" xlink:href="#m5074a3b884" y="307.584"/>
      </g>
     </g>
     <g id="text_11">
      <!-- osceola -->
      <g transform="translate(141.23875 390.593375)rotate(-90)scale(0.2 -0.2)">
       <use xlink:href="#DejaVuSans-6f"/>
       <use x="61.181641" xlink:href="#DejaVuSans-73"/>
       <use x="113.28125" xlink:href="#DejaVuSans-63"/>
       <use x="168.261719" xlink:href="#DejaVuSans-65"/>
       <use x="229.785156" xlink:href="#DejaVuSans-6f"/>
       <use x="290.966797" xlink:href="#DejaVuSans-6c"/>
       <use x="318.75" xlink:href="#DejaVuSans-61"/>
      </g>
     </g>
    </g>
    <g id="xtick_12">
     <g id="line2d_12">
      <g>
       <use style="stroke:#000000;stroke-width:0.8;" x="143.16" xlink:href="#m5074a3b884" y="307.584"/>
      </g>
     </g>
     <g id="text_12">
      <!-- moriah -->
      <g transform="translate(148.67875 385.012125)rotate(-90)scale(0.2 -0.2)">
       <use xlink:href="#DejaVuSans-6d"/>
       <use x="97.412109" xlink:href="#DejaVuSans-6f"/>
       <use x="158.59375" xlink:href="#DejaVuSans-72"/>
       <use x="199.707031" xlink:href="#DejaVuSans-69"/>
       <use x="227.490234" xlink:href="#DejaVuSans-61"/>
       <use x="288.769531" xlink:href="#DejaVuSans-68"/>
      </g>
     </g>
    </g>
    <g id="xtick_13">
     <g id="line2d_13">
      <g>
       <use style="stroke:#000000;stroke-width:0.8;" x="150.6" xlink:href="#m5074a3b884" y="307.584"/>
      </g>
     </g>
     <g id="text_13">
      <!-- pierce -->
      <defs>
       <path d="M 18.109375 8.203125 
L 18.109375 -20.796875 
L 9.078125 -20.796875 
L 9.078125 54.6875 
L 18.109375 54.6875 
L 18.109375 46.390625 
Q 20.953125 51.265625 25.265625 53.625 
Q 29.59375 56 35.59375 56 
Q 45.5625 56 51.78125 48.09375 
Q 58.015625 40.1875 58.015625 27.296875 
Q 58.015625 14.40625 51.78125 6.484375 
Q 45.5625 -1.421875 35.59375 -1.421875 
Q 29.59375 -1.421875 25.265625 0.953125 
Q 20.953125 3.328125 18.109375 8.203125 
z
M 48.6875 27.296875 
Q 48.6875 37.203125 44.609375 42.84375 
Q 40.53125 48.484375 33.40625 48.484375 
Q 26.265625 48.484375 22.1875 42.84375 
Q 18.109375 37.203125 18.109375 27.296875 
Q 18.109375 17.390625 22.1875 11.75 
Q 26.265625 6.109375 33.40625 6.109375 
Q 40.53125 6.109375 44.609375 11.75 
Q 48.6875 17.390625 48.6875 27.296875 
z
" id="DejaVuSans-70"/>
      </defs>
      <g transform="translate(156.11875 376.662125)rotate(-90)scale(0.2 -0.2)">
       <use xlink:href="#DejaVuSans-70"/>
       <use x="63.476562" xlink:href="#DejaVuSans-69"/>
       <use x="91.259766" xlink:href="#DejaVuSans-65"/>
       <use x="152.783203" xlink:href="#DejaVuSans-72"/>
       <use x="193.865234" xlink:href="#DejaVuSans-63"/>
       <use x="248.845703" xlink:href="#DejaVuSans-65"/>
      </g>
     </g>
    </g>
    <g id="xtick_14">
     <g id="line2d_14">
      <g>
       <use style="stroke:#000000;stroke-width:0.8;" x="158.04" xlink:href="#m5074a3b884" y="307.584"/>
      </g>
     </g>
     <g id="text_14">
      <!-- jackson -->
      <defs>
       <path d="M 9.421875 54.6875 
L 18.40625 54.6875 
L 18.40625 -0.984375 
Q 18.40625 -11.421875 14.421875 -16.109375 
Q 10.453125 -20.796875 1.609375 -20.796875 
L -1.8125 -20.796875 
L -1.8125 -13.1875 
L 0.59375 -13.1875 
Q 5.71875 -13.1875 7.5625 -10.8125 
Q 9.421875 -8.453125 9.421875 -0.984375 
z
M 9.421875 75.984375 
L 18.40625 75.984375 
L 18.40625 64.59375 
L 9.421875 64.59375 
z
" id="DejaVuSans-6a"/>
      </defs>
      <g transform="translate(163.55875 390.305875)rotate(-90)scale(0.2 -0.2)">
       <use xlink:href="#DejaVuSans-6a"/>
       <use x="27.783203" xlink:href="#DejaVuSans-61"/>
       <use x="89.0625" xlink:href="#DejaVuSans-63"/>
       <use x="144.042969" xlink:href="#DejaVuSans-6b"/>
       <use x="201.953125" xlink:href="#DejaVuSans-73"/>
       <use x="254.052734" xlink:href="#DejaVuSans-6f"/>
       <use x="315.234375" xlink:href="#DejaVuSans-6e"/>
      </g>
     </g>
    </g>
    <g id="xtick_15">
     <g id="line2d_15">
      <g>
       <use style="stroke:#000000;stroke-width:0.8;" x="165.48" xlink:href="#m5074a3b884" y="307.584"/>
      </g>
     </g>
     <g id="text_15">
      <!-- madison -->
      <defs>
       <path d="M 45.40625 46.390625 
L 45.40625 75.984375 
L 54.390625 75.984375 
L 54.390625 0 
L 45.40625 0 
L 45.40625 8.203125 
Q 42.578125 3.328125 38.25 0.953125 
Q 33.9375 -1.421875 27.875 -1.421875 
Q 17.96875 -1.421875 11.734375 6.484375 
Q 5.515625 14.40625 5.515625 27.296875 
Q 5.515625 40.1875 11.734375 48.09375 
Q 17.96875 56 27.875 56 
Q 33.9375 56 38.25 53.625 
Q 42.578125 51.265625 45.40625 46.390625 
z
M 14.796875 27.296875 
Q 14.796875 17.390625 18.875 11.75 
Q 22.953125 6.109375 30.078125 6.109375 
Q 37.203125 6.109375 41.296875 11.75 
Q 45.40625 17.390625 45.40625 27.296875 
Q 45.40625 37.203125 41.296875 42.84375 
Q 37.203125 48.484375 30.078125 48.484375 
Q 22.953125 48.484375 18.875 42.84375 
Q 14.796875 37.203125 14.796875 27.296875 
z
" id="DejaVuSans-64"/>
      </defs>
      <g transform="translate(170.99875 399.905875)rotate(-90)scale(0.2 -0.2)">
       <use xlink:href="#DejaVuSans-6d"/>
       <use x="97.412109" xlink:href="#DejaVuSans-61"/>
       <use x="158.691406" xlink:href="#DejaVuSans-64"/>
       <use x="222.167969" xlink:href="#DejaVuSans-69"/>
       <use x="249.951172" xlink:href="#DejaVuSans-73"/>
       <use x="302.050781" xlink:href="#DejaVuSans-6f"/>
       <use x="363.232422" xlink:href="#DejaVuSans-6e"/>
      </g>
     </g>
    </g>
    <g id="xtick_16">
     <g id="line2d_16">
      <g>
       <use style="stroke:#000000;stroke-width:0.8;" x="172.92" xlink:href="#m5074a3b884" y="307.584"/>
      </g>
     </g>
     <g id="text_16">
      <!-- liberty -->
      <g transform="translate(178.43875 378.599625)rotate(-90)scale(0.2 -0.2)">
       <use xlink:href="#DejaVuSans-6c"/>
       <use x="27.783203" xlink:href="#DejaVuSans-69"/>
       <use x="55.566406" xlink:href="#DejaVuSans-62"/>
       <use x="119.042969" xlink:href="#DejaVuSans-65"/>
       <use x="180.566406" xlink:href="#DejaVuSans-72"/>
       <use x="221.679688" xlink:href="#DejaVuSans-74"/>
       <use x="260.888672" xlink:href="#DejaVuSans-79"/>
      </g>
     </g>
    </g>
    <g id="xtick_17">
     <g id="line2d_17">
      <g>
       <use style="stroke:#000000;stroke-width:0.8;" x="180.36" xlink:href="#m5074a3b884" y="307.584"/>
      </g>
     </g>
     <g id="text_17">
      <!-- adams -->
      <g transform="translate(185.87875 381.693375)rotate(-90)scale(0.2 -0.2)">
       <use xlink:href="#DejaVuSans-61"/>
       <use x="61.279297" xlink:href="#DejaVuSans-64"/>
       <use x="124.755859" xlink:href="#DejaVuSans-61"/>
       <use x="186.035156" xlink:href="#DejaVuSans-6d"/>
       <use x="283.447266" xlink:href="#DejaVuSans-73"/>
      </g>
     </g>
    </g>
    <g id="xtick_18">
     <g id="line2d_18">
      <g>
       <use style="stroke:#000000;stroke-width:0.8;" x="187.8" xlink:href="#m5074a3b884" y="307.584"/>
      </g>
     </g>
     <g id="text_18">
      <!-- flume -->
      <g transform="translate(193.31875 371.643375)rotate(-90)scale(0.2 -0.2)">
       <use xlink:href="#DejaVuSans-66"/>
       <use x="35.205078" xlink:href="#DejaVuSans-6c"/>
       <use x="62.988281" xlink:href="#DejaVuSans-75"/>
       <use x="126.367188" xlink:href="#DejaVuSans-6d"/>
       <use x="223.779297" xlink:href="#DejaVuSans-65"/>
      </g>
     </g>
    </g>
    <g id="xtick_19">
     <g id="line2d_19">
      <g>
       <use style="stroke:#000000;stroke-width:0.8;" x="195.24" xlink:href="#m5074a3b884" y="307.584"/>
      </g>
     </g>
     <g id="text_19">
      <!-- eisenhower -->
      <g transform="translate(200.75875 429.643375)rotate(-90)scale(0.2 -0.2)">
       <use xlink:href="#DejaVuSans-65"/>
       <use x="61.523438" xlink:href="#DejaVuSans-69"/>
       <use x="89.306641" xlink:href="#DejaVuSans-73"/>
       <use x="141.40625" xlink:href="#DejaVuSans-65"/>
       <use x="202.929688" xlink:href="#DejaVuSans-6e"/>
       <use x="266.308594" xlink:href="#DejaVuSans-68"/>
       <use x="329.6875" xlink:href="#DejaVuSans-6f"/>
       <use x="390.869141" xlink:href="#DejaVuSans-77"/>
       <use x="472.65625" xlink:href="#DejaVuSans-65"/>
       <use x="534.179688" xlink:href="#DejaVuSans-72"/>
      </g>
     </g>
    </g>
    <g id="xtick_20">
     <g id="line2d_20">
      <g>
       <use style="stroke:#000000;stroke-width:0.8;" x="202.68" xlink:href="#m5074a3b884" y="307.584"/>
      </g>
     </g>
     <g id="text_20">
      <!-- garfield -->
      <g transform="translate(208.19875 390.91525)rotate(-90)scale(0.2 -0.2)">
       <use xlink:href="#DejaVuSans-67"/>
       <use x="63.476562" xlink:href="#DejaVuSans-61"/>
       <use x="124.755859" xlink:href="#DejaVuSans-72"/>
       <use x="165.869141" xlink:href="#DejaVuSans-66"/>
       <use x="201.074219" xlink:href="#DejaVuSans-69"/>
       <use x="228.857422" xlink:href="#DejaVuSans-65"/>
       <use x="290.380859" xlink:href="#DejaVuSans-6c"/>
       <use x="318.164062" xlink:href="#DejaVuSans-64"/>
      </g>
     </g>
    </g>
    <g id="xtick_21">
     <g id="line2d_21">
      <g>
       <use style="stroke:#000000;stroke-width:0.8;" x="210.12" xlink:href="#m5074a3b884" y="307.584"/>
      </g>
     </g>
     <g id="text_21">
      <!-- field -->
      <g transform="translate(215.63875 357.74025)rotate(-90)scale(0.2 -0.2)">
       <use xlink:href="#DejaVuSans-66"/>
       <use x="35.205078" xlink:href="#DejaVuSans-69"/>
       <use x="62.988281" xlink:href="#DejaVuSans-65"/>
       <use x="124.511719" xlink:href="#DejaVuSans-6c"/>
       <use x="152.294922" xlink:href="#DejaVuSans-64"/>
      </g>
     </g>
    </g>
    <g id="xtick_22">
     <g id="line2d_22">
      <g>
       <use style="stroke:#000000;stroke-width:0.8;" x="217.56" xlink:href="#m5074a3b884" y="307.584"/>
      </g>
     </g>
     <g id="text_22">
      <!-- tom -->
      <g transform="translate(223.07875 354.143375)rotate(-90)scale(0.2 -0.2)">
       <use xlink:href="#DejaVuSans-74"/>
       <use x="39.208984" xlink:href="#DejaVuSans-6f"/>
       <use x="100.390625" xlink:href="#DejaVuSans-6d"/>
      </g>
     </g>
    </g>
    <g id="xtick_23">
     <g id="line2d_23">
      <g>
       <use style="stroke:#000000;stroke-width:0.8;" x="225" xlink:href="#m5074a3b884" y="307.584"/>
      </g>
     </g>
     <g id="text_23">
      <!-- jefferson -->
      <g transform="translate(230.51875 402.387125)rotate(-90)scale(0.2 -0.2)">
       <use xlink:href="#DejaVuSans-6a"/>
       <use x="27.783203" xlink:href="#DejaVuSans-65"/>
       <use x="89.306641" xlink:href="#DejaVuSans-66"/>
       <use x="124.511719" xlink:href="#DejaVuSans-66"/>
       <use x="159.716797" xlink:href="#DejaVuSans-65"/>
       <use x="221.240234" xlink:href="#DejaVuSans-72"/>
       <use x="262.353516" xlink:href="#DejaVuSans-73"/>
       <use x="314.453125" xlink:href="#DejaVuSans-6f"/>
       <use x="375.634766" xlink:href="#DejaVuSans-6e"/>
      </g>
     </g>
    </g>
    <g id="xtick_24">
     <g id="line2d_24">
      <g>
       <use style="stroke:#000000;stroke-width:0.8;" x="232.44" xlink:href="#m5074a3b884" y="307.584"/>
      </g>
     </g>
     <g id="text_24">
      <!-- hancock south -->
      <g transform="translate(237.95875 460.205875)rotate(-90)scale(0.2 -0.2)">
       <use xlink:href="#DejaVuSans-68"/>
       <use x="63.378906" xlink:href="#DejaVuSans-61"/>
       <use x="124.658203" xlink:href="#DejaVuSans-6e"/>
       <use x="188.037109" xlink:href="#DejaVuSans-63"/>
       <use x="243.017578" xlink:href="#DejaVuSans-6f"/>
       <use x="304.199219" xlink:href="#DejaVuSans-63"/>
       <use x="359.179688" xlink:href="#DejaVuSans-6b"/>
       <use x="417.089844" xlink:href="#DejaVuSans-20"/>
       <use x="448.876953" xlink:href="#DejaVuSans-73"/>
       <use x="500.976562" xlink:href="#DejaVuSans-6f"/>
       <use x="562.158203" xlink:href="#DejaVuSans-75"/>
       <use x="625.537109" xlink:href="#DejaVuSans-74"/>
       <use x="664.746094" xlink:href="#DejaVuSans-68"/>
      </g>
     </g>
    </g>
    <g id="xtick_25">
     <g id="line2d_25">
      <g>
       <use style="stroke:#000000;stroke-width:0.8;" x="239.88" xlink:href="#m5074a3b884" y="307.584"/>
      </g>
     </g>
     <g id="text_25">
      <!-- hancock north -->
      <g transform="translate(245.39875 458.009)rotate(-90)scale(0.2 -0.2)">
       <use xlink:href="#DejaVuSans-68"/>
       <use x="63.378906" xlink:href="#DejaVuSans-61"/>
       <use x="124.658203" xlink:href="#DejaVuSans-6e"/>
       <use x="188.037109" xlink:href="#DejaVuSans-63"/>
       <use x="243.017578" xlink:href="#DejaVuSans-6f"/>
       <use x="304.199219" xlink:href="#DejaVuSans-63"/>
       <use x="359.179688" xlink:href="#DejaVuSans-6b"/>
       <use x="417.089844" xlink:href="#DejaVuSans-20"/>
       <use x="448.876953" xlink:href="#DejaVuSans-6e"/>
       <use x="512.255859" xlink:href="#DejaVuSans-6f"/>
       <use x="573.4375" xlink:href="#DejaVuSans-72"/>
       <use x="614.550781" xlink:href="#DejaVuSans-74"/>
       <use x="653.759766" xlink:href="#DejaVuSans-68"/>
      </g>
     </g>
    </g>
    <g id="xtick_26">
     <g id="line2d_26">
      <g>
       <use style="stroke:#000000;stroke-width:0.8;" x="247.32" xlink:href="#m5074a3b884" y="307.584"/>
      </g>
     </g>
     <g id="text_26">
      <!-- willey -->
      <g transform="translate(252.83875 371.75275)rotate(-90)scale(0.2 -0.2)">
       <use xlink:href="#DejaVuSans-77"/>
       <use x="81.787109" xlink:href="#DejaVuSans-69"/>
       <use x="109.570312" xlink:href="#DejaVuSans-6c"/>
       <use x="137.353516" xlink:href="#DejaVuSans-6c"/>
       <use x="165.136719" xlink:href="#DejaVuSans-65"/>
       <use x="226.660156" xlink:href="#DejaVuSans-79"/>
      </g>
     </g>
    </g>
    <g id="xtick_27">
     <g id="line2d_27">
      <g>
       <use style="stroke:#000000;stroke-width:0.8;" x="254.76" xlink:href="#m5074a3b884" y="307.584"/>
      </g>
     </g>
     <g id="text_27">
      <!-- whiteface -->
      <g transform="translate(260.27875 411.918375)rotate(-90)scale(0.2 -0.2)">
       <use xlink:href="#DejaVuSans-77"/>
       <use x="81.787109" xlink:href="#DejaVuSans-68"/>
       <use x="145.166016" xlink:href="#DejaVuSans-69"/>
       <use x="172.949219" xlink:href="#DejaVuSans-74"/>
       <use x="212.158203" xlink:href="#DejaVuSans-65"/>
       <use x="273.681641" xlink:href="#DejaVuSans-66"/>
       <use x="308.886719" xlink:href="#DejaVuSans-61"/>
       <use x="370.166016" xlink:href="#DejaVuSans-63"/>
       <use x="425.146484" xlink:href="#DejaVuSans-65"/>
      </g>
     </g>
    </g>
    <g id="xtick_28">
     <g id="line2d_28">
      <g>
       <use style="stroke:#000000;stroke-width:0.8;" x="262.2" xlink:href="#m5074a3b884" y="307.584"/>
      </g>
     </g>
     <g id="text_28">
      <!-- tripyramid middle -->
      <g transform="translate(267.71875 493.599625)rotate(-90)scale(0.2 -0.2)">
       <use xlink:href="#DejaVuSans-74"/>
       <use x="39.208984" xlink:href="#DejaVuSans-72"/>
       <use x="80.322266" xlink:href="#DejaVuSans-69"/>
       <use x="108.105469" xlink:href="#DejaVuSans-70"/>
       <use x="171.582031" xlink:href="#DejaVuSans-79"/>
       <use x="230.761719" xlink:href="#DejaVuSans-72"/>
       <use x="271.875" xlink:href="#DejaVuSans-61"/>
       <use x="333.154297" xlink:href="#DejaVuSans-6d"/>
       <use x="430.566406" xlink:href="#DejaVuSans-69"/>
       <use x="458.349609" xlink:href="#DejaVuSans-64"/>
       <use x="521.826172" xlink:href="#DejaVuSans-20"/>
       <use x="553.613281" xlink:href="#DejaVuSans-6d"/>
       <use x="651.025391" xlink:href="#DejaVuSans-69"/>
       <use x="678.808594" xlink:href="#DejaVuSans-64"/>
       <use x="742.285156" xlink:href="#DejaVuSans-64"/>
       <use x="805.761719" xlink:href="#DejaVuSans-6c"/>
       <use x="833.544922" xlink:href="#DejaVuSans-65"/>
      </g>
     </g>
    </g>
    <g id="xtick_29">
     <g id="line2d_29">
      <g>
       <use style="stroke:#000000;stroke-width:0.8;" x="269.64" xlink:href="#m5074a3b884" y="307.584"/>
      </g>
     </g>
     <g id="text_29">
      <!-- tripyramid north -->
      <g transform="translate(275.15875 478.955875)rotate(-90)scale(0.2 -0.2)">
       <use xlink:href="#DejaVuSans-74"/>
       <use x="39.208984" xlink:href="#DejaVuSans-72"/>
       <use x="80.322266" xlink:href="#DejaVuSans-69"/>
       <use x="108.105469" xlink:href="#DejaVuSans-70"/>
       <use x="171.582031" xlink:href="#DejaVuSans-79"/>
       <use x="230.761719" xlink:href="#DejaVuSans-72"/>
       <use x="271.875" xlink:href="#DejaVuSans-61"/>
       <use x="333.154297" xlink:href="#DejaVuSans-6d"/>
       <use x="430.566406" xlink:href="#DejaVuSans-69"/>
       <use x="458.349609" xlink:href="#DejaVuSans-64"/>
       <use x="521.826172" xlink:href="#DejaVuSans-20"/>
       <use x="553.613281" xlink:href="#DejaVuSans-6e"/>
       <use x="616.992188" xlink:href="#DejaVuSans-6f"/>
       <use x="678.173828" xlink:href="#DejaVuSans-72"/>
       <use x="719.287109" xlink:href="#DejaVuSans-74"/>
       <use x="758.496094" xlink:href="#DejaVuSans-68"/>
      </g>
     </g>
    </g>
    <g id="xtick_30">
     <g id="line2d_30">
      <g>
       <use style="stroke:#000000;stroke-width:0.8;" x="277.08" xlink:href="#m5074a3b884" y="307.584"/>
      </g>
     </g>
     <g id="text_30">
      <!-- carter south -->
      <g transform="translate(282.59875 436.630875)rotate(-90)scale(0.2 -0.2)">
       <use xlink:href="#DejaVuSans-63"/>
       <use x="54.980469" xlink:href="#DejaVuSans-61"/>
       <use x="116.259766" xlink:href="#DejaVuSans-72"/>
       <use x="157.373047" xlink:href="#DejaVuSans-74"/>
       <use x="196.582031" xlink:href="#DejaVuSans-65"/>
       <use x="258.105469" xlink:href="#DejaVuSans-72"/>
       <use x="299.21875" xlink:href="#DejaVuSans-20"/>
       <use x="331.005859" xlink:href="#DejaVuSans-73"/>
       <use x="383.105469" xlink:href="#DejaVuSans-6f"/>
       <use x="444.287109" xlink:href="#DejaVuSans-75"/>
       <use x="507.666016" xlink:href="#DejaVuSans-74"/>
       <use x="546.875" xlink:href="#DejaVuSans-68"/>
      </g>
     </g>
    </g>
    <g id="xtick_31">
     <g id="line2d_31">
      <g>
       <use style="stroke:#000000;stroke-width:0.8;" x="284.52" xlink:href="#m5074a3b884" y="307.584"/>
      </g>
     </g>
     <g id="text_31">
      <!-- owls head -->
      <g transform="translate(290.03875 415.443375)rotate(-90)scale(0.2 -0.2)">
       <use xlink:href="#DejaVuSans-6f"/>
       <use x="61.181641" xlink:href="#DejaVuSans-77"/>
       <use x="142.96875" xlink:href="#DejaVuSans-6c"/>
       <use x="170.751953" xlink:href="#DejaVuSans-73"/>
       <use x="222.851562" xlink:href="#DejaVuSans-20"/>
       <use x="254.638672" xlink:href="#DejaVuSans-68"/>
       <use x="318.017578" xlink:href="#DejaVuSans-65"/>
       <use x="379.541016" xlink:href="#DejaVuSans-61"/>
       <use x="440.820312" xlink:href="#DejaVuSans-64"/>
      </g>
     </g>
    </g>
    <g id="xtick_32">
     <g id="line2d_32">
      <g>
       <use style="stroke:#000000;stroke-width:0.8;" x="291.96" xlink:href="#m5074a3b884" y="307.584"/>
      </g>
     </g>
     <g id="text_32">
      <!-- monroe -->
      <g transform="translate(297.47875 391.737125)rotate(-90)scale(0.2 -0.2)">
       <use xlink:href="#DejaVuSans-6d"/>
       <use x="97.412109" xlink:href="#DejaVuSans-6f"/>
       <use x="158.59375" xlink:href="#DejaVuSans-6e"/>
       <use x="221.972656" xlink:href="#DejaVuSans-72"/>
       <use x="263.054688" xlink:href="#DejaVuSans-6f"/>
       <use x="324.236328" xlink:href="#DejaVuSans-65"/>
      </g>
     </g>
    </g>
    <g id="xtick_33">
     <g id="line2d_33">
      <g>
       <use style="stroke:#000000;stroke-width:0.8;" x="299.4" xlink:href="#m5074a3b884" y="307.584"/>
      </g>
     </g>
     <g id="text_33">
      <!-- carter middle -->
      <g transform="translate(304.91875 449.07775)rotate(-90)scale(0.2 -0.2)">
       <use xlink:href="#DejaVuSans-63"/>
       <use x="54.980469" xlink:href="#DejaVuSans-61"/>
       <use x="116.259766" xlink:href="#DejaVuSans-72"/>
       <use x="157.373047" xlink:href="#DejaVuSans-74"/>
       <use x="196.582031" xlink:href="#DejaVuSans-65"/>
       <use x="258.105469" xlink:href="#DejaVuSans-72"/>
       <use x="299.21875" xlink:href="#DejaVuSans-20"/>
       <use x="331.005859" xlink:href="#DejaVuSans-6d"/>
       <use x="428.417969" xlink:href="#DejaVuSans-69"/>
       <use x="456.201172" xlink:href="#DejaVuSans-64"/>
       <use x="519.677734" xlink:href="#DejaVuSans-64"/>
       <use x="583.154297" xlink:href="#DejaVuSans-6c"/>
       <use x="610.9375" xlink:href="#DejaVuSans-65"/>
      </g>
     </g>
    </g>
    <g id="xtick_34">
     <g id="line2d_34">
      <g>
       <use style="stroke:#000000;stroke-width:0.8;" x="306.84" xlink:href="#m5074a3b884" y="307.584"/>
      </g>
     </g>
     <g id="text_34">
      <!-- carter dome -->
      <g transform="translate(312.35875 437.505875)rotate(-90)scale(0.2 -0.2)">
       <use xlink:href="#DejaVuSans-63"/>
       <use x="54.980469" xlink:href="#DejaVuSans-61"/>
       <use x="116.259766" xlink:href="#DejaVuSans-72"/>
       <use x="157.373047" xlink:href="#DejaVuSans-74"/>
       <use x="196.582031" xlink:href="#DejaVuSans-65"/>
       <use x="258.105469" xlink:href="#DejaVuSans-72"/>
       <use x="299.21875" xlink:href="#DejaVuSans-20"/>
       <use x="331.005859" xlink:href="#DejaVuSans-64"/>
       <use x="394.482422" xlink:href="#DejaVuSans-6f"/>
       <use x="455.664062" xlink:href="#DejaVuSans-6d"/>
       <use x="553.076172" xlink:href="#DejaVuSans-65"/>
      </g>
     </g>
    </g>
    <g id="xtick_35">
     <g id="line2d_35">
      <g>
       <use style="stroke:#000000;stroke-width:0.8;" x="314.28" xlink:href="#m5074a3b884" y="307.584"/>
      </g>
     </g>
     <g id="text_35">
      <!-- passaconaway -->
      <g transform="translate(319.79875 461.2465)rotate(-90)scale(0.2 -0.2)">
       <use xlink:href="#DejaVuSans-70"/>
       <use x="63.476562" xlink:href="#DejaVuSans-61"/>
       <use x="124.755859" xlink:href="#DejaVuSans-73"/>
       <use x="176.855469" xlink:href="#DejaVuSans-73"/>
       <use x="228.955078" xlink:href="#DejaVuSans-61"/>
       <use x="290.234375" xlink:href="#DejaVuSans-63"/>
       <use x="345.214844" xlink:href="#DejaVuSans-6f"/>
       <use x="406.396484" xlink:href="#DejaVuSans-6e"/>
       <use x="469.775391" xlink:href="#DejaVuSans-61"/>
       <use x="531.054688" xlink:href="#DejaVuSans-77"/>
       <use x="612.841797" xlink:href="#DejaVuSans-61"/>
       <use x="674.121094" xlink:href="#DejaVuSans-79"/>
      </g>
     </g>
    </g>
    <g id="xtick_36">
     <g id="line2d_36">
      <g>
       <use style="stroke:#000000;stroke-width:0.8;" x="321.72" xlink:href="#m5074a3b884" y="307.584"/>
      </g>
     </g>
     <g id="text_36">
      <!-- hale -->
      <g transform="translate(327.23875 357.37775)rotate(-90)scale(0.2 -0.2)">
       <use xlink:href="#DejaVuSans-68"/>
       <use x="63.378906" xlink:href="#DejaVuSans-61"/>
       <use x="124.658203" xlink:href="#DejaVuSans-6c"/>
       <use x="152.441406" xlink:href="#DejaVuSans-65"/>
      </g>
     </g>
    </g>
    <g id="xtick_37">
     <g id="line2d_37">
      <g>
       <use style="stroke:#000000;stroke-width:0.8;" x="329.16" xlink:href="#m5074a3b884" y="307.584"/>
      </g>
     </g>
     <g id="text_37">
      <!-- cabot -->
      <g transform="translate(334.67875 370.612125)rotate(-90)scale(0.2 -0.2)">
       <use xlink:href="#DejaVuSans-63"/>
       <use x="54.980469" xlink:href="#DejaVuSans-61"/>
       <use x="116.259766" xlink:href="#DejaVuSans-62"/>
       <use x="179.736328" xlink:href="#DejaVuSans-6f"/>
       <use x="240.917969" xlink:href="#DejaVuSans-74"/>
      </g>
     </g>
    </g>
    <g id="xtick_38">
     <g id="line2d_38">
      <g>
       <use style="stroke:#000000;stroke-width:0.8;" x="336.6" xlink:href="#m5074a3b884" y="307.584"/>
      </g>
     </g>
     <g id="text_38">
      <!-- carrigain -->
      <g transform="translate(342.11875 403.018375)rotate(-90)scale(0.2 -0.2)">
       <use xlink:href="#DejaVuSans-63"/>
       <use x="54.980469" xlink:href="#DejaVuSans-61"/>
       <use x="116.259766" xlink:href="#DejaVuSans-72"/>
       <use x="157.357422" xlink:href="#DejaVuSans-72"/>
       <use x="198.470703" xlink:href="#DejaVuSans-69"/>
       <use x="226.253906" xlink:href="#DejaVuSans-67"/>
       <use x="289.730469" xlink:href="#DejaVuSans-61"/>
       <use x="351.009766" xlink:href="#DejaVuSans-69"/>
       <use x="378.792969" xlink:href="#DejaVuSans-6e"/>
      </g>
     </g>
    </g>
    <g id="xtick_39">
     <g id="line2d_39">
      <g>
       <use style="stroke:#000000;stroke-width:0.8;" x="344.04" xlink:href="#m5074a3b884" y="307.584"/>
      </g>
     </g>
     <g id="text_39">
      <!-- wildcat d -->
      <g transform="translate(349.55875 404.8965)rotate(-90)scale(0.2 -0.2)">
       <use xlink:href="#DejaVuSans-77"/>
       <use x="81.787109" xlink:href="#DejaVuSans-69"/>
       <use x="109.570312" xlink:href="#DejaVuSans-6c"/>
       <use x="137.353516" xlink:href="#DejaVuSans-64"/>
       <use x="200.830078" xlink:href="#DejaVuSans-63"/>
       <use x="255.810547" xlink:href="#DejaVuSans-61"/>
       <use x="317.089844" xlink:href="#DejaVuSans-74"/>
       <use x="356.298828" xlink:href="#DejaVuSans-20"/>
       <use x="388.085938" xlink:href="#DejaVuSans-64"/>
      </g>
     </g>
    </g>
    <g id="xtick_40">
     <g id="line2d_40">
      <g>
       <use style="stroke:#000000;stroke-width:0.8;" x="351.48" xlink:href="#m5074a3b884" y="307.584"/>
      </g>
     </g>
     <g id="text_40">
      <!-- bondcliff -->
      <g transform="translate(356.99875 401.080875)rotate(-90)scale(0.2 -0.2)">
       <use xlink:href="#DejaVuSans-62"/>
       <use x="63.476562" xlink:href="#DejaVuSans-6f"/>
       <use x="124.658203" xlink:href="#DejaVuSans-6e"/>
       <use x="188.037109" xlink:href="#DejaVuSans-64"/>
       <use x="251.513672" xlink:href="#DejaVuSans-63"/>
       <use x="306.494141" xlink:href="#DejaVuSans-6c"/>
       <use x="334.277344" xlink:href="#DejaVuSans-69"/>
       <use x="362.060547" xlink:href="#DejaVuSans-66"/>
       <use x="397.265625" xlink:href="#DejaVuSans-66"/>
      </g>
     </g>
    </g>
    <g id="xtick_41">
     <g id="line2d_41">
      <g>
       <use style="stroke:#000000;stroke-width:0.8;" x="358.92" xlink:href="#m5074a3b884" y="307.584"/>
      </g>
     </g>
     <g id="text_41">
      <!-- bond -->
      <g transform="translate(364.43875 364.89025)rotate(-90)scale(0.2 -0.2)">
       <use xlink:href="#DejaVuSans-62"/>
       <use x="63.476562" xlink:href="#DejaVuSans-6f"/>
       <use x="124.658203" xlink:href="#DejaVuSans-6e"/>
       <use x="188.037109" xlink:href="#DejaVuSans-64"/>
      </g>
     </g>
    </g>
    <g id="xtick_42">
     <g id="line2d_42">
      <g>
       <use style="stroke:#000000;stroke-width:0.8;" x="366.36" xlink:href="#m5074a3b884" y="307.584"/>
      </g>
     </g>
     <g id="text_42">
      <!-- bond west -->
      <g transform="translate(371.87875 418.168375)rotate(-90)scale(0.2 -0.2)">
       <use xlink:href="#DejaVuSans-62"/>
       <use x="63.476562" xlink:href="#DejaVuSans-6f"/>
       <use x="124.658203" xlink:href="#DejaVuSans-6e"/>
       <use x="188.037109" xlink:href="#DejaVuSans-64"/>
       <use x="251.513672" xlink:href="#DejaVuSans-20"/>
       <use x="283.300781" xlink:href="#DejaVuSans-77"/>
       <use x="365.087891" xlink:href="#DejaVuSans-65"/>
       <use x="426.611328" xlink:href="#DejaVuSans-73"/>
       <use x="478.710938" xlink:href="#DejaVuSans-74"/>
      </g>
     </g>
    </g>
    <g id="xtick_43">
     <g id="line2d_43">
      <g>
       <use style="stroke:#000000;stroke-width:0.8;" x="373.8" xlink:href="#m5074a3b884" y="307.584"/>
      </g>
     </g>
     <g id="text_43">
      <!-- wildcat a -->
      <g transform="translate(379.31875 404.455875)rotate(-90)scale(0.2 -0.2)">
       <use xlink:href="#DejaVuSans-77"/>
       <use x="81.787109" xlink:href="#DejaVuSans-69"/>
       <use x="109.570312" xlink:href="#DejaVuSans-6c"/>
       <use x="137.353516" xlink:href="#DejaVuSans-64"/>
       <use x="200.830078" xlink:href="#DejaVuSans-63"/>
       <use x="255.810547" xlink:href="#DejaVuSans-61"/>
       <use x="317.089844" xlink:href="#DejaVuSans-74"/>
       <use x="356.298828" xlink:href="#DejaVuSans-20"/>
       <use x="388.085938" xlink:href="#DejaVuSans-61"/>
      </g>
     </g>
    </g>
    <g id="xtick_44">
     <g id="line2d_44">
      <g>
       <use style="stroke:#000000;stroke-width:0.8;" x="381.24" xlink:href="#m5074a3b884" y="307.584"/>
      </g>
     </g>
     <g id="text_44">
      <!-- isolation -->
      <g transform="translate(386.75875 398.918375)rotate(-90)scale(0.2 -0.2)">
       <use xlink:href="#DejaVuSans-69"/>
       <use x="27.783203" xlink:href="#DejaVuSans-73"/>
       <use x="79.882812" xlink:href="#DejaVuSans-6f"/>
       <use x="141.064453" xlink:href="#DejaVuSans-6c"/>
       <use x="168.847656" xlink:href="#DejaVuSans-61"/>
       <use x="230.126953" xlink:href="#DejaVuSans-74"/>
       <use x="269.335938" xlink:href="#DejaVuSans-69"/>
       <use x="297.119141" xlink:href="#DejaVuSans-6f"/>
       <use x="358.300781" xlink:href="#DejaVuSans-6e"/>
      </g>
     </g>
    </g>
    <g id="xtick_45">
     <g id="line2d_45">
      <g>
       <use style="stroke:#000000;stroke-width:0.8;" x="388.68" xlink:href="#m5074a3b884" y="307.584"/>
      </g>
     </g>
     <g id="text_45">
      <!-- twin south -->
      <g transform="translate(394.19875 419.21525)rotate(-90)scale(0.2 -0.2)">
       <use xlink:href="#DejaVuSans-74"/>
       <use x="39.208984" xlink:href="#DejaVuSans-77"/>
       <use x="120.996094" xlink:href="#DejaVuSans-69"/>
       <use x="148.779297" xlink:href="#DejaVuSans-6e"/>
       <use x="212.158203" xlink:href="#DejaVuSans-20"/>
       <use x="243.945312" xlink:href="#DejaVuSans-73"/>
       <use x="296.044922" xlink:href="#DejaVuSans-6f"/>
       <use x="357.226562" xlink:href="#DejaVuSans-75"/>
       <use x="420.605469" xlink:href="#DejaVuSans-74"/>
       <use x="459.814453" xlink:href="#DejaVuSans-68"/>
      </g>
     </g>
    </g>
    <g id="xtick_46">
     <g id="line2d_46">
      <g>
       <use style="stroke:#000000;stroke-width:0.8;" x="396.12" xlink:href="#m5074a3b884" y="307.584"/>
      </g>
     </g>
     <g id="text_46">
      <!-- zealand -->
      <defs>
       <path d="M 5.515625 54.6875 
L 48.1875 54.6875 
L 48.1875 46.484375 
L 14.40625 7.171875 
L 48.1875 7.171875 
L 48.1875 0 
L 4.296875 0 
L 4.296875 8.203125 
L 38.09375 47.515625 
L 5.515625 47.515625 
z
" id="DejaVuSans-7a"/>
      </defs>
      <g transform="translate(401.63875 392.82775)rotate(-90)scale(0.2 -0.2)">
       <use xlink:href="#DejaVuSans-7a"/>
       <use x="52.490234" xlink:href="#DejaVuSans-65"/>
       <use x="114.013672" xlink:href="#DejaVuSans-61"/>
       <use x="175.292969" xlink:href="#DejaVuSans-6c"/>
       <use x="203.076172" xlink:href="#DejaVuSans-61"/>
       <use x="264.355469" xlink:href="#DejaVuSans-6e"/>
       <use x="327.734375" xlink:href="#DejaVuSans-64"/>
      </g>
     </g>
    </g>
    <g id="xtick_47">
     <g id="line2d_47">
      <g>
       <use style="stroke:#000000;stroke-width:0.8;" x="403.56" xlink:href="#m5074a3b884" y="307.584"/>
      </g>
     </g>
     <g id="text_47">
      <!-- twin north -->
      <g transform="translate(409.07875 417.018375)rotate(-90)scale(0.2 -0.2)">
       <use xlink:href="#DejaVuSans-74"/>
       <use x="39.208984" xlink:href="#DejaVuSans-77"/>
       <use x="120.996094" xlink:href="#DejaVuSans-69"/>
       <use x="148.779297" xlink:href="#DejaVuSans-6e"/>
       <use x="212.158203" xlink:href="#DejaVuSans-20"/>
       <use x="243.945312" xlink:href="#DejaVuSans-6e"/>
       <use x="307.324219" xlink:href="#DejaVuSans-6f"/>
       <use x="368.505859" xlink:href="#DejaVuSans-72"/>
       <use x="409.619141" xlink:href="#DejaVuSans-74"/>
       <use x="448.828125" xlink:href="#DejaVuSans-68"/>
      </g>
     </g>
    </g>
    <g id="xtick_48">
     <g id="line2d_48">
      <g>
       <use style="stroke:#000000;stroke-width:0.8;" x="411" xlink:href="#m5074a3b884" y="307.584"/>
      </g>
     </g>
     <g id="text_48">
      <!-- galehead -->
      <g transform="translate(416.51875 407.334)rotate(-90)scale(0.2 -0.2)">
       <use xlink:href="#DejaVuSans-67"/>
       <use x="63.476562" xlink:href="#DejaVuSans-61"/>
       <use x="124.755859" xlink:href="#DejaVuSans-6c"/>
       <use x="152.539062" xlink:href="#DejaVuSans-65"/>
       <use x="214.0625" xlink:href="#DejaVuSans-68"/>
       <use x="277.441406" xlink:href="#DejaVuSans-65"/>
       <use x="338.964844" xlink:href="#DejaVuSans-61"/>
       <use x="400.244141" xlink:href="#DejaVuSans-64"/>
      </g>
     </g>
    </g>
    <g id="text_49">
     <!-- Peak -->
     <defs>
      <path d="M 19.671875 64.796875 
L 19.671875 37.40625 
L 32.078125 37.40625 
Q 38.96875 37.40625 42.71875 40.96875 
Q 46.484375 44.53125 46.484375 51.125 
Q 46.484375 57.671875 42.71875 61.234375 
Q 38.96875 64.796875 32.078125 64.796875 
z
M 9.8125 72.90625 
L 32.078125 72.90625 
Q 44.34375 72.90625 50.609375 67.359375 
Q 56.890625 61.8125 56.890625 51.125 
Q 56.890625 40.328125 50.609375 34.8125 
Q 44.34375 29.296875 32.078125 29.296875 
L 19.671875 29.296875 
L 19.671875 0 
L 9.8125 0 
z
" id="DejaVuSans-50"/>
     </defs>
     <g transform="translate(212.063125 512.7965)scale(0.2 -0.2)">
      <use xlink:href="#DejaVuSans-50"/>
      <use x="60.255859" xlink:href="#DejaVuSans-65"/>
      <use x="121.779297" xlink:href="#DejaVuSans-61"/>
      <use x="183.058594" xlink:href="#DejaVuSans-6b"/>
     </g>
    </g>
   </g>
   <g id="matplotlib.axis_2">
    <g id="ytick_1">
     <g id="line2d_49">
      <defs>
       <path d="M 0 0 
L -3.5 0 
" id="m73abc9466c" style="stroke:#000000;stroke-width:0.8;"/>
      </defs>
      <g>
       <use style="stroke:#000000;stroke-width:0.8;" x="57.6" xlink:href="#m73abc9466c" y="307.584"/>
      </g>
     </g>
     <g id="text_50">
      <!-- 0.0 -->
      <defs>
       <path d="M 31.78125 66.40625 
Q 24.171875 66.40625 20.328125 58.90625 
Q 16.5 51.421875 16.5 36.375 
Q 16.5 21.390625 20.328125 13.890625 
Q 24.171875 6.390625 31.78125 6.390625 
Q 39.453125 6.390625 43.28125 13.890625 
Q 47.125 21.390625 47.125 36.375 
Q 47.125 51.421875 43.28125 58.90625 
Q 39.453125 66.40625 31.78125 66.40625 
z
M 31.78125 74.21875 
Q 44.046875 74.21875 50.515625 64.515625 
Q 56.984375 54.828125 56.984375 36.375 
Q 56.984375 17.96875 50.515625 8.265625 
Q 44.046875 -1.421875 31.78125 -1.421875 
Q 19.53125 -1.421875 13.0625 8.265625 
Q 6.59375 17.96875 6.59375 36.375 
Q 6.59375 54.828125 13.0625 64.515625 
Q 19.53125 74.21875 31.78125 74.21875 
z
" id="DejaVuSans-30"/>
       <path d="M 10.6875 12.40625 
L 21 12.40625 
L 21 0 
L 10.6875 0 
z
" id="DejaVuSans-2e"/>
      </defs>
      <g transform="translate(18.79375 315.182437)scale(0.2 -0.2)">
       <use xlink:href="#DejaVuSans-30"/>
       <use x="63.623047" xlink:href="#DejaVuSans-2e"/>
       <use x="95.410156" xlink:href="#DejaVuSans-30"/>
      </g>
     </g>
    </g>
    <g id="ytick_2">
     <g id="line2d_50">
      <g>
       <use style="stroke:#000000;stroke-width:0.8;" x="57.6" xlink:href="#m73abc9466c" y="249.051429"/>
      </g>
     </g>
     <g id="text_51">
      <!-- 0.2 -->
      <defs>
       <path d="M 19.1875 8.296875 
L 53.609375 8.296875 
L 53.609375 0 
L 7.328125 0 
L 7.328125 8.296875 
Q 12.9375 14.109375 22.625 23.890625 
Q 32.328125 33.6875 34.8125 36.53125 
Q 39.546875 41.84375 41.421875 45.53125 
Q 43.3125 49.21875 43.3125 52.78125 
Q 43.3125 58.59375 39.234375 62.25 
Q 35.15625 65.921875 28.609375 65.921875 
Q 23.96875 65.921875 18.8125 64.3125 
Q 13.671875 62.703125 7.8125 59.421875 
L 7.8125 69.390625 
Q 13.765625 71.78125 18.9375 73 
Q 24.125 74.21875 28.421875 74.21875 
Q 39.75 74.21875 46.484375 68.546875 
Q 53.21875 62.890625 53.21875 53.421875 
Q 53.21875 48.921875 51.53125 44.890625 
Q 49.859375 40.875 45.40625 35.40625 
Q 44.1875 33.984375 37.640625 27.21875 
Q 31.109375 20.453125 19.1875 8.296875 
z
" id="DejaVuSans-32"/>
      </defs>
      <g transform="translate(18.79375 256.649866)scale(0.2 -0.2)">
       <use xlink:href="#DejaVuSans-30"/>
       <use x="63.623047" xlink:href="#DejaVuSans-2e"/>
       <use x="95.410156" xlink:href="#DejaVuSans-32"/>
      </g>
     </g>
    </g>
    <g id="ytick_3">
     <g id="line2d_51">
      <g>
       <use style="stroke:#000000;stroke-width:0.8;" x="57.6" xlink:href="#m73abc9466c" y="190.518857"/>
      </g>
     </g>
     <g id="text_52">
      <!-- 0.4 -->
      <defs>
       <path d="M 37.796875 64.3125 
L 12.890625 25.390625 
L 37.796875 25.390625 
z
M 35.203125 72.90625 
L 47.609375 72.90625 
L 47.609375 25.390625 
L 58.015625 25.390625 
L 58.015625 17.1875 
L 47.609375 17.1875 
L 47.609375 0 
L 37.796875 0 
L 37.796875 17.1875 
L 4.890625 17.1875 
L 4.890625 26.703125 
z
" id="DejaVuSans-34"/>
      </defs>
      <g transform="translate(18.79375 198.117295)scale(0.2 -0.2)">
       <use xlink:href="#DejaVuSans-30"/>
       <use x="63.623047" xlink:href="#DejaVuSans-2e"/>
       <use x="95.410156" xlink:href="#DejaVuSans-34"/>
      </g>
     </g>
    </g>
    <g id="ytick_4">
     <g id="line2d_52">
      <g>
       <use style="stroke:#000000;stroke-width:0.8;" x="57.6" xlink:href="#m73abc9466c" y="131.986286"/>
      </g>
     </g>
     <g id="text_53">
      <!-- 0.6 -->
      <defs>
       <path d="M 33.015625 40.375 
Q 26.375 40.375 22.484375 35.828125 
Q 18.609375 31.296875 18.609375 23.390625 
Q 18.609375 15.53125 22.484375 10.953125 
Q 26.375 6.390625 33.015625 6.390625 
Q 39.65625 6.390625 43.53125 10.953125 
Q 47.40625 15.53125 47.40625 23.390625 
Q 47.40625 31.296875 43.53125 35.828125 
Q 39.65625 40.375 33.015625 40.375 
z
M 52.59375 71.296875 
L 52.59375 62.3125 
Q 48.875 64.0625 45.09375 64.984375 
Q 41.3125 65.921875 37.59375 65.921875 
Q 27.828125 65.921875 22.671875 59.328125 
Q 17.53125 52.734375 16.796875 39.40625 
Q 19.671875 43.65625 24.015625 45.921875 
Q 28.375 48.1875 33.59375 48.1875 
Q 44.578125 48.1875 50.953125 41.515625 
Q 57.328125 34.859375 57.328125 23.390625 
Q 57.328125 12.15625 50.6875 5.359375 
Q 44.046875 -1.421875 33.015625 -1.421875 
Q 20.359375 -1.421875 13.671875 8.265625 
Q 6.984375 17.96875 6.984375 36.375 
Q 6.984375 53.65625 15.1875 63.9375 
Q 23.390625 74.21875 37.203125 74.21875 
Q 40.921875 74.21875 44.703125 73.484375 
Q 48.484375 72.75 52.59375 71.296875 
z
" id="DejaVuSans-36"/>
      </defs>
      <g transform="translate(18.79375 139.584723)scale(0.2 -0.2)">
       <use xlink:href="#DejaVuSans-30"/>
       <use x="63.623047" xlink:href="#DejaVuSans-2e"/>
       <use x="95.410156" xlink:href="#DejaVuSans-36"/>
      </g>
     </g>
    </g>
    <g id="ytick_5">
     <g id="line2d_53">
      <g>
       <use style="stroke:#000000;stroke-width:0.8;" x="57.6" xlink:href="#m73abc9466c" y="73.453714"/>
      </g>
     </g>
     <g id="text_54">
      <!-- 0.8 -->
      <defs>
       <path d="M 31.78125 34.625 
Q 24.75 34.625 20.71875 30.859375 
Q 16.703125 27.09375 16.703125 20.515625 
Q 16.703125 13.921875 20.71875 10.15625 
Q 24.75 6.390625 31.78125 6.390625 
Q 38.8125 6.390625 42.859375 10.171875 
Q 46.921875 13.96875 46.921875 20.515625 
Q 46.921875 27.09375 42.890625 30.859375 
Q 38.875 34.625 31.78125 34.625 
z
M 21.921875 38.8125 
Q 15.578125 40.375 12.03125 44.71875 
Q 8.5 49.078125 8.5 55.328125 
Q 8.5 64.0625 14.71875 69.140625 
Q 20.953125 74.21875 31.78125 74.21875 
Q 42.671875 74.21875 48.875 69.140625 
Q 55.078125 64.0625 55.078125 55.328125 
Q 55.078125 49.078125 51.53125 44.71875 
Q 48 40.375 41.703125 38.8125 
Q 48.828125 37.15625 52.796875 32.3125 
Q 56.78125 27.484375 56.78125 20.515625 
Q 56.78125 9.90625 50.3125 4.234375 
Q 43.84375 -1.421875 31.78125 -1.421875 
Q 19.734375 -1.421875 13.25 4.234375 
Q 6.78125 9.90625 6.78125 20.515625 
Q 6.78125 27.484375 10.78125 32.3125 
Q 14.796875 37.15625 21.921875 38.8125 
z
M 18.3125 54.390625 
Q 18.3125 48.734375 21.84375 45.5625 
Q 25.390625 42.390625 31.78125 42.390625 
Q 38.140625 42.390625 41.71875 45.5625 
Q 45.3125 48.734375 45.3125 54.390625 
Q 45.3125 60.0625 41.71875 63.234375 
Q 38.140625 66.40625 31.78125 66.40625 
Q 25.390625 66.40625 21.84375 63.234375 
Q 18.3125 60.0625 18.3125 54.390625 
z
" id="DejaVuSans-38"/>
      </defs>
      <g transform="translate(18.79375 81.052152)scale(0.2 -0.2)">
       <use xlink:href="#DejaVuSans-30"/>
       <use x="63.623047" xlink:href="#DejaVuSans-2e"/>
       <use x="95.410156" xlink:href="#DejaVuSans-38"/>
      </g>
     </g>
    </g>
    <g id="text_55">
     <!-- Probability of needing snowshoes -->
     <g transform="translate(10.634375 342.282688)rotate(-90)scale(0.2 -0.2)">
      <use xlink:href="#DejaVuSans-50"/>
      <use x="60.287109" xlink:href="#DejaVuSans-72"/>
      <use x="101.369141" xlink:href="#DejaVuSans-6f"/>
      <use x="162.550781" xlink:href="#DejaVuSans-62"/>
      <use x="226.027344" xlink:href="#DejaVuSans-61"/>
      <use x="287.306641" xlink:href="#DejaVuSans-62"/>
      <use x="350.783203" xlink:href="#DejaVuSans-69"/>
      <use x="378.566406" xlink:href="#DejaVuSans-6c"/>
      <use x="406.349609" xlink:href="#DejaVuSans-69"/>
      <use x="434.132812" xlink:href="#DejaVuSans-74"/>
      <use x="473.341797" xlink:href="#DejaVuSans-79"/>
      <use x="532.521484" xlink:href="#DejaVuSans-20"/>
      <use x="564.308594" xlink:href="#DejaVuSans-6f"/>
      <use x="625.490234" xlink:href="#DejaVuSans-66"/>
      <use x="660.695312" xlink:href="#DejaVuSans-20"/>
      <use x="692.482422" xlink:href="#DejaVuSans-6e"/>
      <use x="755.861328" xlink:href="#DejaVuSans-65"/>
      <use x="817.384766" xlink:href="#DejaVuSans-65"/>
      <use x="878.908203" xlink:href="#DejaVuSans-64"/>
      <use x="942.384766" xlink:href="#DejaVuSans-69"/>
      <use x="970.167969" xlink:href="#DejaVuSans-6e"/>
      <use x="1033.546875" xlink:href="#DejaVuSans-67"/>
      <use x="1097.023438" xlink:href="#DejaVuSans-20"/>
      <use x="1128.810547" xlink:href="#DejaVuSans-73"/>
      <use x="1180.910156" xlink:href="#DejaVuSans-6e"/>
      <use x="1244.289062" xlink:href="#DejaVuSans-6f"/>
      <use x="1305.470703" xlink:href="#DejaVuSans-77"/>
      <use x="1387.257812" xlink:href="#DejaVuSans-73"/>
      <use x="1439.357422" xlink:href="#DejaVuSans-68"/>
      <use x="1502.736328" xlink:href="#DejaVuSans-6f"/>
      <use x="1563.917969" xlink:href="#DejaVuSans-65"/>
      <use x="1625.441406" xlink:href="#DejaVuSans-73"/>
     </g>
    </g>
   </g>
   <g id="patch_51">
    <path d="M 57.6 307.584 
L 57.6 41.472 
" style="fill:none;stroke:#000000;stroke-linecap:square;stroke-linejoin:miter;stroke-width:0.8;"/>
   </g>
   <g id="patch_52">
    <path d="M 414.72 307.584 
L 414.72 41.472 
" style="fill:none;stroke:#000000;stroke-linecap:square;stroke-linejoin:miter;stroke-width:0.8;"/>
   </g>
   <g id="patch_53">
    <path d="M 57.6 307.584 
L 414.72 307.584 
" style="fill:none;stroke:#000000;stroke-linecap:square;stroke-linejoin:miter;stroke-width:0.8;"/>
   </g>
   <g id="patch_54">
    <path d="M 57.6 41.472 
L 414.72 41.472 
" style="fill:none;stroke:#000000;stroke-linecap:square;stroke-linejoin:miter;stroke-width:0.8;"/>
   </g>
   <g id="text_56">
    <!-- Probability of needing snowshoes during Jan, Feb and March -->
    <defs>
     <path d="M 9.8125 72.90625 
L 19.671875 72.90625 
L 19.671875 5.078125 
Q 19.671875 -8.109375 14.671875 -14.0625 
Q 9.671875 -20.015625 -1.421875 -20.015625 
L -5.171875 -20.015625 
L -5.171875 -11.71875 
L -2.09375 -11.71875 
Q 4.4375 -11.71875 7.125 -8.046875 
Q 9.8125 -4.390625 9.8125 5.078125 
z
" id="DejaVuSans-4a"/>
     <path d="M 11.71875 12.40625 
L 22.015625 12.40625 
L 22.015625 4 
L 14.015625 -11.625 
L 7.71875 -11.625 
L 11.71875 4 
z
" id="DejaVuSans-2c"/>
     <path d="M 9.8125 72.90625 
L 51.703125 72.90625 
L 51.703125 64.59375 
L 19.671875 64.59375 
L 19.671875 43.109375 
L 48.578125 43.109375 
L 48.578125 34.8125 
L 19.671875 34.8125 
L 19.671875 0 
L 9.8125 0 
z
" id="DejaVuSans-46"/>
     <path d="M 9.8125 72.90625 
L 24.515625 72.90625 
L 43.109375 23.296875 
L 61.8125 72.90625 
L 76.515625 72.90625 
L 76.515625 0 
L 66.890625 0 
L 66.890625 64.015625 
L 48.09375 14.015625 
L 38.1875 14.015625 
L 19.390625 64.015625 
L 19.390625 0 
L 9.8125 0 
z
" id="DejaVuSans-4d"/>
    </defs>
    <g transform="translate(-126.55125 35.472)scale(0.24 -0.24)">
     <use xlink:href="#DejaVuSans-50"/>
     <use x="60.287109" xlink:href="#DejaVuSans-72"/>
     <use x="101.369141" xlink:href="#DejaVuSans-6f"/>
     <use x="162.550781" xlink:href="#DejaVuSans-62"/>
     <use x="226.027344" xlink:href="#DejaVuSans-61"/>
     <use x="287.306641" xlink:href="#DejaVuSans-62"/>
     <use x="350.783203" xlink:href="#DejaVuSans-69"/>
     <use x="378.566406" xlink:href="#DejaVuSans-6c"/>
     <use x="406.349609" xlink:href="#DejaVuSans-69"/>
     <use x="434.132812" xlink:href="#DejaVuSans-74"/>
     <use x="473.341797" xlink:href="#DejaVuSans-79"/>
     <use x="532.521484" xlink:href="#DejaVuSans-20"/>
     <use x="564.308594" xlink:href="#DejaVuSans-6f"/>
     <use x="625.490234" xlink:href="#DejaVuSans-66"/>
     <use x="660.695312" xlink:href="#DejaVuSans-20"/>
     <use x="692.482422" xlink:href="#DejaVuSans-6e"/>
     <use x="755.861328" xlink:href="#DejaVuSans-65"/>
     <use x="817.384766" xlink:href="#DejaVuSans-65"/>
     <use x="878.908203" xlink:href="#DejaVuSans-64"/>
     <use x="942.384766" xlink:href="#DejaVuSans-69"/>
     <use x="970.167969" xlink:href="#DejaVuSans-6e"/>
     <use x="1033.546875" xlink:href="#DejaVuSans-67"/>
     <use x="1097.023438" xlink:href="#DejaVuSans-20"/>
     <use x="1128.810547" xlink:href="#DejaVuSans-73"/>
     <use x="1180.910156" xlink:href="#DejaVuSans-6e"/>
     <use x="1244.289062" xlink:href="#DejaVuSans-6f"/>
     <use x="1305.470703" xlink:href="#DejaVuSans-77"/>
     <use x="1387.257812" xlink:href="#DejaVuSans-73"/>
     <use x="1439.357422" xlink:href="#DejaVuSans-68"/>
     <use x="1502.736328" xlink:href="#DejaVuSans-6f"/>
     <use x="1563.917969" xlink:href="#DejaVuSans-65"/>
     <use x="1625.441406" xlink:href="#DejaVuSans-73"/>
     <use x="1677.541016" xlink:href="#DejaVuSans-20"/>
     <use x="1709.328125" xlink:href="#DejaVuSans-64"/>
     <use x="1772.804688" xlink:href="#DejaVuSans-75"/>
     <use x="1836.183594" xlink:href="#DejaVuSans-72"/>
     <use x="1877.296875" xlink:href="#DejaVuSans-69"/>
     <use x="1905.080078" xlink:href="#DejaVuSans-6e"/>
     <use x="1968.458984" xlink:href="#DejaVuSans-67"/>
     <use x="2031.935547" xlink:href="#DejaVuSans-20"/>
     <use x="2063.722656" xlink:href="#DejaVuSans-4a"/>
     <use x="2093.214844" xlink:href="#DejaVuSans-61"/>
     <use x="2154.494141" xlink:href="#DejaVuSans-6e"/>
     <use x="2217.873047" xlink:href="#DejaVuSans-2c"/>
     <use x="2249.660156" xlink:href="#DejaVuSans-20"/>
     <use x="2281.447266" xlink:href="#DejaVuSans-46"/>
     <use x="2338.888672" xlink:href="#DejaVuSans-65"/>
     <use x="2400.412109" xlink:href="#DejaVuSans-62"/>
     <use x="2463.888672" xlink:href="#DejaVuSans-20"/>
     <use x="2495.675781" xlink:href="#DejaVuSans-61"/>
     <use x="2556.955078" xlink:href="#DejaVuSans-6e"/>
     <use x="2620.333984" xlink:href="#DejaVuSans-64"/>
     <use x="2683.810547" xlink:href="#DejaVuSans-20"/>
     <use x="2715.597656" xlink:href="#DejaVuSans-4d"/>
     <use x="2801.876953" xlink:href="#DejaVuSans-61"/>
     <use x="2863.15625" xlink:href="#DejaVuSans-72"/>
     <use x="2904.238281" xlink:href="#DejaVuSans-63"/>
     <use x="2959.21875" xlink:href="#DejaVuSans-68"/>
    </g>
   </g>
   <g id="legend_1">
    <g id="patch_55">
     <path d="M 71.6 67.472 
L 79.6 67.472 
Q 83.6 67.472 83.6 63.472 
L 83.6 55.472 
Q 83.6 51.472 79.6 51.472 
L 71.6 51.472 
Q 67.6 51.472 67.6 55.472 
L 67.6 63.472 
Q 67.6 67.472 71.6 67.472 
z
" style="fill:#ffffff;opacity:0.8;stroke:#cccccc;stroke-linejoin:miter;"/>
    </g>
   </g>
  </g>
 </g>
 <defs>
  <clipPath id="p3cb6d44e0c">
   <rect height="266.112" width="357.12" x="57.6" y="41.472"/>
  </clipPath>
 </defs>
</svg>
